<svg width="42" height="39" viewBox="0 0 42 39" fill="none" xmlns="http://www.w3.org/2000/svg">
<path d="M40.7185 26.8002C40.8763 26.8002 41.0277 26.7375 41.1393 26.6259C41.2509 26.5143 41.3136 26.3629 41.3136 26.2051V6.96688C41.3136 3.40104 38.4126 0.5 34.8468 0.5H29.4122C28.2885 0.5 27.3743 1.41419 27.3743 2.53795C27.3743 3.66171 28.2885 4.5759 29.4122 4.5759H32.7364C32.834 4.576 32.9275 4.6148 32.9964 4.68376C33.0654 4.75273 33.1042 4.84623 33.1043 4.94377C33.1042 5.04131 33.0654 5.13482 32.9964 5.2038C32.9275 5.27278 32.834 5.31159 32.7364 5.31171H29.4122C28.2885 5.31171 27.3743 6.22591 27.3743 7.34966C27.3743 8.47334 28.2885 9.38761 29.4122 9.38761H32.7364C32.834 9.38772 32.9275 9.42652 32.9965 9.4955C33.0654 9.56449 33.1042 9.65802 33.1043 9.75556C33.1042 9.85309 33.0654 9.94658 32.9964 10.0155C32.9275 10.0845 32.834 10.1233 32.7364 10.1234H29.4122C28.2885 10.1234 27.3743 11.0376 27.3743 12.1614C27.3743 13.2851 28.2885 14.1993 29.4122 14.1993H32.7364C32.834 14.1994 32.9275 14.2382 32.9964 14.3072C33.0654 14.3762 33.1042 14.4697 33.1043 14.5672C33.1042 14.6647 33.0654 14.7582 32.9964 14.8272C32.9275 14.8962 32.834 14.935 32.7364 14.9351H29.4122C28.2885 14.9351 27.3743 15.8493 27.3743 16.973C27.3743 18.0968 28.2885 19.011 29.4122 19.011H32.7364C32.834 19.0111 32.9275 19.0499 32.9964 19.1188C33.0654 19.1878 33.1042 19.2813 33.1043 19.3788C33.1042 19.4764 33.0654 19.5699 32.9964 19.6389C32.9275 19.7078 32.834 19.7466 32.7364 19.7468H29.4122C28.2885 19.7468 27.3743 20.661 27.3743 21.7847C27.3743 22.9085 28.2885 23.8227 29.4122 23.8227H32.7364C32.9393 23.8227 33.1043 23.9877 33.1043 24.1905C33.1043 24.3934 32.9393 24.5584 32.7364 24.5584H29.4122C28.2885 24.5584 27.3743 25.4726 27.3743 26.5964C27.3743 27.7201 28.2885 28.6343 29.4122 28.6343H32.7364C32.834 28.6344 32.9275 28.6732 32.9964 28.7422C33.0654 28.8111 33.1042 28.9046 33.1043 29.0022C33.1042 29.0997 33.0654 29.1932 32.9964 29.2622C32.9275 29.3311 32.834 29.3699 32.7364 29.37H29.4122C28.2885 29.37 27.3743 30.2842 27.3743 31.4081C27.3743 32.5318 28.2885 33.446 29.4122 33.446H32.7364C32.834 33.4461 32.9275 33.4849 32.9964 33.5539C33.0654 33.6229 33.1042 33.7164 33.1043 33.8139C33.1042 33.9114 33.0654 34.0049 32.9964 34.0739C32.9275 34.1429 32.834 34.1817 32.7364 34.1818H29.4122C28.2885 34.1818 27.3743 35.096 27.3743 36.2197C27.3743 37.3435 28.2885 38.2577 29.4122 38.2577H34.8468C38.4127 38.2577 41.3136 35.3566 41.3136 31.7908V28.5859C41.3136 28.4281 41.2509 28.2767 41.1393 28.1651C41.0277 28.0535 40.8763 27.9908 40.7185 27.9908C40.5607 27.9908 40.4093 28.0535 40.2977 28.1651C40.1861 28.2767 40.1234 28.4281 40.1234 28.5859V31.7908C40.1234 34.7003 37.7563 37.0673 34.8468 37.0673H29.4123C28.9449 37.0673 28.5647 36.6871 28.5647 36.2197C28.5647 35.7523 28.9449 35.3721 29.4123 35.3721H32.7365C33.5957 35.3721 34.2947 34.6731 34.2947 33.8139C34.2947 32.9547 33.5957 32.2557 32.7365 32.2557H29.4123C28.9449 32.2557 28.5647 31.8754 28.5647 31.4081C28.5647 30.9407 28.9449 30.5605 29.4123 30.5605H32.7365C33.5957 30.5605 34.2947 29.8615 34.2947 29.0023C34.2947 28.1431 33.5957 27.4441 32.7365 27.4441H29.4123C28.9449 27.4441 28.5647 27.0638 28.5647 26.5964C28.5647 26.1291 28.9449 25.7488 29.4123 25.7488H32.7365C33.5957 25.7488 34.2947 25.0498 34.2947 24.1906C34.2947 23.3314 33.5957 22.6324 32.7365 22.6324H29.4123C28.9449 22.6324 28.5647 22.2522 28.5647 21.7848C28.5647 21.3174 28.9449 20.9372 29.4123 20.9372H32.7365C33.5957 20.9372 34.2947 20.2382 34.2947 19.3789C34.2947 18.5198 33.5957 17.8207 32.7365 17.8207H29.4123C28.9449 17.8207 28.5647 17.4405 28.5647 16.9731C28.5647 16.5057 28.9449 16.1255 29.4123 16.1255H32.7365C33.5957 16.1255 34.2947 15.4265 34.2947 14.5673C34.2947 13.7081 33.5957 13.0091 32.7365 13.0091H29.4123C28.9449 13.0091 28.5647 12.6288 28.5647 12.1614C28.5647 11.694 28.9449 11.3138 29.4123 11.3138H32.7365C33.5957 11.3138 34.2947 10.6148 34.2947 9.75556C34.2947 8.89636 33.5957 8.19728 32.7365 8.19728H29.4123C28.9449 8.19728 28.5647 7.81704 28.5647 7.34966C28.5647 6.88229 28.9449 6.50205 29.4123 6.50205H32.7365C33.5957 6.50205 34.2947 5.80305 34.2947 4.94377C34.2947 4.08464 33.5957 3.38557 32.7365 3.38557H29.4123C28.9449 3.38557 28.5647 3.00532 28.5647 2.53795C28.5647 2.07058 28.9449 1.69033 29.4123 1.69033H34.8468C37.7564 1.69025 40.1234 4.05735 40.1234 6.96688V26.2051C40.1234 26.3629 40.1861 26.5143 40.2977 26.6259C40.4093 26.7375 40.5607 26.8002 40.7185 26.8002ZM10.3883 27.6107C10.1931 27.0401 9.78798 26.5799 9.24744 26.3149C8.93946 26.163 8.60056 26.0843 8.25715 26.0848C7.40105 26.0848 6.60477 26.5805 6.22873 27.3477L3.72904 32.4472C3.46409 32.9877 3.42568 33.5996 3.62096 34.1703C3.81616 34.741 4.22133 35.2012 4.76186 35.4661C5.06985 35.618 5.40874 35.6968 5.75215 35.6962C6.60826 35.6962 7.40454 35.2005 7.78058 34.4332L10.2803 29.3337C10.5452 28.7932 10.5836 28.1814 10.3883 27.6107ZM9.2115 28.8099L6.71181 33.9094C6.53415 34.2718 6.15755 34.506 5.75223 34.506C5.5898 34.506 5.43292 34.4695 5.28581 34.3974C5.16001 34.336 5.04764 34.2503 4.9552 34.1452C4.86275 34.0401 4.79208 33.9177 4.74726 33.7851C4.70149 33.6528 4.6824 33.5128 4.69111 33.3731C4.69981 33.2334 4.73613 33.0968 4.79796 32.9713L7.29765 27.8718C7.47532 27.5094 7.85191 27.2752 8.25723 27.2752C8.41966 27.2752 8.57654 27.3117 8.72365 27.3838C8.84946 27.4452 8.96184 27.5309 9.05428 27.636C9.14673 27.7411 9.2174 27.8635 9.2622 27.9961C9.35457 28.2659 9.33655 28.5549 9.2115 28.8099Z" fill="#273660"/>
<path d="M26.2289 31.2094L23.7292 26.1098C22.9341 24.4877 21.3778 23.4356 19.6018 23.2893L16.6167 17.1994L21.6478 6.9356C22.1842 5.8412 22.2624 4.6035 21.8679 3.4503C21.4734 2.2971 20.6534 1.36664 19.5589 0.830078L19.5133 0.807781C19.4432 0.773394 19.3669 0.753165 19.2889 0.748249C19.211 0.743333 19.1328 0.753826 19.0588 0.77913C18.9849 0.804433 18.9167 0.844051 18.8581 0.89572C18.7995 0.94739 18.7516 1.0101 18.7172 1.08027L13.7163 11.2825L8.71537 1.08043C8.5581 0.759616 8.17571 0.68217 7.87355 0.830316C6.77915 1.36672 5.95923 2.29726 5.5647 3.45038C5.17025 4.6035 5.24841 5.84128 5.78481 6.93568L7.29009 10.0064C7.35957 10.1482 7.4825 10.2565 7.63185 10.3076C7.78119 10.3587 7.94472 10.3483 8.08644 10.2789C8.22817 10.2094 8.33649 10.0864 8.38758 9.9371C8.43867 9.78775 8.42833 9.62423 8.35885 9.4825L6.8535 6.41173C6.45699 5.60291 6.39922 4.688 6.69083 3.8357C6.92277 3.15766 7.3538 2.58372 7.92766 2.17768L18.3043 23.3462C18.2899 23.3486 18.2758 23.3522 18.2615 23.3548C17.3371 23.5239 16.4596 23.9579 15.7651 24.5914L9.46309 11.7351C9.39225 11.5957 9.26938 11.4898 9.12106 11.4402C8.97274 11.3907 8.81088 11.4015 8.67047 11.4703C8.53006 11.5391 8.42237 11.6605 8.3707 11.8081C8.31903 11.9557 8.32751 12.1177 8.39432 12.259L10.816 17.1993L7.83086 23.2892C6.05492 23.4355 4.49863 24.4877 3.70346 26.1097L1.20353 31.2094C-0.0267121 33.719 1.0142 36.7617 3.52389 37.992C6.01358 39.2125 9.08919 38.1549 10.3065 35.6715L12.8063 30.572C13.6175 28.9169 13.4406 27.0301 12.5065 25.5842L13.7163 23.1163L14.926 25.5842C13.9919 27.0301 13.8149 28.9169 14.6263 30.572L17.126 35.6715C18.3405 38.1492 21.431 39.2064 23.9086 37.992C26.4183 36.7618 27.4592 33.7191 26.2289 31.2094ZM14.3791 12.6346L19.5049 2.17768C20.0787 2.58364 20.5097 3.15758 20.7418 3.8357C21.0334 4.688 20.9755 5.60291 20.5791 6.41173L15.9539 15.8473L14.3791 12.6346ZM11.7375 30.048L9.23774 35.1475C8.31148 37.0372 5.93701 37.8491 4.04784 36.9231C2.12749 35.9819 1.33105 33.6537 2.27238 31.7333L4.77207 26.6337C5.42068 25.3105 6.73146 24.4829 8.20214 24.4622C8.20475 24.4622 8.20729 24.4627 8.20991 24.4627H8.21642C9.41945 24.4408 10.59 25.019 11.3222 25.9688C12.1957 27.1022 12.4087 28.6786 11.7375 30.048ZM11.6676 24.5913C11.5044 24.4428 11.3315 24.3053 11.1501 24.1797C10.5506 23.7589 9.84968 23.4716 9.12839 23.3462L11.4787 18.5516L13.0535 21.7642L11.6676 24.5913ZM23.3847 36.9233C21.4801 37.8568 19.1265 37.0485 18.1948 35.1477L15.6951 30.0482C15.0239 28.6791 15.2368 27.1032 16.1097 25.9698C16.8398 25.022 18.0151 24.45 19.2161 24.4629C19.2197 24.4629 19.2232 24.4623 19.2268 24.4623C20.699 24.4815 22.0113 25.3094 22.6605 26.6337L25.1602 31.7333C26.1015 33.6537 25.3051 35.982 23.3847 36.9233Z" fill="#273660"/>
<path d="M23.7032 32.4474L21.2035 27.3479C20.8274 26.5807 20.0311 26.085 19.175 26.085C18.8316 26.0845 18.4927 26.1632 18.1847 26.3151C17.6443 26.58 17.2391 27.0402 17.0438 27.6109C16.8485 28.1816 16.8869 28.7935 17.1519 29.334L19.6516 34.4334C20.0276 35.2006 20.8238 35.6964 21.6801 35.6964C22.0235 35.6969 22.3624 35.6182 22.6704 35.4663C23.7875 34.9187 24.2509 33.5644 23.7032 32.4474ZM22.1466 34.3975C22.0016 34.4691 21.842 34.5063 21.6802 34.5062C21.2687 34.5062 20.9009 34.2776 20.7206 33.9096L18.2209 28.8101C18.1591 28.6845 18.1227 28.5479 18.114 28.4083C18.1053 28.2686 18.1244 28.1285 18.1702 27.9963C18.215 27.8637 18.2857 27.7413 18.3782 27.6362C18.4706 27.5311 18.583 27.4454 18.7087 27.384C18.8538 27.3124 19.0134 27.2752 19.1752 27.2754C19.5867 27.2754 19.9545 27.5039 20.1348 27.8719L22.6345 32.9714C22.8932 33.499 22.6743 34.1388 22.1466 34.3975Z" fill="#273660"/>
</svg>
