<svg width="38" height="39" viewBox="0 0 38 39" fill="none" xmlns="http://www.w3.org/2000/svg">
<path d="M38 4.69663V1.72581H31.2581C30.4602 1.72581 29.7859 2.23988 29.5322 2.95161H24.9845L22.798 4.04457L20.81 2.05624C20.6732 1.17726 19.9176 0.5 19 0.5H12.871C11.8574 0.5 11.0323 1.32512 11.0323 2.33871V2.95161H9.19355C8.17996 2.95161 7.35484 3.77673 7.35484 4.79032V12.1452C7.35484 13.1588 8.17996 13.9839 9.19355 13.9839H11.0323V14.5968C11.0323 14.8125 11.0762 15.0172 11.1451 15.2097H6.12903C6.12903 14.5336 5.57926 13.9839 4.90323 13.9839H1.22581C0.549774 13.9839 0 14.5336 0 15.2097V16.4355C0 17.1115 0.549774 17.6613 1.22581 17.6613H4.90323C5.57926 17.6613 6.12903 17.1115 6.12903 16.4355H12.2581V17.0484C12.2581 17.2971 12.3089 17.5344 12.399 17.7514L2.70781 35.4244C2.54006 35.7307 2.45197 36.0742 2.45161 36.4233C2.45161 37.5684 3.38323 38.5 4.52821 38.5H4.65998C5.02838 38.4997 5.39007 38.4015 5.70808 38.2155C6.02609 38.0295 6.28898 37.7624 6.46988 37.4415L13.4839 24.9728V36.4233C13.4839 37.5684 14.4155 38.5 15.5605 38.5H16.3105C17.4555 38.5 18.3871 37.5684 18.3871 36.4234V24.9728L25.401 37.4415C25.5818 37.7624 25.8446 38.0296 26.1626 38.2156C26.4805 38.4015 26.8422 38.4997 27.2105 38.5H27.3422C28.4877 38.5 29.4194 37.5684 29.4194 36.4234C29.4194 36.0754 29.3305 35.7297 29.1638 35.425L19.4719 17.7514C19.565 17.5287 19.6129 17.2897 19.6129 17.0484V16.3226C20.2387 16.0997 20.7052 15.5518 20.81 14.8792L22.7981 12.8909L24.9844 13.9839H29.5321C29.7859 14.6956 30.4601 15.2097 31.258 15.2097H37.9999V12.2389L34.3225 11.626V11.3979L36.7741 10.785V6.15051L34.3225 5.5376V5.30953L38 4.69663ZM4.90323 16.4355H1.22581V15.2097H4.90323V16.4355ZM23.2903 5.16917L24.5161 4.55627V12.3792L23.2903 11.7663V5.16917ZM25.7419 11.5323H29.4194V12.7581H25.7419V11.5323ZM25.7419 10.3065V9.08065H29.4194V10.3065H25.7419ZM25.7419 7.85484V6.62903H29.4194V7.85484H25.7419ZM25.7419 5.40323V4.17742H29.4194V5.40323H25.7419ZM14.7097 1.72581H15.9355V2.95161H14.7097V1.72581ZM9.19355 12.7581C8.85599 12.7581 8.58065 12.4827 8.58065 12.1452V4.79032C8.58065 4.45277 8.85599 4.17742 9.19355 4.17742H11.0323V12.7581H9.19355ZM17.1613 18.8871V34.8226H14.7097V18.8871H17.1613ZM17.7742 17.6613H14.0968C13.7592 17.6613 13.4839 17.3859 13.4839 17.0484V16.4355H18.3871V17.0484C18.3871 17.3859 18.1117 17.6613 17.7742 17.6613ZM17.1613 15.2097H14.7097V9.08065H17.1613V15.2097ZM4.66052 37.2742H4.52821C4.05933 37.2742 3.67742 36.8924 3.67742 36.4234C3.67742 36.2929 3.71121 36.1654 3.76867 36.0484H5.84717L5.40152 36.8403C5.32752 36.9718 5.21992 37.0812 5.08972 37.1575C4.95952 37.2337 4.8114 37.274 4.66052 37.2742ZM6.53661 34.8226H4.43604L13.2833 18.689C13.3483 18.7216 13.4148 18.7497 13.4839 18.7742V22.4727L6.53661 34.8226ZM16.3105 37.2742H15.5605C15.0916 37.2742 14.7097 36.8924 14.7097 36.4234V36.0484H17.1613V36.4234C17.1613 36.8923 16.7795 37.2742 16.3105 37.2742ZM18.3871 18.7742C18.4562 18.7497 18.5227 18.7216 18.5876 18.689L27.4355 34.8226H25.3344L18.3871 22.472V18.7742ZM27.3428 37.2742H27.211C26.9045 37.2742 26.6203 37.1081 26.4701 36.8403L26.0239 36.0484H28.1023C28.1598 36.1648 28.1935 36.2929 28.1935 36.4234C28.1935 36.8923 27.8117 37.2742 27.3428 37.2742ZM19.6129 14.5968C19.6129 14.9343 19.3376 15.2097 19 15.2097H18.3871V7.85484H13.4839V15.2097H12.871C12.5334 15.2097 12.2581 14.9343 12.2581 14.5968V2.33871C12.2581 2.00115 12.5334 1.72581 12.871 1.72581H13.4839V4.17742H17.1613V1.72581H19C19.3376 1.72581 19.6129 2.00115 19.6129 2.33871V14.5968ZM22.0645 11.8913L20.8387 13.1171V3.81833L22.0645 5.04414V11.8913ZM35.5484 7.10763V9.82793L33.0968 10.4408V12.6644L36.7742 13.2773V13.9839H31.2581C30.9205 13.9839 30.6452 13.7085 30.6452 13.371V3.56452C30.6452 3.22696 30.9205 2.95161 31.2581 2.95161H36.7742V3.65821L33.0968 4.27112V6.49465L35.5484 7.10763Z" fill="#273660"/>
</svg>
