<svg width="40" height="39" viewBox="0 0 40 39" fill="none" xmlns="http://www.w3.org/2000/svg">
<path d="M35.7698 19.1963C36.0167 19.1713 36.2436 19.0491 36.4006 18.8568C36.5575 18.6645 36.6316 18.4177 36.6067 18.1708C36.2336 14.3847 34.5845 10.838 31.93 8.11273C29.2755 5.38747 25.7734 3.64559 21.9985 3.17302L22.2025 2.37811C22.2601 2.15121 22.2654 1.9142 22.2181 1.68493C22.1708 1.45566 22.0721 1.24011 21.9294 1.05453C21.7978 0.88224 21.6283 0.742593 21.4339 0.646425C21.2396 0.550256 21.0257 0.500152 20.8089 0.5H18.9228C18.4721 0.5 18.0558 0.711976 17.7815 1.08166C17.6396 1.27483 17.5447 1.49835 17.5041 1.73455C17.4636 1.97075 17.4786 2.21314 17.5479 2.44255L17.7662 3.16751C10.0261 4.1231 3.88644 10.2776 3.11612 18.2458C3.09236 18.493 3.16761 18.7395 3.32538 18.9313C3.48314 19.1231 3.71053 19.2445 3.95767 19.2688C4.08017 19.2807 4.20383 19.2684 4.32155 19.2325C4.43928 19.1965 4.54877 19.1378 4.64375 19.0595C4.73873 18.9812 4.81734 18.8849 4.87508 18.7762C4.93282 18.6675 4.96855 18.5485 4.98024 18.426C5.72555 10.7126 12.1251 4.89511 19.8648 4.89511C27.5693 4.89511 33.965 10.6829 34.7434 18.3581C34.7689 18.6052 34.8912 18.8321 35.0835 18.9891C35.2759 19.1462 35.5226 19.2207 35.7698 19.1963ZM19.4828 2.37175H20.2701L20.1009 3.03396C20.0216 3.03312 19.9445 3.02294 19.8648 3.02294C19.8025 3.02294 19.7427 3.03057 19.6808 3.03142L19.4828 2.37175ZM38.1791 20.2816H1.79254C1.54904 20.2889 1.31797 20.3908 1.14832 20.5657C0.978673 20.7405 0.883789 20.9745 0.883789 21.2181C0.883789 21.4617 0.978673 21.6958 1.14832 21.8706C1.31797 22.0454 1.54904 22.1473 1.79254 22.1546H2.44204C2.85751 23.7016 4.2591 24.8497 5.93668 24.8497H9.50339C10.6688 26.2695 14.138 30.4734 14.138 30.4734C14.1618 30.501 14.1868 30.5281 14.2139 30.5544L19.7151 35.8029L20.2692 36.2841L19.5188 36.8052C19.3206 36.9493 19.1867 37.1653 19.1458 37.407C19.105 37.6487 19.1605 37.8968 19.3005 38.098C19.4404 38.2992 19.6536 38.4376 19.8944 38.4835C20.1352 38.5293 20.3844 38.479 20.5885 38.3433L27.8236 33.2821L30.4013 35.7029C30.5748 35.8667 30.8045 35.9577 31.0431 35.9573C31.292 35.9573 31.5413 35.8585 31.7253 35.6626C31.8953 35.4816 31.9864 35.2406 31.9788 34.9924C31.9712 34.7442 31.8654 34.5092 31.6846 34.339L28.4693 31.3179C28.1755 31.0428 27.7545 31.0038 27.412 31.1755C27.2718 30.7264 27.2603 30.247 27.3789 29.7917C27.5757 29.0482 27.9454 28.3617 28.4579 27.7881L30.5959 25.4081C30.7343 25.2535 30.8173 25.0571 30.8316 24.8501H33.795C35.4717 24.8501 36.8725 23.7021 37.288 22.1551H38.1791C38.4275 22.1551 38.6658 22.0564 38.8415 21.8807C39.0171 21.705 39.1158 21.4668 39.1158 21.2183C39.1158 20.9699 39.0171 20.7316 38.8415 20.556C38.6658 20.3803 38.4275 20.2816 38.1791 20.2816ZM27.0648 26.5375C26.3532 27.3318 25.8401 28.2837 25.5678 29.3148C25.2957 30.3415 25.4057 31.432 25.8773 32.3838L21.8552 35.1819L20.9764 34.4196L15.5473 29.2376C15.2607 28.8917 13.3024 26.5171 11.9297 24.8497H13.3287C13.3287 24.8497 16.4965 27.5541 16.5202 27.5711C17.578 28.3172 20.0055 28.9811 21.1752 28.9811C21.9995 28.9791 22.8146 28.808 23.5701 28.4783C24.3256 28.1486 25.0053 27.6674 25.5674 27.0644C25.9472 26.657 26.2974 26.2962 26.5696 26.0185C27.0287 25.5501 27.532 25.2088 28.064 25.0028C28.2264 24.9383 28.395 24.8911 28.5673 24.862L27.0648 26.5375ZM24.1993 25.7866C23.8125 26.2021 23.3445 26.5338 22.8243 26.7612C22.3042 26.9886 21.7429 27.1068 21.1752 27.1085C20.2832 27.1085 18.3258 26.5277 17.6301 26.0618L16.2116 24.8497H25.093C24.8361 25.1151 24.5342 25.4276 24.1993 25.7866ZM33.795 22.9775H5.93668C5.63924 22.9774 5.34669 22.9018 5.08639 22.7579C4.82608 22.614 4.6065 22.4064 4.44818 22.1546H35.2818C35.1238 22.4064 34.9045 22.6139 34.6445 22.7578C34.3845 22.9017 34.0922 22.9773 33.795 22.9775Z" fill="#273660"/>
</svg>
