<svg width="58" height="38" viewBox="0 0 58 38" fill="none" xmlns="http://www.w3.org/2000/svg">
<path d="M43.2087 22.5494C42.3173 22.5494 41.4498 22.3811 40.6302 22.0492C39.7729 21.7024 39.0047 21.1932 38.3475 20.5359C37.3939 19.5821 36.7472 18.3843 36.4761 17.0707C36.4745 17.0637 36.473 17.0566 36.4715 17.0495C36.38 16.597 36.334 16.1364 36.334 15.6748V12.2315C36.334 12.1063 36.36 11.9824 36.4103 11.8678C36.4606 11.7531 36.5341 11.6501 36.6262 11.5653C36.7183 11.4805 36.827 11.4157 36.9454 11.3751C37.0639 11.3344 37.1894 11.3187 37.3142 11.3291C37.375 11.3339 43.5194 11.7865 44.8806 8.22936C44.9475 8.05421 45.0671 7.90418 45.223 7.79999C45.3789 7.69581 45.5633 7.64263 45.7507 7.64781C45.9381 7.65287 46.1193 7.71597 46.2693 7.82841C46.4193 7.94084 46.5307 8.09705 46.5882 8.2755C46.8651 9.13564 47.8213 10.4787 49.605 11.4331C49.7495 11.5104 49.8703 11.6255 49.9545 11.7661C50.0388 11.9067 50.0833 12.0676 50.0832 12.2315V15.6748C50.0833 19.4655 46.9994 22.5494 43.2087 22.5494ZM38.2429 16.6719C38.2442 16.6777 38.2454 16.6835 38.2466 16.6894C38.4441 17.6616 38.9218 18.5489 39.6282 19.2555C40.1127 19.74 40.6785 20.1152 41.3097 20.3706C41.9125 20.6147 42.5514 20.7384 43.2087 20.7384C46.0008 20.7384 48.2723 18.4669 48.2723 15.6748V12.7562C47.22 12.1134 46.3187 11.2877 45.6815 10.4013C44.6773 11.6132 43.1082 12.4559 41.0533 12.8723C39.9268 13.1006 38.8716 13.1576 38.145 13.1623V15.6748C38.145 16.0101 38.1779 16.3454 38.2429 16.6719Z" fill="#273660"/>
<path d="M45.6294 16.327C45.1293 16.327 44.7239 15.9216 44.7239 15.4215V14.6135C44.7239 14.1134 45.1293 13.708 45.6294 13.708C46.1295 13.708 46.5349 14.1134 46.5349 14.6135V15.4215C46.5349 15.9216 46.1295 16.327 45.6294 16.327ZM40.7978 16.327C40.2977 16.327 39.8923 15.9216 39.8923 15.4215V14.6135C39.8923 14.1134 40.2977 13.708 40.7978 13.708C41.2979 13.708 41.7033 14.1134 41.7033 14.6135V15.4215C41.7033 15.9216 41.2979 16.327 40.7978 16.327ZM43.2136 19.6163C42.4161 19.6163 41.6348 19.3144 41.0136 18.7662C40.6386 18.4353 40.6029 17.8631 40.9338 17.4882C41.2647 17.1132 41.8369 17.0775 42.2118 17.4084C42.811 17.9371 43.6162 17.9371 44.2154 17.4084C44.5903 17.0775 45.1625 17.1132 45.4935 17.4882C45.8244 17.8631 45.7886 18.4353 45.4137 18.7662C44.7924 19.3144 44.0111 19.6163 43.2136 19.6163ZM43.2049 29.1433C43.1211 29.1433 43.0377 29.1317 42.9571 29.1088C42.2913 28.9194 41.3236 28.3484 40.3684 27.5813C39.2973 26.7211 38.382 25.7289 37.791 24.7876C37.5252 24.364 37.653 23.8051 38.0765 23.5392C38.5 23.2734 39.059 23.4012 39.3249 23.8247C40.3304 25.4266 42.2651 26.859 43.2048 27.2743C44.1446 26.859 46.0792 25.4266 47.0848 23.8247C47.3507 23.4011 47.9095 23.2733 48.3332 23.5393C48.7567 23.8051 48.8845 24.364 48.6186 24.7876C48.0277 25.7289 47.1123 26.7211 46.0412 27.5813C45.0861 28.3484 44.1183 28.9195 43.4526 29.1088C43.372 29.1317 43.2886 29.1433 43.2049 29.1433Z" fill="#273660"/>
<path d="M55.1799 37.9999H31.2307C30.7306 37.9999 30.3252 37.5945 30.3252 37.0944V31.1599C30.3252 30.4996 30.4083 29.8442 30.5722 29.2119C31.1742 26.8828 32.861 24.9351 35.0841 24.0025C36.0349 23.6035 37.0441 23.4012 38.0836 23.4012L39.8955 23.4012L40.0677 21.1414C40.1058 20.6427 40.5405 20.2696 41.0394 20.3073C41.5381 20.3454 41.9115 20.7804 41.8735 21.279L41.6374 24.3755C41.6014 24.8476 41.2079 25.2122 40.7345 25.2122L38.0836 25.2122C37.286 25.2122 36.5125 25.367 35.7847 25.6725C34.08 26.3876 32.7868 27.8804 32.3254 29.6657C32.1998 30.1504 32.1361 30.6529 32.1361 31.1599V36.1889H54.2743V31.1599C54.2743 30.6529 54.2107 30.1504 54.0852 29.6663C53.6342 27.9217 52.3785 26.445 50.726 25.7157C49.9693 25.3816 49.1622 25.2122 48.3268 25.2122L45.8051 25.2122C45.3317 25.2122 44.9382 24.8476 44.9022 24.3756L44.666 21.2791C44.628 20.7804 45.0015 20.3454 45.5 20.3073C45.9992 20.2695 46.4338 20.6428 46.4718 21.1413L46.6441 23.4012L48.3268 23.4012C49.4156 23.4012 50.4689 23.6224 51.4574 24.0589C52.516 24.5262 53.4743 25.2401 54.2286 26.1234C54.9897 27.0146 55.5463 28.0829 55.8384 29.2125C56.0021 29.8442 56.0853 30.4996 56.0853 31.1599V37.0944C56.0854 37.5945 55.6799 37.9999 55.1799 37.9999Z" fill="#273660"/>
<path d="M43.2051 32.4364C43.0247 32.4365 42.8483 32.3825 42.6988 32.2816C42.6892 32.2752 41.544 31.5187 39.6044 30.9046C37.8273 30.342 34.9948 29.7862 31.5923 30.333C31.0984 30.4123 30.634 30.0764 30.5546 29.5826C30.4752 29.0889 30.8112 28.6243 31.3049 28.5449C35.0923 27.9362 38.246 28.5661 40.2247 29.2015C41.6166 29.6486 42.6389 30.1591 43.2051 30.4759C43.7713 30.1591 44.7936 29.6486 46.1856 29.2015C48.1643 28.566 51.318 27.9362 55.1053 28.5449C55.5991 28.6243 55.935 29.0889 55.8557 29.5826C55.7763 30.0764 55.3119 30.4122 54.8179 30.333C48.2582 29.2787 43.7561 32.2515 43.7114 32.2816C43.5618 32.3825 43.3855 32.4364 43.2051 32.4364ZM43.2689 5.69237C42.612 5.69237 41.9709 5.46309 41.4637 5.04679C41.0281 4.68897 40.7113 4.21661 40.5472 3.68048C40.4644 3.41013 40.4224 3.12893 40.4227 2.84618C40.4226 2.62097 40.4492 2.39654 40.5018 2.17755C40.811 0.895455 41.9489 0 43.2689 0C44.5893 0 45.7272 0.895682 46.036 2.17812C46.1009 2.44754 46.0379 2.71783 45.8861 2.92523C46.0253 3.14153 46.0718 3.41532 45.9906 3.68048C45.8264 4.21664 45.5096 4.68905 45.0743 5.0466C44.5669 5.46309 43.9258 5.69237 43.2689 5.69237ZM42.2641 2.5948C42.2636 2.59717 42.263 2.59951 42.2624 2.60185C42.2433 2.68188 42.2336 2.76389 42.2337 2.84618C42.2337 2.95039 42.2488 3.05252 42.2786 3.14971C42.3383 3.3447 42.4539 3.51651 42.6129 3.64724C42.7429 3.75394 42.9625 3.88142 43.2688 3.88142C43.5751 3.88142 43.7947 3.75397 43.925 3.64705C44.0838 3.51655 44.1994 3.34473 44.2589 3.15032C44.2885 3.05337 44.3342 2.96207 44.394 2.88025C44.3391 2.79484 44.299 2.70078 44.2753 2.60204C44.1631 2.13628 43.7493 1.81098 43.2688 1.81098C42.7911 1.81098 42.379 2.13292 42.2641 2.5948Z" fill="#273660"/>
<path d="M45.9374 6.20572C45.4523 6.20636 44.9778 6.06366 44.5736 5.79551C44.1693 5.52737 43.8533 5.14576 43.6653 4.6986C43.4708 4.23786 43.6867 3.70671 44.1474 3.5123C44.1718 3.50202 44.1966 3.4928 44.2217 3.48468C44.213 3.37156 44.2257 3.2578 44.2591 3.14938C44.2891 3.051 44.3043 2.9487 44.3041 2.84586C44.3041 2.76356 44.2945 2.68155 44.2753 2.60152C44.2297 2.41195 44.2465 2.21272 44.3232 2.03346C44.3999 1.8542 44.5325 1.7045 44.7011 1.60662C45.0767 1.38897 45.5032 1.27438 45.9373 1.27445C47.2969 1.27445 48.403 2.38055 48.403 3.7401C48.403 4.03439 48.3515 4.3226 48.2498 4.59673C47.8936 5.55886 46.9642 6.20572 45.9374 6.20572ZM45.5085 4.23522C45.6276 4.33829 45.7799 4.39493 45.9374 4.39473C46.2101 4.39473 46.457 4.22303 46.5517 3.96742C46.5786 3.89465 46.5922 3.81765 46.592 3.74006C46.592 3.43635 46.3842 3.18032 46.1033 3.10667C46.0855 3.30139 46.0477 3.49375 45.9904 3.68068C45.9123 3.93531 45.732 4.13052 45.5085 4.23522ZM40.6004 6.20572C39.5736 6.20572 38.6442 5.55886 38.2878 4.59613C38.1863 4.32216 38.1344 4.03226 38.1348 3.74006C38.1348 2.38051 39.2408 1.27441 40.6004 1.27441C41.0343 1.27439 41.4605 1.38876 41.836 1.60597C41.9734 1.68554 42.0874 1.79981 42.1666 1.93732C42.2459 2.07484 42.2876 2.23077 42.2876 2.38949C42.2876 2.88958 41.8822 3.29509 41.3821 3.29509C41.2177 3.29534 41.0563 3.25063 40.9155 3.16579C40.8186 3.11245 40.7127 3.08543 40.6004 3.08543C40.2395 3.08543 39.9458 3.37911 39.9458 3.7401C39.9458 3.81869 39.9593 3.89502 39.9859 3.96693C40.0807 4.22307 40.3276 4.39477 40.6004 4.39477C40.7292 4.39497 40.8553 4.35708 40.9626 4.28587C41.07 4.21467 41.154 4.11331 41.2039 3.99455C41.3983 3.5338 41.9295 3.3178 42.3902 3.5123C42.851 3.70671 43.0669 4.23782 42.8725 4.6986C42.4862 5.61413 41.5943 6.20572 40.6004 6.20572Z" fill="#273660"/>
<path d="M34.7688 26.0651C34.2687 26.0651 33.8633 25.6597 33.8633 25.1596V11.711C33.8633 9.19893 34.8415 6.83707 36.6178 5.06046C37.2346 4.44368 37.9338 3.91537 38.6956 3.49064C39.1325 3.24729 39.6839 3.40409 39.9273 3.84092C40.1708 4.27778 40.014 4.82922 39.5771 5.07265C38.9615 5.41584 38.3966 5.84273 37.8983 6.34113C36.4642 7.7755 35.6743 9.68261 35.6743 11.711V25.1597C35.6743 25.6597 35.2689 26.0651 34.7688 26.0651ZM51.7678 26.1374C51.2677 26.1374 50.8623 25.732 50.8623 25.2319V11.711C50.8623 8.958 49.3668 6.41432 46.9594 5.07257C46.5226 4.82911 46.3658 4.27763 46.6093 3.8408C46.8527 3.40394 47.4043 3.24726 47.841 3.49068C50.8217 5.15192 52.6733 8.30174 52.6733 11.711V25.2319C52.6733 25.732 52.2679 26.1374 51.7678 26.1374Z" fill="#273660"/>
<path d="M55.1786 34.0263C55.0176 34.0263 54.8594 33.9831 54.7207 33.9013C54.2895 33.6479 54.1454 33.093 54.3988 32.6618C55.1702 31.3492 55.7138 29.6559 55.9707 27.7647C56.2801 25.4861 56.2194 23.0264 55.7796 20.024C55.4441 17.7325 54.9575 15.7438 54.2918 13.9441C53.3017 11.2675 51.9845 9.21781 50.3768 7.85199C50.0225 7.55087 49.7002 7.31167 49.3918 7.12099C49.3259 7.08108 49.2653 7.03293 49.2116 6.9777C49.0467 6.80881 48.9546 6.58204 48.9549 6.34601C48.9549 5.84591 49.3603 5.44052 49.8604 5.44052C50.0415 5.44052 50.2102 5.49371 50.3517 5.58532C50.7359 5.8235 51.1279 6.11367 51.5495 6.47191C53.3969 8.04139 54.891 10.344 55.9903 13.3159C56.7003 15.2354 57.2175 17.3438 57.5714 19.7616C58.0365 22.9365 58.098 25.557 57.7652 28.0084C57.4762 30.1354 56.8521 32.0618 55.9601 33.5794C55.7915 33.8664 55.4891 34.0263 55.1786 34.0263ZM31.2311 34.0263C30.9207 34.0263 30.6184 33.8665 30.4497 33.5796C29.5573 32.0617 28.9331 30.1352 28.6446 28.0083C28.3118 25.5574 28.3733 22.937 28.838 19.7617C29.1924 17.3433 29.7097 15.2349 30.4194 13.3159C31.5183 10.3443 33.0124 8.04157 34.8601 6.47183C35.3892 6.02222 35.8793 5.67428 36.3583 5.40811C36.7954 5.16521 37.3467 5.32261 37.5897 5.75978C37.8326 6.1969 37.6752 6.74819 37.238 6.99109C36.8643 7.19875 36.4701 7.48036 36.0326 7.85195C34.4248 9.21792 33.1077 11.2676 32.118 13.9441C31.4525 15.7434 30.9657 17.7322 30.6299 20.0241C30.1904 23.0268 30.1298 25.4864 30.4391 27.7647C30.6957 29.6558 31.2392 31.3491 32.0109 32.6617C32.2643 33.0928 32.1203 33.6478 31.6892 33.9012C31.5505 33.9831 31.3923 34.0263 31.2311 34.0263Z" fill="#273660"/>
<path d="M9.65247 22.4431C9.53872 22.4431 9.42312 22.4215 9.31133 22.376C8.84817 22.1874 8.62557 21.6591 8.81417 21.1959C8.98667 20.7723 9.27914 19.9234 9.29974 18.9981C9.30804 18.6244 9.26677 18.453 9.19844 18.1691C9.18335 18.1064 9.1678 18.0418 9.15226 17.9732C9.0416 17.4855 9.34724 17.0004 9.83496 16.8898C10.3227 16.7793 10.8077 17.0848 10.9184 17.5725C10.9321 17.633 10.9459 17.69 10.9592 17.7453C11.0401 18.0816 11.1238 18.4294 11.1103 19.0384C11.0832 20.2541 10.711 21.3399 10.4915 21.8789C10.3483 22.2302 10.0098 22.4431 9.65247 22.4431ZM16.7759 22.449C16.4294 22.449 16.0986 22.2489 15.9484 21.912C15.5017 20.9099 15.254 19.8655 15.2322 18.8916C15.2217 18.408 15.2717 18.0973 15.3284 17.8356C15.4103 17.4197 15.777 17.1059 16.2168 17.1059C16.7169 17.1059 17.1223 17.5112 17.1223 18.0113V18.0116C17.1223 18.077 17.1152 18.1423 17.1012 18.2062C17.0678 18.3578 17.0358 18.5325 17.0428 18.8517C17.0635 19.7805 17.3586 20.6276 17.6024 21.1746C17.8061 21.6313 17.6008 22.1666 17.1441 22.3703C17.0283 22.4221 16.9028 22.4489 16.7759 22.449Z" fill="#273660"/>
<path d="M13.2827 19.6973C11.4111 19.6973 9.65688 18.8962 8.34305 17.4417C7.05253 16.013 6.3418 14.1195 6.3418 12.1101V9.28688C6.3418 9.09856 6.40052 8.91493 6.50978 8.76154C6.61904 8.60816 6.7734 8.49266 6.95138 8.43111C7.28207 8.31525 8.2605 7.88484 8.78908 7.29966C9.11151 6.94264 9.64601 6.8917 10.0197 7.19391C10.0677 7.2296 10.7798 7.74713 12.0017 8.00817C13.6912 8.36905 15.5153 8.09627 17.4232 7.19727C17.5957 7.11601 17.7894 7.09127 17.9768 7.12657C18.1642 7.16187 18.3357 7.25542 18.4668 7.39387C18.4733 7.40078 19.1694 8.13091 19.7937 8.51638C19.9251 8.5975 20.0336 8.71087 20.1088 8.84573C20.184 8.98058 20.2235 9.13243 20.2235 9.28684V12.1101C20.2235 14.1195 19.5128 16.013 18.2223 17.4417C16.9084 18.8962 15.1542 19.6973 13.2827 19.6973ZM8.15278 9.89205V12.1101C8.15278 15.2951 10.454 17.8862 13.2826 17.8862C16.1112 17.8862 18.4125 15.2951 18.4125 12.1101V9.76279C18.114 9.53981 17.8346 9.29605 17.6149 9.09257C14.9911 10.1813 12.8626 10.0636 11.5046 9.7529C10.6608 9.55988 10.0089 9.27548 9.5672 9.03862C9.07952 9.42447 8.54999 9.70819 8.15278 9.89205Z" fill="#273660"/>
<path d="M7.24758 10.1924C6.89727 10.1924 6.56378 9.98798 6.41596 9.64597C6.07957 8.86774 6.02822 8.0445 5.98291 7.31814C5.9459 6.72505 5.89979 5.98689 6.07323 5.26012C6.22581 4.62069 6.59898 3.94455 7.214 3.19303C7.30973 3.07606 7.40928 2.96226 7.51247 2.85181C9.16179 1.08731 11.8681 0.395216 12.3938 0.274409C13.4236 0.037774 14.4106 -0.0464373 15.3274 0.0241909C15.9714 0.0738043 16.5185 0.163522 16.9999 0.298478C17.68 0.489121 18.2135 0.858865 18.5427 1.36768C18.7064 1.62068 18.8042 1.87381 18.8904 2.09709C18.9601 2.27766 19.0259 2.44819 19.0993 2.535C19.2131 2.66951 19.3699 2.79329 19.5516 2.93663C19.7621 3.10271 20.0007 3.29097 20.2204 3.53897C20.7433 4.12927 21.3344 5.11727 21.4253 6.11995C21.5102 7.05642 21.1448 7.86423 20.817 8.46336C20.8089 8.47834 20.7894 8.51618 20.7624 8.56836C20.2031 9.64775 20.0842 9.81292 19.9288 9.95497C19.5598 10.2924 18.9869 10.2667 18.6495 9.89758C18.3364 9.55501 18.336 9.03703 18.6326 8.69457C18.6817 8.61982 18.8116 8.39685 19.1544 7.7352C19.1787 7.68798 19.2033 7.64094 19.2283 7.59409C19.5322 7.03861 19.6535 6.63439 19.6217 6.28347C19.5808 5.83144 19.2695 5.19662 18.8648 4.73972C18.7522 4.61265 18.6029 4.49482 18.4299 4.3584C18.204 4.18017 17.948 3.9782 17.7164 3.70426C17.4463 3.38477 17.3103 3.03246 17.201 2.74938C17.141 2.59409 17.0844 2.4474 17.0223 2.35138C16.9139 2.18394 16.6845 2.09082 16.5111 2.04223C16.1453 1.93968 15.7126 1.87018 15.1884 1.82981C14.4544 1.77326 13.6507 1.84377 12.7995 2.03936C11.5959 2.31595 9.83559 3.01857 8.83559 4.08845C8.75953 4.16987 8.68616 4.25376 8.61559 4.33999C8.07792 4.997 7.89421 5.43159 7.83483 5.68045C7.72421 6.14406 7.75941 6.70788 7.79046 7.20534C7.8283 7.81209 7.86746 8.43941 8.07837 8.92743C8.27678 9.38647 8.0655 9.91943 7.60646 10.1179C7.49318 10.167 7.37104 10.1924 7.24758 10.1924ZM18.7069 8.61835C18.7066 8.61861 18.7064 8.61887 18.7061 8.61914L18.7069 8.61835ZM13.2817 16.8956C12.4483 16.8956 11.6559 16.5657 10.9901 15.9414C10.6253 15.5993 10.6069 15.0263 10.949 14.6615C11.291 14.2968 11.864 14.2783 12.2288 14.6204C12.4548 14.8322 12.8208 15.0847 13.2817 15.0847C13.5157 15.0847 13.7368 15.0249 13.9575 14.9018C14.0888 14.8286 14.2161 14.7345 14.3358 14.6222C14.7004 14.28 15.2735 14.2981 15.6157 14.6628C15.958 15.0274 15.9398 15.6004 15.5752 15.9427C15.3475 16.1563 15.0999 16.3383 14.8393 16.4836C14.3488 16.757 13.8247 16.8956 13.2817 16.8956ZM10.9616 13.2536C10.4615 13.2536 10.0561 12.8482 10.0561 12.3481V11.4375C10.0561 10.9374 10.4615 10.532 10.9616 10.532C11.4617 10.532 11.8671 10.9374 11.8671 11.4375V12.3481C11.8671 12.8482 11.4617 13.2536 10.9616 13.2536ZM15.6034 13.2536C15.1033 13.2536 14.6979 12.8482 14.6979 12.3481V11.4375C14.6979 10.9374 15.1033 10.532 15.6034 10.532C16.1035 10.532 16.5089 10.9374 16.5089 11.4375V12.3481C16.5089 12.8482 16.1035 13.2536 15.6034 13.2536ZM14.5652 37.9999C14.5136 37.9999 14.4613 37.9955 14.4087 37.9864C13.916 37.9005 13.5863 37.4316 13.6721 36.9389L16.5116 20.6426C16.5974 20.15 17.0663 19.82 17.559 19.906C18.0517 19.9919 18.3815 20.4609 18.2956 20.9535L15.4562 37.2497C15.3795 37.6898 14.9971 37.9999 14.5652 37.9999Z" fill="#273660"/>
<path d="M9.8039 26.7781C9.47848 26.7781 9.16409 26.6022 9.00197 26.2943C8.76892 25.8519 8.93873 25.3043 9.38118 25.0712L12.7042 23.3211C12.8309 23.2544 12.9715 23.2187 13.1146 23.2169C13.2578 23.2151 13.3993 23.2472 13.5276 23.3107L16.9328 24.9948C17.3811 25.2165 17.5647 25.7596 17.343 26.2079C17.1213 26.6562 16.5782 26.8397 16.13 26.6181L13.1391 25.1389L10.2251 26.6736C10.0953 26.7422 9.95071 26.778 9.8039 26.7781Z" fill="#273660"/>
<path d="M11.9127 38.0001C11.4857 38.0001 11.1056 37.6968 11.0238 37.2619L7.95815 20.9657C7.86571 20.4742 8.18916 20.0008 8.68062 19.9084C9.17204 19.8158 9.64546 20.1394 9.7379 20.6308L12.8036 36.927C12.896 37.4185 12.5725 37.8919 12.0811 37.9843C12.0256 37.9948 11.9692 38.0001 11.9127 38.0001Z" fill="#273660"/>
<path d="M25.3221 37.9997H0.92991C0.429814 37.9997 0.024417 37.5943 0.024417 37.0943V25.0519C0.023362 24.1983 0.308359 23.369 0.833893 22.6965C1.35943 22.0239 2.09518 21.5468 2.92365 21.3414L8.62924 19.9195C8.76231 19.8863 8.90117 19.8838 9.03535 19.9121C9.16953 19.9405 9.29552 19.9989 9.40381 20.0831L13.126 22.9755L16.8482 20.0831C16.9565 19.9989 17.0825 19.9405 17.2167 19.9121C17.3509 19.8838 17.4897 19.8863 17.6228 19.9195L23.3284 21.3415C24.1569 21.5468 24.8927 22.0239 25.4182 22.6965C25.9437 23.369 26.2287 24.1983 26.2276 25.0519V37.0943C26.2276 37.5943 25.8222 37.9997 25.3221 37.9997ZM1.8354 36.1888H24.4167V25.0519C24.4172 24.6026 24.2672 24.166 23.9906 23.812C23.7139 23.4579 23.3266 23.2068 22.8905 23.0987L17.612 21.7831L13.6817 24.8372C13.5228 24.9607 13.3273 25.0277 13.1261 25.0277C12.9248 25.0277 12.7294 24.9607 12.5705 24.8372L8.64018 21.7831L3.36161 23.0987C2.9255 23.2068 2.53819 23.4579 2.26155 23.812C1.98491 24.166 1.83488 24.6026 1.83544 25.0519V36.1888H1.8354Z" fill="#273660"/>
</svg>
