<svg width="38" height="39" viewBox="0 0 38 39" fill="none" xmlns="http://www.w3.org/2000/svg">
<path d="M37.4062 34.9375H35.0312V33.259C35.283 33.2352 35.5324 33.1996 35.7734 33.1372C35.9103 33.102 36.03 33.019 36.1111 32.9033C36.1922 32.7876 36.2293 32.6467 36.2158 32.5061L35.2017 21.8471C35.2135 21.8435 35.2242 21.8376 35.2361 21.8334C35.2515 21.8275 35.2664 21.8228 35.2812 21.8156C35.4991 21.7278 35.6024 21.5021 35.625 21.2812V14.75H36.2188C36.3762 14.75 36.5272 14.6874 36.6386 14.5761C36.7499 14.4647 36.8125 14.3137 36.8125 14.1562V11.7812C36.8053 11.6817 36.7765 11.585 36.728 11.4978C36.6794 11.4106 36.6124 11.3351 36.5317 11.2766L19.3129 0.589063C19.1211 0.470313 18.8789 0.470313 18.6871 0.589063L1.46834 11.2766C1.38759 11.3351 1.32061 11.4107 1.27209 11.4978C1.22358 11.585 1.19471 11.6817 1.1875 11.7812V14.1562C1.1875 14.3137 1.25006 14.4647 1.36141 14.5761C1.47276 14.6874 1.62378 14.75 1.78125 14.75H2.375V21.2812C2.39756 21.5021 2.50147 21.7272 2.71819 21.8156C2.73362 21.8228 2.74906 21.8275 2.7645 21.8334C2.77638 21.8382 2.78647 21.8435 2.79834 21.8471L1.78363 32.5061C1.77025 32.6468 1.80751 32.7877 1.8887 32.9034C1.96989 33.0191 2.08969 33.102 2.22656 33.1372C2.46762 33.1996 2.717 33.2358 2.96875 33.259V34.9375H0.59375C0.436278 34.9375 0.285255 35.0001 0.173905 35.1114C0.0625556 35.2228 0 35.3738 0 35.5312L0 37.9062C0 38.0637 0.0625556 38.2147 0.173905 38.3261C0.285255 38.4374 0.436278 38.5 0.59375 38.5H37.4062C37.5637 38.5 37.7147 38.4374 37.8261 38.3261C37.9374 38.2147 38 38.0637 38 37.9062V35.5312C38 35.3738 37.9374 35.2228 37.8261 35.1114C37.7147 35.0001 37.5637 34.9375 37.4062 34.9375ZM6.53125 34.9375V32.1724C6.66009 32.0691 6.78478 31.961 6.90353 31.8423L6.95103 31.7948C7.01011 31.7358 7.05609 31.665 7.08597 31.5871C7.11584 31.5091 7.12894 31.4257 7.12441 31.3423L7.10778 31.0265L7.48362 31.1013C7.638 31.1333 7.79119 31.1494 7.95031 31.1494C8.38236 31.1468 8.80529 31.0249 9.17249 30.7972C9.5397 30.5696 9.83693 30.245 10.0314 29.8592C10.0878 29.7452 10.1068 29.6157 10.0848 29.491L8.44194 20.1703C10.1714 18.9829 11.466 17.2634 12.1291 15.2731L12.1398 15.2387C12.7499 15.6922 13.4898 15.9373 14.25 15.9375H15.4031C15.6282 16.1184 15.8874 16.2522 16.1652 16.3313C16.443 16.4103 16.7338 16.4329 17.0204 16.3977C17.3458 17.1761 18.1129 17.7188 19 17.7188C19.8871 17.7188 20.6542 17.1761 20.9796 16.3977C21.2664 16.4338 21.5576 16.4116 21.8357 16.3326C22.1139 16.2535 22.3732 16.1191 22.5981 15.9375H23.75C24.5102 15.9373 25.2501 15.6922 25.8602 15.2387L25.8721 15.2731C26.535 17.2632 27.8291 18.9826 29.5581 20.1703L27.9157 29.491C27.8935 29.6163 27.9122 29.7454 27.9692 29.8592C28.1637 30.2448 28.4608 30.5694 28.8279 30.797C29.195 31.0246 29.6178 31.1466 30.0497 31.1494C30.2094 31.1494 30.362 31.1333 30.5104 31.1019L30.8928 31.0265L30.8762 31.3423C30.8714 31.4256 30.8843 31.509 30.914 31.5869C30.9436 31.6649 30.9894 31.7357 31.0484 31.7948L31.0965 31.8423C31.2152 31.9616 31.3405 32.0697 31.4688 32.173V34.9375H6.53125ZM3.48709 32.0982C3.33027 32.1004 3.17346 32.0934 3.01744 32.0774L3.99416 21.8144C4.47984 21.7628 4.95603 21.6767 5.41975 21.555L5.92325 31.1357C5.81788 31.2295 5.70684 31.3168 5.59075 31.397C4.97484 31.8347 4.24243 32.0788 3.48709 32.0982ZM7.35181 20.8258L8.87775 29.4809C8.62066 29.8396 8.18544 30.0355 7.72172 29.9381L7.04306 29.8028L6.58884 21.1696C6.84772 21.0651 7.10362 20.9523 7.35181 20.8252V20.8258ZM2.375 13.5625V12.375H10.6875C10.6875 12.7918 10.7635 13.1902 10.8953 13.5625H2.375ZM24.9375 11.7812H26.125V12.375C26.125 13.6848 25.0598 14.75 23.75 14.75H23.3463C23.4157 14.4428 23.417 14.1242 23.3501 13.8165C23.2833 13.5087 23.1498 13.2194 22.9591 12.9688C23.0054 12.9082 23.044 12.8429 23.0832 12.7788C23.6537 12.5912 24.1672 12.2616 24.5753 11.821C24.6941 11.8026 24.8128 11.7812 24.9375 11.7812ZM24.3438 9.40625C24.3438 10.1841 23.9649 10.8823 23.367 11.3199C23.3276 11.0644 23.2416 10.8183 23.1135 10.5938C22.9418 10.2973 22.7014 10.0465 22.4125 9.86243C22.1236 9.67839 21.7946 9.56653 21.4534 9.53628C21.6736 9.30688 21.9381 9.12448 22.2307 9.00008C22.5234 8.87568 22.8382 8.81187 23.1562 8.8125H24.3438V9.40625ZM19.9571 10.3177C19.9627 10.416 19.9926 10.5114 20.0442 10.5954C20.0958 10.6793 20.1675 10.749 20.2528 10.7983C20.3381 10.8476 20.4343 10.8749 20.5328 10.8778C20.6312 10.8806 20.7289 10.8589 20.8169 10.8146C21.0358 10.7033 21.2891 10.6798 21.5248 10.7492C21.7605 10.8185 21.9607 10.9753 22.0845 11.1875C22.3387 11.6269 22.2021 12.1921 21.7746 12.4724C21.6922 12.5264 21.6244 12.6001 21.5776 12.6868C21.5307 12.7735 21.5062 12.8705 21.5062 12.969C21.5062 13.0676 21.5307 13.1646 21.5776 13.2513C21.6244 13.338 21.6922 13.4117 21.7746 13.4657C22.2021 13.746 22.3387 14.31 22.0845 14.7506C22.0474 14.8131 22.0032 14.871 21.9527 14.9234L21.9521 14.9246C21.8095 15.0753 21.6221 15.1761 21.4177 15.2119C21.2133 15.2478 21.0028 15.2167 20.8175 15.1235C20.7295 15.0786 20.6317 15.0564 20.533 15.0589C20.4343 15.0615 20.3377 15.0887 20.2522 15.1381C20.1667 15.1875 20.0949 15.2575 20.0434 15.3418C19.9918 15.426 19.9622 15.5218 19.9571 15.6204C19.9439 15.8657 19.8375 16.0967 19.6595 16.266C19.4816 16.4354 19.2456 16.5302 19 16.5312C18.7542 16.5304 18.5181 16.4355 18.3401 16.266C18.1621 16.0965 18.0558 15.8653 18.0429 15.6198C18.0371 15.5215 18.0071 15.4262 17.9553 15.3423C17.9036 15.2585 17.8319 15.1889 17.7466 15.1397C17.6612 15.0904 17.565 15.0632 17.4666 15.0604C17.3681 15.0575 17.2705 15.0792 17.1825 15.1235C16.9971 15.217 16.7864 15.2481 16.5818 15.2122C16.3772 15.1762 16.1897 15.0751 16.0473 14.924C15.9966 14.8713 15.9521 14.8129 15.9149 14.75C15.793 14.5367 15.7572 14.2849 15.8149 14.0462C15.8727 13.8074 16.0195 13.5997 16.2254 13.4657C16.3078 13.4117 16.3756 13.338 16.4224 13.2513C16.4693 13.1646 16.4938 13.0676 16.4938 12.969C16.4938 12.8705 16.4693 12.7735 16.4224 12.6868C16.3756 12.6001 16.3078 12.5264 16.2254 12.4724C16.0193 12.3385 15.8722 12.1307 15.8145 11.8917C15.7567 11.6528 15.7926 11.4008 15.9149 11.1875C16.0386 10.9752 16.2388 10.8183 16.4745 10.7489C16.7103 10.6796 16.9636 10.7031 17.1825 10.8146C17.2706 10.8589 17.3683 10.8805 17.4668 10.8777C17.5653 10.8748 17.6616 10.8475 17.747 10.7982C17.8323 10.749 17.9041 10.6792 17.9559 10.5954C18.0076 10.5115 18.0377 10.4161 18.0435 10.3177C18.0564 10.0723 18.1626 9.84121 18.3405 9.67174C18.5184 9.50227 18.7543 9.40728 19 9.40625C19.5082 9.40625 19.9286 9.80644 19.9571 10.3177ZM14.8865 10.5938C14.7586 10.8182 14.6727 11.0641 14.633 11.3193C14.3308 11.1001 14.0848 10.8125 13.9151 10.48C13.7453 10.1475 13.6566 9.77956 13.6562 9.40625V8.8125H14.8438C15.5028 8.8125 16.1084 9.08147 16.5478 9.53806C16.2066 9.56822 15.8777 9.67985 15.5886 9.86355C15.2995 10.0473 15.0587 10.2977 14.8865 10.5938ZM13.4253 11.821C13.8332 12.2612 14.3462 12.5905 14.9162 12.7782C14.9554 12.8435 14.9946 12.9082 15.0409 12.9688C14.8502 13.2194 14.7167 13.5087 14.6499 13.8165C14.583 14.1242 14.5843 14.4428 14.6538 14.75H14.25C12.9402 14.75 11.875 13.6848 11.875 12.375V11.7812H13.0625C13.1872 11.7812 13.3065 11.8026 13.4253 11.821ZM34.0064 21.8138L34.9826 32.078C34.8496 32.0922 34.7154 32.0994 34.58 32.0994C34.558 32.0994 34.5343 32.1006 34.4541 32.0934C33.7157 32.068 33.0014 31.8242 32.4015 31.3928C32.288 31.3137 32.1794 31.2279 32.0762 31.1357L32.5808 21.555C33.0446 21.6767 33.5207 21.7628 34.0058 21.8144L34.0064 21.8138ZM30.9569 29.8028L30.2718 29.9393C29.8442 30.0272 29.3787 29.8384 29.1228 29.4803L30.6482 20.8258C30.8964 20.9523 31.1517 21.0651 31.4112 21.1702L30.9569 29.8028ZM32.6562 32.8796C33.0354 33.0452 33.4346 33.1602 33.8438 33.2216V34.9375H32.6562V32.8796ZM34.4375 20.1021C33.5855 19.3777 32.3879 18.0976 32.0506 16.4149C32.0193 16.2608 31.9282 16.1255 31.7973 16.0385C31.6663 15.9516 31.5062 15.9201 31.3521 15.951C31.198 15.9819 31.0624 16.0726 30.9751 16.2033C30.8877 16.334 30.8558 16.494 30.8863 16.6482C31.214 18.287 32.1836 19.5754 33.0665 20.4542C31.6655 20.1214 30.3726 19.4363 29.3106 18.4638C28.2485 17.4913 27.4524 16.2636 26.9978 14.8972L26.9485 14.75H34.4375V20.1021ZM35.625 13.5625H27.1047C27.2414 13.1815 27.3117 12.7798 27.3125 12.375H35.625V13.5625ZM19 1.79259L34.1365 11.1875H27.3125C27.3125 11.03 27.2499 10.879 27.1386 10.7677C27.0272 10.6563 26.8762 10.5938 26.7188 10.5938H25.3282C25.4627 10.2123 25.5313 9.81073 25.5312 9.40625V8.21875C25.5312 8.06128 25.4687 7.91025 25.3573 7.79891C25.246 7.68756 25.095 7.625 24.9375 7.625H23.1562C22.6515 7.62313 22.1523 7.72942 21.6921 7.93672C21.232 8.14401 20.8215 8.4475 20.4885 8.82675C20.1014 8.4515 19.5771 8.21875 19 8.21875C18.4229 8.21875 17.8986 8.4515 17.5115 8.82675C17.1785 8.4475 16.768 8.14401 16.3079 7.93672C15.8477 7.72942 15.3485 7.62313 14.8438 7.625H13.0625C12.905 7.625 12.754 7.68756 12.6427 7.79891C12.5313 7.91025 12.4688 8.06128 12.4688 8.21875V9.40625C12.4688 9.82069 12.54 10.2203 12.6718 10.5938H11.2812C11.1238 10.5938 10.9728 10.6563 10.8614 10.7677C10.7501 10.879 10.6875 11.03 10.6875 11.1875H3.86353L19 1.79259ZM11.0509 14.75L11.0022 14.8972C10.5478 16.2639 9.75167 17.4918 8.68947 18.4644C7.62727 19.4371 6.33418 20.1222 4.93287 20.4548C5.81637 19.5748 6.78537 18.2864 7.11312 16.6476C7.1381 16.4957 7.10311 16.3401 7.01553 16.2135C6.92795 16.0869 6.79463 15.9993 6.64369 15.9691C6.49274 15.9389 6.33597 15.9685 6.20644 16.0517C6.07691 16.1348 5.98474 16.2651 5.94938 16.4149C5.61391 18.0893 4.41512 19.3717 3.5625 20.0991V14.7494L11.0509 14.75ZM4.15625 33.2216C4.56516 33.1589 4.96428 33.0437 5.34375 32.879V34.9375H4.15625V33.2216ZM36.8125 37.3125H1.1875V36.125H36.8125V37.3125Z" fill="white"/>
<path d="M21.375 21.875C20.5907 21.875 19.7303 22.1398 19 22.5964C18.2709 22.1398 17.4099 21.875 16.625 21.875C14.6603 21.875 13.0625 23.4728 13.0625 25.4375C13.0625 30.0171 18.6343 31.3079 18.8712 31.3608C18.956 31.3799 19.044 31.3799 19.1288 31.3608C19.3663 31.3079 24.9375 30.0171 24.9375 25.4375C24.9375 23.4728 23.3397 21.875 21.375 21.875ZM19 30.1685C18.2252 29.9601 14.25 28.7257 14.25 25.4375C14.25 24.1277 15.3152 23.0625 16.625 23.0625C17.2918 23.0625 18.0447 23.3344 18.639 23.7892C18.7426 23.8686 18.8695 23.9116 19 23.9116C19.1305 23.9116 19.2574 23.8686 19.361 23.7892C19.9553 23.3344 20.7088 23.0625 21.375 23.0625C22.6848 23.0625 23.75 24.1277 23.75 25.4375C23.75 28.7263 19.7748 29.9601 19 30.1685ZM17.2188 12.9688C17.2188 13.9508 18.0179 14.75 19 14.75C19.9821 14.75 20.7812 13.9508 20.7812 12.9688C20.7812 11.9867 19.9821 11.1875 19 11.1875C18.0179 11.1875 17.2188 11.9867 17.2188 12.9688ZM19.5938 12.9688C19.5938 13.2959 19.3272 13.5625 19 13.5625C18.6728 13.5625 18.4062 13.2959 18.4062 12.9688C18.4062 12.6416 18.6728 12.375 19 12.375C19.3272 12.375 19.5938 12.6416 19.5938 12.9688Z" fill="white"/>
</svg>
