<svg width="200" height="64" viewBox="0 0 200 64" fill="none" xmlns="http://www.w3.org/2000/svg">
<path d="M165.083 11.4871C165.005 12.3707 164.615 13.1764 163.94 13.7741C163.29 14.3719 162.432 14.6577 161.549 14.6318C160.665 14.6058 159.833 14.2419 159.236 13.6182C158.612 12.9944 158.274 12.1368 158.248 11.2791C158.326 10.3955 158.716 9.58983 159.392 8.99208C160.041 8.39433 160.899 8.10845 161.783 8.13444C162.666 8.16043 163.498 8.52427 164.096 9.14802C164.719 9.74577 165.083 10.6034 165.083 11.4871Z" fill="#273660"/>
<path d="M109.857 8.05728C110.273 8.03129 110.715 8.08327 111.131 8.21322C111.547 8.34316 111.911 8.57707 112.222 8.86295C112.534 9.14883 112.794 9.48669 113.002 9.87653C113.184 10.2664 113.288 10.6822 113.314 11.124C113.34 11.5658 113.288 12.0076 113.132 12.4495C112.976 12.8653 112.742 13.2551 112.456 13.593C112.145 13.9309 111.781 14.1908 111.391 14.3727C110.975 14.5546 110.533 14.6586 110.091 14.6586C109.65 14.6845 109.208 14.6066 108.792 14.4506C108.376 14.2947 107.986 14.0608 107.674 13.7489C107.362 13.4371 107.103 13.0732 106.921 12.6574C106.739 12.2416 106.635 11.7997 106.635 11.3579C106.661 10.5003 107.025 9.66861 107.622 9.07086C108.168 8.44712 109 8.10926 109.857 8.05728Z" fill="#273660"/>
<path d="M145.489 8.00391C146.347 8.0299 147.178 8.39374 147.776 8.9915C148.4 9.58925 148.738 10.4209 148.79 11.2786C148.79 12.1882 148.452 13.0458 147.802 13.6956C147.178 14.3453 146.295 14.7091 145.411 14.7091C144.501 14.7091 143.644 14.3713 142.994 13.7216C142.344 13.0978 141.98 12.2142 141.98 11.3045C141.98 10.8627 142.084 10.4209 142.266 10.0051C142.448 9.58925 142.708 9.2254 143.046 8.91353C143.384 8.60166 143.748 8.36775 144.164 8.21182C144.579 8.05588 145.021 8.00391 145.489 8.00391Z" fill="#273660"/>
<path d="M136.575 8.00391C137.432 8.00391 138.29 8.34176 138.914 8.93951C139.537 9.53727 139.927 10.3689 139.953 11.2266C139.953 11.6684 139.849 12.1362 139.693 12.552C139.511 12.9679 139.252 13.3577 138.94 13.6696C138.628 13.9814 138.238 14.2413 137.822 14.3973C137.406 14.5532 136.965 14.6312 136.497 14.6312C135.639 14.6052 134.807 14.2413 134.184 13.6176C133.586 12.9938 133.248 12.1622 133.248 11.2786C133.248 10.8367 133.352 10.4209 133.508 10.0051C133.69 9.61524 133.924 9.25139 134.236 8.93951C134.548 8.62764 134.911 8.39374 135.301 8.23781C135.717 8.08187 136.133 8.00391 136.575 8.00391Z" fill="#273660"/>
<path fill-rule="evenodd" clip-rule="evenodd" d="M198.376 26.1976C195.725 20.5839 187.746 18.6867 183.38 21.5195C172.828 28.3807 181.769 37.8408 171.711 37.8408C165.187 37.8408 164.927 37.0871 164.927 31.5254V24.6902C164.927 21.1297 163.966 20.246 161.705 20.246C159.496 20.246 158.56 21.1297 158.56 24.6902C158.56 26.6134 158.56 32.9548 158.534 34.878C158.482 37.7108 157.832 38.1267 150.971 38.1267C144.604 38.1267 144.24 37.6589 144.24 35.0599C144.24 34.0464 144.292 26.9513 144.292 24.6642C144.292 21.1037 143.226 20.2201 140.965 20.2201C138.756 20.2201 137.899 21.1037 137.899 24.6642C137.899 28.1208 137.925 31.6034 137.873 35.0599C137.821 37.7108 137.275 38.2047 134.65 38.2047H126.359C123.345 38.2047 123.475 37.269 123.475 32.3311C123.475 20.1681 107.777 16.4516 100.162 24.7942C99.4864 25.5219 98.161 24.9501 98.213 23.9625V5.51011C98.2649 3.82081 96.7835 2.28744 95.0942 2.28744C93.3789 2.26145 91.8716 3.76883 91.8975 5.48412C91.8716 5.48412 91.8975 35.8656 91.8975 36.5673C91.8975 38.1786 91.0139 38.1527 88.5449 38.1527C88.5449 38.1527 83.7889 38.0747 81.4239 38.0747C77.0317 38.0747 77.3695 33.8904 77.3695 30.6937C77.3695 24.6382 72.1457 20.2201 65.9342 20.2201C59.5409 20.2201 53.8492 24.6642 53.8492 30.8237C53.8492 32.9028 53.7193 34.956 53.7972 37.0091C53.7972 37.321 53.6673 37.6329 53.4594 37.8408C53.2515 38.0747 52.9396 38.1786 52.6277 38.1786H51.0164C49.6389 38.2306 48.3655 38.5165 47.2479 38.9843C44.5191 31.8633 33.4476 29.5762 27.652 35.034C26.2226 36.3854 25.4429 36.4374 24.5333 36.4374C23.6237 36.4374 22.818 36.4114 21.5445 34.982C18.2959 31.3695 12.0844 31.1355 6.47073 33.5785C1.29886 35.8136 0.0253906 40.8815 0.0253906 46.7811C0.0253906 46.7811 0.129346 58.5543 0.129346 60.6334C0.129346 63.8821 2.88421 63.8821 3.404 63.8821C3.92378 63.8821 6.52271 63.8821 6.52271 60.6334C6.52271 58.8142 6.62667 48.4704 6.62667 46.7811C6.62667 35.6317 21.4666 35.4498 21.3366 46.7811V60.6334C21.3366 63.8821 24.1175 63.8821 24.6373 63.8821C25.157 63.8821 27.8599 63.8821 27.8599 60.6334V46.7811C27.8079 44.598 28.5356 42.4929 29.9391 40.8296C32.4081 37.6849 38.2037 37.5029 40.4907 40.6996C42.0241 42.7788 42.3619 45.3777 42.232 47.8987V60.6334C42.232 63.8821 44.9609 63.8561 45.4027 63.8561C45.7925 63.8561 48.6773 63.8821 48.6773 60.6334C48.6773 58.6062 48.7553 49.2761 48.7553 47.5608C48.7553 43.9483 56.5781 44.8059 56.5781 44.8059C62.0618 44.8319 69.4948 46.0794 74.3288 41.4793C74.5627 41.2454 74.8745 41.1414 75.1864 41.1414C75.4983 41.1414 75.8102 41.2974 76.0181 41.5313C78.3311 44.3381 81.4498 44.9359 85.0624 44.8579C94.3145 44.676 103.567 44.754 112.819 44.8319C116.146 44.8579 119.342 44.728 121.707 42.233C121.915 42.0251 122.201 41.8951 122.487 41.8951C128.828 46.1833 135.871 46.1054 142.915 41.7652C148.684 46.2873 156.507 46.0014 163.68 41.7652C168.254 45.6636 173.712 46.5472 178.91 41.8432C179.352 41.4533 180.053 41.4793 180.469 41.8951C191.878 51.0434 204.561 38.6725 198.376 26.1976ZM64.4788 38.1786H61.2042C60.7364 38.1786 60.2686 37.8668 60.1126 37.425C59.9827 32.8768 59.6448 25.5219 66.0122 25.9117C68.7931 26.0417 70.5084 27.8089 70.8722 30.9276C71.4959 36.2295 69.7807 38.1786 64.4788 38.1786ZM116.847 36.9312C116.431 37.6069 115.678 38.0747 114.898 38.1267C109.882 38.2306 104.84 38.1786 99.8243 38.1786C99.1486 38.2046 98.6808 37.5549 98.6808 36.8792C98.6808 31.0836 104.632 26.4315 110.038 26.3795C115.21 26.3275 118.978 32.1231 116.847 36.9312ZM193.646 32.6169C194.139 40.0239 182.912 40.0239 183.25 32.7469C183.354 24.4563 193.542 24.3264 193.646 32.6169Z" fill="url(#paint0_linear_398_5230)"/>
<path d="M111.233 47.8724C110.921 47.5865 110.557 47.3526 110.142 47.1967C109.804 47.0667 109.44 47.0147 109.076 47.0147C109.05 47.0147 109.024 47.0147 108.998 47.0147H98.0565C97.6407 46.9888 97.2248 47.0667 96.835 47.1967C96.4192 47.3526 96.0553 47.5605 95.7434 47.8724C95.4316 48.1583 95.1977 48.5221 95.0158 48.912C94.8338 49.3018 94.7559 49.7176 94.7559 50.1595C94.7559 50.6013 94.8338 51.0171 95.0158 51.4069C95.1977 51.7968 95.4316 52.1606 95.7434 52.4465C96.0553 52.7324 96.4192 52.9663 96.835 53.1222C97.2248 53.2522 97.6407 53.3301 98.0565 53.3042H100.266V60.5292C100.24 60.945 100.318 61.3868 100.473 61.7767C100.629 62.1925 100.863 62.5563 101.149 62.8682C101.591 63.362 102.163 63.6999 102.813 63.8298C103.046 63.8818 103.28 63.9078 103.514 63.9078C103.93 63.9078 104.372 63.8298 104.762 63.6479C105.385 63.388 105.879 62.9462 106.243 62.3744C106.581 61.8287 106.763 61.1789 106.737 60.5292V53.3042H108.972C109.388 53.3301 109.804 53.2522 110.193 53.1222C110.609 52.9663 110.973 52.7584 111.285 52.4465C111.597 52.1606 111.831 51.7968 112.013 51.4069C112.195 51.0171 112.273 50.6013 112.273 50.1595C112.273 49.7176 112.195 49.3018 112.013 48.912C111.831 48.5221 111.545 48.1583 111.233 47.8724Z" fill="#273660"/>
<path d="M70.2229 50.1071C70.2229 49.6913 70.1709 49.2755 70.015 48.8596C69.859 48.4438 69.6251 48.0799 69.3132 47.7681C69.0014 47.4562 68.6375 47.2223 68.2477 47.0664C67.8578 46.9104 67.442 46.8324 67.0262 46.8324C66.6104 46.8065 66.1945 46.8844 65.8047 47.0404C65.3889 47.1963 65.025 47.4302 64.7131 47.7421C64.4013 48.0539 64.1674 48.4178 64.0114 48.8336C63.8555 49.2235 63.7775 49.6393 63.8035 50.0811V55.305C63.8035 55.331 63.8035 55.3829 63.8035 55.4089C63.8295 55.7208 63.8035 56.0327 63.6996 56.3445C63.6216 56.6044 63.4916 56.8383 63.3357 57.0463C62.8159 57.4101 62.1922 57.592 61.5424 57.592C60.8927 57.592 60.295 57.4101 59.7492 57.0463C59.5932 56.8383 59.4633 56.6044 59.3853 56.3445C59.2814 56.0327 59.2554 55.7208 59.2814 55.4089C59.2814 55.3829 59.2814 55.331 59.2814 55.305V50.1071C59.2814 49.6913 59.2294 49.2755 59.0735 48.8596C58.9175 48.4698 58.7096 48.1059 58.3977 47.7941C57.9559 47.3003 57.3842 46.9364 56.7344 46.8065C56.0587 46.6505 55.383 46.7025 54.7592 46.9624C54.1355 47.2223 53.6157 47.6641 53.2519 48.2619C52.914 48.8336 52.7581 49.4834 52.7841 50.1331V55.305C52.7321 56.4485 52.914 57.592 53.3298 58.6576C53.7457 59.7491 54.3694 60.7107 55.2011 61.5424C55.227 61.5684 55.253 61.5684 55.253 61.5944C56.9943 63.1277 59.2034 63.9074 61.5165 63.8035C61.6464 63.8035 61.7764 63.8035 61.9063 63.8035C64.0634 63.8035 66.1166 63.0238 67.7539 61.5944C67.7799 61.5684 67.8059 61.5684 67.8059 61.5424C68.6375 60.7107 69.2613 59.7491 69.6771 58.6576C70.0929 57.592 70.2749 56.4485 70.2229 55.305V50.1071Z" fill="#273660"/>
<path d="M89.7408 47.7947C89.4289 47.4828 89.065 47.2489 88.6752 47.0929C88.4153 46.989 88.1294 46.911 87.8435 46.885C87.7396 46.859 87.6096 46.833 87.5057 46.833C87.0639 46.8071 86.648 46.885 86.2322 47.041C85.8164 47.1969 85.4525 47.4308 85.1407 47.7427C84.8288 48.0545 84.5949 48.4184 84.4389 48.8342C84.283 49.2241 84.205 49.6399 84.231 50.0817V52.6547L80.2807 48.3664C79.9168 47.9506 79.501 47.5868 79.0332 47.3009C79.0072 47.3009 78.9812 47.2749 78.9812 47.2749C78.4354 46.963 77.8377 46.833 77.2139 46.833C76.7981 46.8071 76.3823 46.885 75.9924 47.041C75.5766 47.1969 75.2128 47.4308 74.9009 47.7427C74.589 48.0545 74.3551 48.4184 74.1992 48.8342C74.0432 49.2241 73.9653 49.6399 73.9913 50.0817V60.5554C73.9913 61.4131 74.3291 62.2447 74.9269 62.8425C75.5246 63.4402 76.3563 63.8041 77.2139 63.8041C78.0716 63.8041 78.9032 63.4662 79.501 62.8425C80.0987 62.2187 80.4366 61.4131 80.4366 60.5554V57.9825L84.335 62.2187C84.6988 62.6345 85.1147 62.9984 85.5825 63.2843C85.5825 63.2843 85.6085 63.2843 85.6085 63.3103C86.1542 63.6221 86.752 63.7781 87.3757 63.7781C87.7916 63.7781 88.2074 63.7261 88.6232 63.5702C89.0391 63.4142 89.4029 63.1803 89.7148 62.8684L89.7408 62.8425C90.0526 62.5306 90.2605 62.1667 90.4165 61.7769C90.5724 61.3871 90.6504 60.9712 90.6244 60.5294V50.1337C90.6244 49.7179 90.5724 49.302 90.4165 48.8862C90.2865 48.4704 90.0526 48.1065 89.7408 47.7947Z" fill="#273660"/>
<path d="M167.423 53.1217C167.839 52.9657 168.203 52.7578 168.515 52.446C168.827 52.1601 169.061 51.7962 169.243 51.4064C169.425 51.0166 169.502 50.6007 169.502 50.1589C169.502 49.7171 169.425 49.3012 169.243 48.9114C169.061 48.5216 168.827 48.1577 168.515 47.8718C168.203 47.586 167.839 47.3521 167.423 47.1961C167.034 47.0402 166.618 46.9882 166.202 47.0142H160.146C159.731 46.9882 159.315 47.0662 158.925 47.1961C158.509 47.3521 158.145 47.56 157.833 47.8718C157.521 48.1577 157.262 48.5216 157.106 48.9114C156.924 49.3012 156.846 49.7171 156.846 50.1589C156.846 50.6007 156.924 51.0166 157.106 51.4064C157.288 51.7962 157.521 52.1601 157.833 52.446C158.145 52.7318 158.509 52.9657 158.925 53.1217C159.237 53.2516 159.601 53.3036 159.938 53.3036V57.306C159.601 57.306 159.263 57.3839 158.925 57.4879C158.509 57.6438 158.145 57.8517 157.833 58.1636C157.521 58.4495 157.262 58.8133 157.106 59.2032C156.924 59.593 156.846 60.0088 156.846 60.4507C156.846 60.8925 156.924 61.3083 157.106 61.6981C157.288 62.088 157.521 62.4518 157.833 62.7377C158.145 63.0236 158.509 63.2575 158.925 63.4135C159.263 63.5434 159.627 63.5954 159.99 63.5954C160.042 63.5954 160.094 63.5954 160.146 63.5954H166.202C166.618 63.6214 167.034 63.5434 167.423 63.4135C167.839 63.2575 168.203 63.0496 168.515 62.7377C168.827 62.4518 169.061 62.088 169.243 61.6981C169.425 61.3083 169.502 60.8925 169.502 60.4507C169.502 60.0088 169.425 59.593 169.243 59.2032C169.061 58.8133 168.827 58.4495 168.515 58.1636C168.203 57.8777 167.839 57.6438 167.423 57.4879C167.085 57.3579 166.748 57.306 166.41 57.306V53.3036C166.748 53.3036 167.085 53.2516 167.423 53.1217Z" fill="#273660"/>
<path d="M194.036 49.4318C194.01 49.4058 193.984 49.3799 193.958 49.3539C193.256 48.6262 192.425 48.0544 191.489 47.6906C190.58 47.3267 189.592 47.1708 188.63 47.2227C187.149 47.1968 185.72 47.6386 184.55 48.5222C184.056 48.1064 183.484 47.7945 182.887 47.5606C182.133 47.2747 181.353 47.1448 180.548 47.1968C179.092 47.1708 177.689 47.4047 176.311 47.8985C176.285 47.8985 176.259 47.9245 176.259 47.9245C173.323 49.1979 172.543 52.4206 172.543 54.1099V60.5033C172.543 61.3869 172.881 62.1926 173.505 62.8163C174.102 63.4141 174.96 63.7779 175.818 63.7779C176.701 63.7779 177.507 63.4401 178.131 62.8163C178.754 62.1926 179.092 61.3869 179.092 60.5033V54.9936C179.092 54.9676 179.092 54.9676 179.092 54.9416C179.066 54.5517 179.222 54.1619 179.456 53.85C179.534 53.772 179.612 53.6941 179.716 53.6421C179.82 53.5901 179.924 53.5641 180.028 53.5901C180.054 53.5901 180.106 53.5901 180.132 53.5901C180.236 53.5901 180.314 53.6161 180.418 53.6421C180.496 53.6681 180.574 53.7461 180.626 53.798C180.86 54.1099 180.989 54.5257 180.963 54.9156C180.963 54.9416 180.963 54.9676 180.963 54.9676V60.4773C180.963 61.3609 181.301 62.1666 181.925 62.7903C182.549 63.4141 183.381 63.7519 184.238 63.7519C185.096 63.7519 185.953 63.3881 186.551 62.7903C187.175 62.1666 187.513 61.3349 187.513 60.4773V54.9676C187.513 54.9416 187.513 54.9416 187.513 54.9156C187.487 54.5257 187.617 54.1619 187.877 53.85C187.955 53.772 188.059 53.6941 188.163 53.6421C188.266 53.5901 188.396 53.5641 188.5 53.5901C188.552 53.5901 188.604 53.5901 188.656 53.5901C188.734 53.5901 188.812 53.5901 188.864 53.6161C188.916 53.6421 188.968 53.6681 189.02 53.7201C189.228 54.0579 189.332 54.4478 189.332 54.8376C189.332 54.8636 189.332 54.8896 189.332 54.8896V60.4513C189.332 61.3349 189.67 62.1406 190.294 62.7644C190.891 63.3881 191.749 63.7259 192.607 63.7259C193.49 63.7259 194.296 63.3881 194.92 62.7644C195.543 62.1406 195.881 61.309 195.881 60.4513V54.9156C195.959 52.9664 195.31 50.9912 194.036 49.4318Z" fill="#273660"/>
<path d="M152.271 58.1374C151.959 57.8515 151.595 57.6176 151.18 57.4617C150.764 57.3058 150.348 57.2538 149.906 57.2798C149.854 57.2798 149.802 57.2798 149.75 57.3058H147.125L151.829 52.7836C152.219 52.4458 152.505 52.0039 152.713 51.5361C152.921 51.0423 153.051 50.5485 153.051 50.0288C153.051 49.561 152.947 49.1191 152.765 48.7033C152.557 48.2875 152.245 47.9236 151.855 47.6377C151.206 47.1699 150.4 46.936 149.62 46.962H139.744C139.328 46.936 138.913 47.014 138.523 47.1439C138.107 47.2999 137.743 47.5078 137.431 47.8197C137.119 48.1056 136.885 48.4694 136.704 48.8592C136.522 49.2491 136.444 49.6649 136.444 50.1067C136.444 50.5485 136.522 50.9644 136.704 51.3542C136.885 51.744 137.119 52.1079 137.431 52.3938C137.743 52.6797 138.107 52.9136 138.523 53.0695C138.913 53.1994 139.328 53.2774 139.744 53.2514H142.187L137.483 57.7736C137.093 58.1374 136.807 58.5532 136.6 59.021C136.392 59.4889 136.262 60.0086 136.262 60.5544C136.262 60.9962 136.366 61.4381 136.574 61.8539C136.782 62.2437 137.067 62.6076 137.431 62.8675C137.431 62.8675 137.457 62.8675 137.457 62.8935C138.107 63.3353 138.913 63.5692 139.692 63.5432H149.932C149.984 63.5432 150.036 63.5432 150.088 63.5432C150.452 63.5432 150.816 63.4912 151.154 63.3613C151.569 63.2053 151.933 62.9974 152.245 62.6855C152.557 62.3997 152.817 62.0358 152.973 61.646C153.155 61.2561 153.233 60.8403 153.233 60.3985C153.233 59.9567 153.155 59.5408 152.973 59.151C152.843 58.7871 152.583 58.4493 152.271 58.1374Z" fill="#273660"/>
<path d="M132.701 58.7877L127.711 49.4056C127.347 48.6519 126.775 48.0022 126.125 47.5084C126.099 47.4824 126.073 47.4824 126.047 47.4564C125.398 47.0405 124.644 46.8066 123.864 46.8066C123.812 46.8066 123.786 46.8066 123.734 46.8066C122.955 46.8066 122.201 47.0146 121.525 47.4304C121.499 47.4564 121.473 47.4564 121.447 47.4824C120.746 47.9762 120.2 48.6519 119.81 49.4316L114.872 58.7617C114.534 59.3075 114.352 59.9312 114.326 60.581C114.326 60.607 114.326 60.6329 114.326 60.6589C114.326 61.0748 114.404 61.4646 114.586 61.8545C114.742 62.2443 114.976 62.5821 115.262 62.868C115.574 63.1539 115.912 63.3878 116.301 63.5438C116.691 63.6997 117.107 63.7776 117.523 63.7776C118.199 63.7776 118.874 63.5697 119.42 63.2059C119.966 62.842 120.408 62.3223 120.694 61.7245L121.213 60.7369H126.359L126.879 61.7245C127.139 62.3223 127.555 62.842 128.1 63.2059C128.672 63.5957 129.322 63.8036 129.998 63.8296C130.024 63.8296 130.024 63.8296 130.05 63.8296C130.466 63.8296 130.855 63.7517 131.219 63.5957C131.609 63.4398 131.947 63.2059 132.259 62.92C132.545 62.6341 132.779 62.2703 132.935 61.8804C133.09 61.4906 133.168 61.0748 133.168 60.6589C133.168 60.6329 133.168 60.6329 133.168 60.607C133.194 59.9572 133.012 59.3335 132.701 58.7877ZM125.112 56.5526H122.461C122.149 56.5526 121.967 56.2148 122.097 55.9549L123.422 53.4079C123.578 53.122 123.994 53.122 124.15 53.4079L125.476 55.9549C125.632 56.2408 125.424 56.5526 125.112 56.5526Z" fill="#273660"/>
<path d="M0 46.8072C0 46.8072 0.103956 58.5804 0.103956 60.6595C0.103956 63.9082 2.85882 63.9082 3.37861 63.9082C3.89839 63.9082 6.49732 63.9082 6.49732 60.6595C6.49732 58.8403 6.60128 48.4965 6.60128 46.8072V46.7812H0V46.8072Z" fill="#273660"/>
<path d="M21.2852 46.8065V60.6588C21.2852 63.9074 24.066 63.9074 24.5858 63.9074C25.1056 63.9074 27.8085 63.9074 27.8085 60.6588V46.8065C27.8085 46.7805 27.8085 46.7545 27.8085 46.7285H21.2852C21.2852 46.7545 21.2852 46.7805 21.2852 46.8065Z" fill="#273660"/>
<path d="M42.1797 47.8986V60.6334C42.1797 63.8821 44.9086 63.8561 45.3504 63.8561C45.7402 63.8561 48.625 63.8821 48.625 60.6334C48.625 58.6062 48.703 49.2761 48.703 47.5608C48.703 47.2489 48.755 46.963 48.8849 46.7031H42.2057C42.2057 47.119 42.2057 47.5088 42.1797 47.8986Z" fill="#273660"/>
<defs>
<linearGradient id="paint0_linear_398_5230" x1="92.9918" y1="10.867" x2="106.187" y2="77.1262" gradientUnits="userSpaceOnUse">
<stop stop-color="#D6A548"/>
<stop offset="1" stop-color="#FBD36E"/>
</linearGradient>
</defs>
</svg>
