<svg width="190" height="133" viewBox="0 0 190 133" fill="none" xmlns="http://www.w3.org/2000/svg">
<g clip-path="url(#clip0_405_7585)">
<path d="M170.963 123.427H158.377V123.522H170.963V123.427Z" fill="#EBEBEB"/>
<path d="M125.861 124.459H122.559V124.554H125.861V124.459Z" fill="#EBEBEB"/>
<path d="M157.995 119.902H150.703V119.997H157.995V119.902Z" fill="#EBEBEB"/>
<path d="M36.3458 120.539H19.9336V120.634H36.3458V120.539Z" fill="#EBEBEB"/>
<path d="M42.1359 120.539H39.7305V120.634H42.1359V120.539Z" fill="#EBEBEB"/>
<path d="M85.5593 122.142H49.9609V122.237H85.5593V122.142Z" fill="#EBEBEB"/>
<path d="M90.5927 100.364H17.2147C16.6393 100.364 16.0874 100.136 15.6804 99.7289C15.2735 99.322 15.0449 98.7701 15.0449 98.1946V-4.94881C15.0499 -5.52098 15.2807 -6.06801 15.6871 -6.47082C16.0935 -6.87364 16.6425 -7.09963 17.2147 -7.09961H90.5927C90.8777 -7.09961 91.1598 -7.04349 91.4231 -6.93444C91.6863 -6.8254 91.9255 -6.66557 92.127 -6.46409C92.3285 -6.26261 92.4883 -6.02341 92.5974 -5.76016C92.7064 -5.4969 92.7625 -5.21475 92.7625 -4.92981V98.1946C92.7625 98.4795 92.7064 98.7617 92.5974 99.0249C92.4883 99.2882 92.3285 99.5274 92.127 99.7289C91.9255 99.9304 91.6863 100.09 91.4231 100.199C91.1598 100.308 90.8777 100.364 90.5927 100.364ZM17.2147 -7.02361C16.6648 -7.0226 16.1376 -6.80369 15.7487 -6.41481C15.3598 -6.02592 15.1409 -5.49877 15.1399 -4.94881V98.1946C15.1409 98.7446 15.3598 99.2717 15.7487 99.6606C16.1376 100.049 16.6648 100.268 17.2147 100.269H90.5927C91.1427 100.268 91.6698 100.049 92.0587 99.6606C92.4476 99.2717 92.6665 98.7446 92.6675 98.1946V-4.94881C92.6665 -5.49877 92.4476 -6.02592 92.0587 -6.41481C91.6698 -6.80369 91.1427 -7.0226 90.5927 -7.02361H17.2147Z" fill="#EBEBEB"/>
<path d="M172.788 100.364H99.41C98.8346 100.364 98.2827 100.136 97.8757 99.7289C97.4688 99.322 97.2402 98.7701 97.2402 98.1946V-4.94881C97.2452 -5.52098 97.4761 -6.06801 97.8824 -6.47082C98.2888 -6.87364 98.8378 -7.09963 99.41 -7.09961H172.788C173.364 -7.09961 173.915 -6.87101 174.322 -6.46409C174.729 -6.05717 174.958 -5.50528 174.958 -4.92981V98.1946C174.958 98.7701 174.729 99.322 174.322 99.7289C173.915 100.136 173.364 100.364 172.788 100.364ZM99.41 -7.02361C98.8601 -7.0226 98.3329 -6.80369 97.944 -6.41481C97.5552 -6.02592 97.3362 -5.49877 97.3352 -4.94881V98.1946C97.3362 98.7446 97.5552 99.2717 97.944 99.6606C98.3329 100.049 98.8601 100.268 99.41 100.269H172.788C173.338 100.268 173.865 100.049 174.254 99.6606C174.643 99.2717 174.862 98.7446 174.863 98.1946V-4.94881C174.862 -5.49877 174.643 -6.02592 174.254 -6.41481C173.865 -6.80369 173.338 -7.0226 172.788 -7.02361H99.41Z" fill="#EBEBEB"/>
<path d="M190 117.313H0V117.408H190V117.313Z" fill="#EBEBEB"/>
<path d="M156.64 65.731H149.492V72.8788H156.64V65.731Z" fill="#F5F5F5"/>
<path d="M161.035 65.731H156.643V72.8788H161.035V65.731Z" fill="#EBEBEB"/>
<path d="M158.4 65.731V68.4366L158.514 68.3302L158.716 68.4594L158.891 68.3302L159.115 68.4594L159.354 68.3302L159.506 68.4594L159.681 68.3644V65.731H158.4Z" fill="#E0E0E0"/>
<path opacity="0.7" d="M158.4 65.731V68.4366L158.514 68.3302L158.716 68.4594L158.891 68.3302L159.115 68.4594L159.354 68.3302L159.506 68.4594L159.681 68.3644V65.731H158.4Z" fill="#E0E0E0"/>
<path d="M156.961 74.1963H147.609V83.5481H156.961V74.1963Z" fill="#F5F5F5"/>
<path d="M162.71 74.1982H156.965V83.55H162.71V74.1982Z" fill="#E6E6E6"/>
<path d="M155.176 76.8278H145.824L147.61 74.1982H156.962L155.176 76.8278Z" fill="#E6E6E6"/>
<path d="M158.66 76.8278H164.401L162.71 74.1982H156.965L158.66 76.8278Z" fill="#F5F5F5"/>
<path d="M38.5777 75.1696C41.4403 75.1696 43.7609 72.849 43.7609 69.9864C43.7609 67.1238 41.4403 64.8032 38.5777 64.8032C35.7151 64.8032 33.3945 67.1238 33.3945 69.9864C33.3945 72.849 35.7151 75.1696 38.5777 75.1696Z" fill="#E0E0E0"/>
<path d="M37.7711 75.1696C40.6337 75.1696 42.9543 72.849 42.9543 69.9864C42.9543 67.1238 40.6337 64.8032 37.7711 64.8032C34.9085 64.8032 32.5879 67.1238 32.5879 69.9864C32.5879 72.849 34.9085 75.1696 37.7711 75.1696Z" fill="#EBEBEB"/>
<path opacity="0.2" d="M40.5908 72.806C42.1475 71.2493 42.1475 68.7253 40.5908 67.1686C39.0341 65.6119 36.5101 65.6119 34.9534 67.1686C33.3967 68.7253 33.3967 71.2493 34.9534 72.806C36.5101 74.3627 39.0341 74.3627 40.5908 72.806Z" fill="white"/>
<path d="M34.395 69.9882C34.3951 68.9844 34.7746 68.0177 35.4575 67.2819C36.1404 66.5462 37.0762 66.0958 38.0772 66.021C37.9746 66.021 37.8758 66.021 37.7732 66.021C36.715 66.021 35.7001 66.4414 34.9518 67.1896C34.2036 67.9379 33.7832 68.9528 33.7832 70.011C33.7832 71.0692 34.2036 72.0841 34.9518 72.8324C35.7001 73.5806 36.715 74.001 37.7732 74.001C37.8758 74.001 37.9746 74.001 38.0772 74.001C37.0686 73.9248 36.1268 73.4677 35.4429 72.7224C34.7591 71.9772 34.3844 70.9996 34.395 69.9882Z" fill="#E0E0E0"/>
<path d="M39.2415 71.432C38.9553 71.6828 38.5951 71.8335 38.2155 71.8614V72.5226H37.6189V71.8766C37.3347 71.8634 37.0536 71.8123 36.7829 71.7246C36.554 71.6541 36.3383 71.5462 36.1445 71.4054L36.4713 70.6796C36.6336 70.7972 36.8113 70.8919 36.9995 70.9608C37.1991 71.034 37.4073 71.0812 37.6189 71.1014V70.1134C37.3761 70.0572 37.1385 69.981 36.9083 69.8854C36.7188 69.8071 36.5517 69.6831 36.4219 69.5244C36.285 69.3406 36.2164 69.1148 36.2281 68.886C36.2261 68.7283 36.2568 68.5719 36.3183 68.4267C36.3797 68.2815 36.4707 68.1506 36.5853 68.0424C36.8713 67.7863 37.2357 67.6349 37.6189 67.613V66.9556H38.2117V67.6016C38.6367 67.6216 39.0503 67.7456 39.4163 67.9626L39.1199 68.6922C38.8419 68.5276 38.5326 68.4228 38.2117 68.3844V69.3914C38.4519 69.4412 38.6872 69.5124 38.9147 69.6042C39.1016 69.6851 39.2669 69.8088 39.3973 69.9652C39.5332 70.148 39.6016 70.3722 39.5911 70.5998C39.5926 70.755 39.5623 70.9088 39.5022 71.0519C39.4421 71.195 39.3534 71.3244 39.2415 71.432ZM37.2997 69.0798C37.3954 69.1553 37.5052 69.2108 37.6227 69.2432V68.3996C37.4982 68.4231 37.3833 68.4825 37.2921 68.5706C37.2224 68.6429 37.1841 68.7399 37.1857 68.8404C37.1845 68.8864 37.1942 68.9321 37.2141 68.9737C37.2339 69.0153 37.2632 69.0517 37.2997 69.0798ZM38.5347 70.9228C38.5694 70.8902 38.5967 70.8507 38.6151 70.8068C38.6334 70.7629 38.6423 70.7157 38.6411 70.6682C38.6427 70.6223 38.6339 70.5766 38.6155 70.5345C38.5971 70.4924 38.5695 70.455 38.5347 70.425C38.4391 70.3516 38.3309 70.2963 38.2155 70.2616V71.0786C38.3352 71.06 38.4465 71.0057 38.5347 70.9228Z" fill="#E0E0E0"/>
<path d="M106.289 28.4118C109.151 28.4118 111.472 26.0912 111.472 23.2286C111.472 20.366 109.151 18.0454 106.289 18.0454C103.426 18.0454 101.105 20.366 101.105 23.2286C101.105 26.0912 103.426 28.4118 106.289 28.4118Z" fill="#E0E0E0"/>
<path d="M105.478 28.4118C108.341 28.4118 110.661 26.0912 110.661 23.2286C110.661 20.366 108.341 18.0454 105.478 18.0454C102.616 18.0454 100.295 20.366 100.295 23.2286C100.295 26.0912 102.616 28.4118 105.478 28.4118Z" fill="#EBEBEB"/>
<path opacity="0.2" d="M108.3 26.0506C109.856 24.4939 109.856 21.97 108.3 20.4133C106.743 18.8566 104.219 18.8566 102.662 20.4133C101.106 21.97 101.106 24.4939 102.662 26.0506C104.219 27.6073 106.743 27.6073 108.3 26.0506Z" fill="white"/>
<path d="M102.104 23.2298C102.105 22.2258 102.485 21.2592 103.167 20.523C103.85 19.7868 104.785 19.3354 105.786 19.2588C105.687 19.2588 105.585 19.2588 105.482 19.2588C104.424 19.2588 103.409 19.6792 102.661 20.4274C101.913 21.1757 101.492 22.1906 101.492 23.2488C101.492 24.307 101.913 25.3219 102.661 26.0701C103.409 26.8184 104.424 27.2388 105.482 27.2388C105.585 27.2388 105.687 27.2388 105.786 27.2388C104.778 27.1635 103.836 26.7072 103.152 25.9626C102.468 25.2179 102.093 24.2408 102.104 23.2298Z" fill="#E0E0E0"/>
<path d="M106.949 24.6674C106.664 24.9211 106.303 25.0723 105.923 25.0968V25.7618H105.334V25.1158C105.049 25.1017 104.768 25.0493 104.498 24.96C104.267 24.8902 104.05 24.7823 103.855 24.6408L104.182 23.9188C104.345 24.0344 104.523 24.1277 104.71 24.1962C104.911 24.271 105.121 24.3196 105.334 24.3406V23.3488C105.089 23.2955 104.85 23.2204 104.619 23.1246C104.43 23.0392 104.264 22.9087 104.137 22.7446C103.997 22.5633 103.927 22.3383 103.939 22.11C103.939 21.95 103.973 21.7918 104.039 21.6458C104.104 21.4998 104.2 21.3693 104.319 21.2626C104.606 21.0081 104.97 20.8569 105.353 20.8332V20.1758H105.942V20.8218C106.366 20.8431 106.78 20.9669 107.146 21.1828L106.85 21.9124C106.572 21.7478 106.262 21.643 105.942 21.6046V22.6116C106.182 22.6643 106.417 22.7367 106.645 22.8282C106.834 22.9055 107 23.0298 107.127 23.1892C107.265 23.3698 107.335 23.5931 107.325 23.82C107.325 23.9797 107.292 24.1377 107.227 24.2837C107.162 24.4296 107.067 24.5604 106.949 24.6674ZM105.007 22.319C105.103 22.3945 105.215 22.4489 105.334 22.4786V21.6388C105.208 21.6603 105.092 21.7185 104.999 21.806C104.93 21.8783 104.891 21.9753 104.893 22.0758C104.892 22.1223 104.902 22.1685 104.922 22.2107C104.941 22.2528 104.971 22.2899 105.007 22.319ZM106.246 24.162C106.312 24.0934 106.35 24.0026 106.352 23.9074C106.353 23.8612 106.343 23.8154 106.324 23.7734C106.305 23.7313 106.277 23.694 106.242 23.6642C106.147 23.5887 106.039 23.5319 105.923 23.497V24.314C106.042 24.2941 106.154 24.2415 106.246 24.162Z" fill="#E0E0E0"/>
<path d="M69.8801 79.4839C71.939 79.4839 73.6079 77.8149 73.6079 75.7561C73.6079 73.6973 71.939 72.0283 69.8801 72.0283C67.8213 72.0283 66.1523 73.6973 66.1523 75.7561C66.1523 77.8149 67.8213 79.4839 69.8801 79.4839Z" fill="#E0E0E0"/>
<path d="M69.3001 79.4839C71.3589 79.4839 73.0279 77.8149 73.0279 75.7561C73.0279 73.6973 71.3589 72.0283 69.3001 72.0283C67.2413 72.0283 65.5723 73.6973 65.5723 75.7561C65.5723 77.8149 67.2413 79.4839 69.3001 79.4839Z" fill="#F5F5F5"/>
<path opacity="0.2" d="M69.3027 78.621C70.8851 78.621 72.1679 77.3382 72.1679 75.7558C72.1679 74.1734 70.8851 72.8906 69.3027 72.8906C67.7203 72.8906 66.4375 74.1734 66.4375 75.7558C66.4375 77.3382 67.7203 78.621 69.3027 78.621Z" fill="white"/>
<path d="M66.8797 75.7419C66.8806 75.0178 67.1553 74.3209 67.6487 73.7909C68.142 73.2609 68.8175 72.937 69.5397 72.8843C69.4675 72.8843 69.3953 72.8843 69.3193 72.8843C68.577 72.9113 67.874 73.2252 67.3584 73.7599C66.8428 74.2947 66.5547 75.0085 66.5547 75.7514C66.5547 76.4942 66.8428 77.2081 67.3584 77.7428C67.874 78.2775 68.577 78.5914 69.3193 78.6185C69.3927 78.6224 69.4663 78.6224 69.5397 78.6185C68.8139 78.5664 68.1352 78.2401 67.6412 77.7059C67.1472 77.1716 66.8749 76.4695 66.8797 75.7419Z" fill="#E0E0E0"/>
<path d="M70.3616 76.7942C70.1539 76.9735 69.8942 77.0814 69.6206 77.102V77.5808H69.195V77.1134C68.9907 77.1042 68.7887 77.0672 68.5946 77.0032C68.4298 76.9529 68.2745 76.8758 68.1348 76.7752L68.3704 76.2546C68.4871 76.339 68.615 76.4067 68.7504 76.456C68.8932 76.5095 69.0429 76.5427 69.195 76.5548V75.8442C69.0208 75.8045 68.8505 75.7498 68.6858 75.6808C68.5488 75.6264 68.4284 75.5373 68.3362 75.4224C68.237 75.2902 68.1873 75.1276 68.1956 74.9626C68.1939 74.8488 68.2161 74.736 68.2606 74.6313C68.3051 74.5266 68.3709 74.4323 68.454 74.3546C68.6649 74.1684 68.933 74.0598 69.214 74.0468V73.5718H69.6396V74.0392C69.9452 74.053 70.2427 74.1417 70.506 74.2976L70.2932 74.822C70.0933 74.7033 69.8705 74.6282 69.6396 74.6016V75.3236C69.8122 75.361 69.9812 75.4131 70.145 75.4794C70.2816 75.5362 70.4018 75.6263 70.4946 75.7416C70.592 75.8717 70.6417 76.0314 70.6352 76.1938C70.6334 76.3073 70.6081 76.4192 70.561 76.5225C70.514 76.6258 70.446 76.7183 70.3616 76.7942ZM68.9632 75.1032C69.0317 75.1569 69.1106 75.1957 69.195 75.2172V74.6016C69.1059 74.6172 69.0237 74.6596 68.9594 74.7232C68.9084 74.7749 68.8798 74.8444 68.8796 74.917C68.8764 74.9526 68.8825 74.9884 68.8971 75.021C68.9117 75.0536 68.9345 75.0819 68.9632 75.1032ZM69.8524 76.4294C69.9011 76.3796 69.9284 76.3128 69.9284 76.2432C69.9288 76.2105 69.9219 76.1781 69.9081 76.1485C69.8942 76.1189 69.8739 76.0928 69.8486 76.0722C69.7818 76.0163 69.7041 75.9749 69.6206 75.9506V76.5396C69.7065 76.525 69.7868 76.4868 69.8524 76.4294Z" fill="#E0E0E0"/>
<path d="M82.3122 10.3781C83.768 8.92234 83.768 6.56203 82.3122 5.10623C80.8564 3.65043 78.496 3.65044 77.0402 5.10624C75.5845 6.56203 75.5845 8.92234 77.0402 10.3781C78.496 11.8339 80.8564 11.8339 82.3122 10.3781Z" fill="#E0E0E0"/>
<path d="M81.7321 10.382C83.1879 8.92625 83.1879 6.56593 81.7321 5.11014C80.2763 3.65434 77.916 3.65435 76.4602 5.11014C75.0044 6.56594 75.0044 8.92625 76.4602 10.382C77.916 11.8378 80.2763 11.8378 81.7321 10.382Z" fill="#F5F5F5"/>
<path opacity="0.2" d="M79.0996 10.6064C80.682 10.6064 81.9648 9.32358 81.9648 7.74118C81.9648 6.15877 80.682 4.87598 79.0996 4.87598C77.5172 4.87598 76.2344 6.15877 76.2344 7.74118C76.2344 9.32358 77.5172 10.6064 79.0996 10.6064Z" fill="white"/>
<path d="M76.663 7.74336C76.664 7.01968 76.9389 6.32319 77.4323 5.79381C77.9257 5.26444 78.6012 4.94139 79.323 4.88956C79.2509 4.88577 79.1785 4.88577 79.1064 4.88956C78.3641 4.91659 77.6611 5.23049 77.1455 5.76522C76.6299 6.29995 76.3418 7.01383 76.3418 7.75666C76.3418 8.49949 76.6299 9.21336 77.1455 9.74809C77.6611 10.2828 78.3641 10.5967 79.1064 10.6238C79.1786 10.6238 79.2508 10.6238 79.323 10.6238C78.5972 10.5699 77.919 10.2425 77.4252 9.70787C76.9315 9.17322 76.6591 8.4711 76.663 7.74336Z" fill="#E0E0E0"/>
<path d="M80.1527 8.77964C79.9483 8.96182 79.6887 9.0702 79.4155 9.08743V9.56624H78.9899V9.10263C78.7859 9.09163 78.5841 9.0546 78.3895 8.99243C78.2245 8.94095 78.0692 8.86263 77.9297 8.76063L78.1653 8.24004C78.2814 8.32543 78.4094 8.39329 78.5453 8.44144C78.69 8.49396 78.8406 8.52842 78.9937 8.54403V7.82964C78.8193 7.79281 78.6487 7.73937 78.4845 7.67004C78.3481 7.6128 78.228 7.52273 78.1349 7.40784C78.0351 7.27601 77.9853 7.1131 77.9943 6.94804C77.9925 6.83517 78.0142 6.72316 78.058 6.61914C78.1018 6.51512 78.1668 6.42136 78.2489 6.34383C78.4592 6.1563 78.7274 6.04635 79.0089 6.03223V5.56104H79.4193V6.02464C79.7249 6.03844 80.0224 6.12717 80.2857 6.28304L80.0729 6.80743C79.8728 6.68767 79.6504 6.61008 79.4193 6.57944V7.30524C79.5923 7.34091 79.7616 7.39308 79.9247 7.46104C80.0605 7.51746 80.1805 7.60616 80.2743 7.71944C80.3718 7.84952 80.4214 8.00922 80.4149 8.17164C80.4165 8.28574 80.394 8.39889 80.3488 8.50367C80.3036 8.60846 80.2368 8.7025 80.1527 8.77964ZM78.7543 7.08863C78.8254 7.14131 78.9051 7.18118 78.9899 7.20644V6.59844C78.9006 6.61664 78.8179 6.65866 78.7505 6.72004C78.7019 6.77294 78.6748 6.84203 78.6745 6.91383C78.6734 6.94715 78.6801 6.98025 78.6939 7.01057C78.7078 7.04089 78.7284 7.0676 78.7543 7.08863ZM79.6473 8.41484C79.6716 8.39116 79.6909 8.36279 79.704 8.33144C79.7171 8.30008 79.7236 8.2664 79.7233 8.23243C79.7243 8.19912 79.7177 8.16602 79.7038 8.1357C79.69 8.10538 79.6693 8.07867 79.6435 8.05764C79.5762 8.00334 79.4987 7.96326 79.4155 7.93984V8.52504C79.5017 8.51125 79.5822 8.47301 79.6473 8.41484Z" fill="#E0E0E0"/>
<path d="M46.8859 93.7022L41.6875 92.0796L47.4901 92.3874C46.2171 90.172 45.6509 89.0814 44.6401 86.961C46.0917 88.614 46.8479 89.4538 48.4401 91.141C48.8508 88.6806 49.4543 86.2564 50.2451 83.8906C49.8625 85.9961 49.697 88.1353 49.7511 90.2746L49.8575 90.2974C51.5798 88.3466 53.4471 86.5289 55.4435 84.8596C53.5361 86.9038 51.8403 89.1356 50.3819 91.521C52.5428 90.7053 54.7202 89.9288 56.9141 89.1916C54.7177 90.3924 52.5707 91.6312 50.4275 92.9308L55.8007 94.6446L50.2451 94.3064C51.4155 95.6782 52.0235 96.3698 53.2851 97.7568C51.7233 96.727 50.9519 96.214 49.4281 95.188C49.5958 96.6169 49.8496 98.0343 50.1881 99.4326C49.4281 97.6998 49.0937 96.8372 48.5085 95.1386C47.4179 100.356 47.7029 105.399 48.7555 110.601L47.4483 110.365C46.6791 105.27 46.8867 100.076 48.0601 95.0588C46.7453 96.4154 46.1297 97.1032 44.9897 98.4788C45.6495 97.1988 46.3868 95.9602 47.1975 94.77C45.3241 95.1804 44.4007 95.3894 42.5653 95.8074C44.2487 94.9638 45.1113 94.5382 46.8859 93.7022Z" fill="#EBEBEB"/>
<path d="M45.0426 95.5004L49.8458 92.9544L44.2028 94.3604C45.0388 91.9474 45.396 90.7694 45.9888 88.497C44.8716 90.397 44.2864 91.3584 43.0438 93.3268C42.1765 90.9792 41.1257 88.7036 39.9012 86.521C40.6704 88.5179 41.2332 90.5883 41.5808 92.6998L41.4782 92.7378C39.4199 91.1351 37.244 89.6895 34.9688 88.4134C37.2219 90.068 39.3033 91.9445 41.1818 94.0146C38.9018 93.6169 36.6218 93.2609 34.3418 92.9468C36.7244 93.7068 39.0652 94.5314 41.4136 95.4092L36.4508 98.0958L41.8468 96.7278C40.9538 98.2934 40.4864 99.0838 39.506 100.684C40.8512 99.3802 41.5124 98.7304 42.8158 97.4422C42.9187 98.8763 42.934 100.315 42.8614 101.751C43.2832 99.9084 43.4504 99.0002 43.7088 97.218C45.7532 102.158 46.422 107.163 46.3688 112.456L47.6076 111.981C47.4113 106.831 46.2378 101.766 44.1496 97.0546C45.6962 98.1452 46.4296 98.7076 47.809 99.859C46.9211 98.7257 45.9655 97.6471 44.9476 96.629C46.8476 96.6822 47.8128 96.7126 49.69 96.781C47.8812 96.2604 46.9388 95.9982 45.0426 95.5004Z" fill="#F0F0F0"/>
<path d="M49.7381 98.3606L46.2383 96.5062L50.3499 97.5132C49.7381 95.7576 49.4797 94.8988 49.0465 93.242C49.8597 94.6214 50.2891 95.3244 51.1935 96.7608C51.823 95.057 52.5853 93.4052 53.4735 91.8208C52.9133 93.2762 52.5033 94.785 52.2499 96.3238L52.3259 96.3542C53.8261 95.1846 55.4127 94.1302 57.0721 93.2002C55.4279 94.4065 53.9091 95.7751 52.5387 97.2852C54.2005 96.9939 55.8662 96.7342 57.5357 96.5062C55.7991 97.0686 54.0929 97.6462 52.3829 98.2998L55.9967 100.257L52.0599 99.2536C52.7097 100.394 53.0517 100.971 53.7661 102.138C52.7895 101.188 52.3069 100.713 51.3531 99.7742C51.2781 100.82 51.268 101.87 51.3227 102.917C51.0149 101.572 50.8895 100.91 50.7033 99.6108C49.2137 103.202 48.7273 106.861 48.7767 110.718L47.8723 110.372C48.013 106.618 48.8694 102.926 50.3955 99.493C49.2555 100.287 48.7311 100.698 47.7355 101.537C48.3828 100.711 49.0795 99.924 49.8217 99.1814C48.4271 99.2232 47.7355 99.246 46.3637 99.2954C47.6785 98.9192 48.3549 98.7216 49.7381 98.3606Z" fill="#F5F5F5"/>
<path d="M51.3366 117.306H42.8968L42.0684 103.857H52.165L51.3366 117.306Z" fill="#EBEBEB"/>
<path d="M52.8215 104.549H41.3341L41.1289 102.759H53.0267L52.8215 104.549Z" fill="#F5F5F5"/>
<path d="M142.226 117.267H157.98V88.6341H142.226V117.267Z" fill="#F0F0F0"/>
<path d="M137.767 117.267H142.225V88.6341H137.767V117.267Z" fill="#E6E6E6"/>
<path d="M143.743 98.4917H156.344V90.9411H143.743V98.4917Z" fill="#FAFAFA"/>
<path d="M143.743 106.865H156.344V99.3146H143.743V106.865Z" fill="#FAFAFA"/>
<path d="M143.743 115.237H156.344V107.686H143.743V115.237Z" fill="#FAFAFA"/>
<path d="M149.404 92.6191C149.404 92.7852 149.454 92.9476 149.546 93.0857C149.638 93.2238 149.769 93.3314 149.923 93.395C150.076 93.4585 150.245 93.4752 150.408 93.4428C150.571 93.4104 150.72 93.3304 150.838 93.2129C150.955 93.0955 151.035 92.9458 151.068 92.7829C151.1 92.62 151.084 92.4512 151.02 92.2977C150.956 92.1443 150.849 92.0131 150.711 91.9208C150.573 91.8286 150.41 91.7793 150.244 91.7793C150.021 91.7793 149.808 91.8678 149.65 92.0253C149.493 92.1828 149.404 92.3964 149.404 92.6191Z" fill="#E0E0E0"/>
<path d="M149.844 92.6191C149.844 92.7852 149.893 92.9476 149.985 93.0857C150.078 93.2238 150.209 93.3314 150.362 93.395C150.516 93.4585 150.684 93.4752 150.847 93.4428C151.01 93.4104 151.16 93.3304 151.277 93.2129C151.395 93.0955 151.475 92.9458 151.507 92.7829C151.54 92.62 151.523 92.4512 151.459 92.2977C151.396 92.1443 151.288 92.0131 151.15 91.9208C151.012 91.8286 150.85 91.7793 150.684 91.7793C150.461 91.7793 150.247 91.8678 150.09 92.0253C149.932 92.1828 149.844 92.3964 149.844 92.6191Z" fill="#F0F0F0"/>
<path d="M149.404 100.964C149.404 101.13 149.454 101.293 149.546 101.431C149.638 101.569 149.769 101.677 149.923 101.74C150.076 101.804 150.245 101.82 150.408 101.788C150.571 101.756 150.72 101.676 150.838 101.558C150.955 101.441 151.035 101.291 151.068 101.128C151.1 100.965 151.084 100.796 151.02 100.643C150.956 100.489 150.849 100.358 150.711 100.266C150.573 100.174 150.41 100.125 150.244 100.125C150.021 100.125 149.808 100.213 149.65 100.37C149.493 100.528 149.404 100.742 149.404 100.964Z" fill="#E0E0E0"/>
<path d="M149.844 100.964C149.844 101.13 149.893 101.293 149.985 101.431C150.078 101.569 150.209 101.677 150.362 101.74C150.516 101.804 150.684 101.82 150.847 101.788C151.01 101.756 151.16 101.676 151.277 101.558C151.395 101.441 151.475 101.291 151.507 101.128C151.54 100.965 151.523 100.796 151.459 100.643C151.396 100.489 151.288 100.358 151.15 100.266C151.012 100.174 150.85 100.125 150.684 100.125C150.461 100.125 150.247 100.213 150.09 100.37C149.932 100.528 149.844 100.742 149.844 100.964Z" fill="#F0F0F0"/>
<path d="M149.404 109.305C149.404 109.471 149.454 109.634 149.546 109.772C149.638 109.91 149.769 110.017 149.923 110.081C150.076 110.145 150.245 110.161 150.408 110.129C150.571 110.096 150.72 110.016 150.838 109.899C150.955 109.782 151.035 109.632 151.068 109.469C151.1 109.306 151.084 109.137 151.02 108.984C150.956 108.83 150.849 108.699 150.711 108.607C150.573 108.515 150.41 108.465 150.244 108.465C150.021 108.465 149.808 108.554 149.65 108.711C149.493 108.869 149.404 109.082 149.404 109.305Z" fill="#E0E0E0"/>
<path d="M149.844 109.305C149.844 109.471 149.893 109.634 149.985 109.772C150.078 109.91 150.209 110.017 150.362 110.081C150.516 110.145 150.684 110.161 150.847 110.129C151.01 110.096 151.16 110.016 151.277 109.899C151.395 109.782 151.475 109.632 151.507 109.469C151.54 109.306 151.523 109.137 151.459 108.984C151.396 108.83 151.288 108.699 151.15 108.607C151.012 108.515 150.85 108.465 150.684 108.465C150.461 108.465 150.247 108.554 150.09 108.711C149.932 108.869 149.844 109.082 149.844 109.305Z" fill="#F0F0F0"/>
<path d="M60.5038 15.9917C59.4246 16.4325 55.8412 15.9005 55.8412 15.9005L55.4612 16.0639C54.4071 16.512 53.2659 16.7179 52.1216 16.6666C50.9773 16.6153 49.8591 16.3081 48.8492 15.7675C48.8492 15.7675 45.9042 15.8853 44.9504 15.6915C43.495 15.3989 41.3252 14.2475 41.8686 10.6147C42.412 6.98192 47.8612 10.1245 47.8612 10.1245C47.8612 10.1245 46.288 5.01352 51.5966 6.55632C53.0937 6.96974 54.4358 7.81527 55.455 8.98722C56.4742 10.1592 57.1253 11.6055 57.327 13.1455C57.327 13.1455 65.5958 13.9055 60.5038 15.9917Z" fill="#F5F5F5"/>
<path d="M46.0662 20.7209C45.3062 21.0249 42.84 20.6601 42.84 20.6601L42.574 20.7741C41.8464 21.0815 41.0593 21.2222 40.2703 21.186C39.4813 21.1499 38.7104 20.9377 38.014 20.5651C37.1145 20.6115 36.2129 20.5937 35.316 20.5119C34.309 20.3105 32.808 19.5125 33.1842 17.0007C33.5604 14.4889 37.33 16.6625 37.33 16.6625C37.33 16.6625 36.2432 13.1247 39.914 14.1925C40.9505 14.478 41.8798 15.063 42.5855 15.8741C43.2911 16.6852 43.7419 17.6865 43.8812 18.7525C43.8812 18.7525 49.5926 19.2769 46.0662 20.7209Z" fill="#F0F0F0"/>
<path d="M100.804 31.0254C99.7245 31.4662 96.1411 30.938 96.1411 30.938L95.7611 31.1014C94.7066 31.5488 93.5652 31.7541 92.421 31.7022C91.2767 31.6502 90.1586 31.3423 89.1491 30.8012C89.1491 30.8012 86.2041 30.919 85.2503 30.7252C83.7949 30.4326 81.6289 29.2812 82.1685 25.6522C82.7081 22.0232 88.1611 25.1582 88.1611 25.1582C88.1611 25.1582 86.5879 20.0472 91.8965 21.5938C93.3935 22.006 94.7357 22.8507 95.755 24.0221C96.7743 25.1935 97.4254 26.6395 97.6269 28.1792C97.6269 28.1792 105.896 28.9392 100.804 31.0254Z" fill="#F5F5F5"/>
<path d="M147.262 15.9641C147.101 14.7402 146.582 13.591 145.771 12.6603C144.96 11.7296 143.892 11.0587 142.702 10.7315C140.631 10.1273 139.879 10.8037 139.662 11.6435C138.315 9.99148 136.483 8.80338 134.426 8.24628C127.521 6.23988 129.581 12.8823 129.581 12.8823C129.581 12.8823 122.494 8.80108 121.791 13.5245C121.088 18.2479 123.881 19.7413 125.781 20.1213C127.023 20.3721 130.85 20.2201 130.85 20.2201C132.163 20.9227 133.617 21.3216 135.104 21.3874C136.592 21.4532 138.076 21.1841 139.445 20.6001L139.951 20.3873C139.951 20.3873 144.61 21.0789 146.012 20.5051C148.231 19.5931 148.497 18.8787 147.87 18.3315C148.511 18.409 149.161 18.3704 149.789 18.2175C153.836 16.5683 147.262 15.9641 147.262 15.9641Z" fill="#F5F5F5"/>
<path d="M93.1684 133.012C133.86 133.012 166.847 131.086 166.847 128.711C166.847 126.335 133.86 124.409 93.1684 124.409C52.4771 124.409 19.4902 126.335 19.4902 128.711C19.4902 131.086 52.4771 133.012 93.1684 133.012Z" fill="#F5F5F5"/>
<path d="M128.256 28.24C124.318 23.5622 119.437 19.7679 113.933 17.1049C108.429 14.442 102.424 12.9702 96.3126 12.7859C90.2008 12.6015 84.1188 13.7088 78.464 16.0352C72.8092 18.3616 67.7089 21.8549 63.4962 26.2868C63.3935 26.3965 63.2517 26.4613 63.1015 26.467C62.9514 26.4727 62.805 26.4188 62.6944 26.3172C62.6391 26.2656 62.5945 26.2037 62.5632 26.1349C62.5319 26.066 62.5145 25.9917 62.512 25.9161C62.5096 25.8405 62.522 25.7652 62.5488 25.6945C62.5755 25.6238 62.6159 25.559 62.6678 25.504C66.9906 20.9555 72.2244 17.3701 78.0273 14.9822C83.8302 12.5943 90.0716 11.4575 96.3437 11.6461C102.616 11.8348 108.778 13.3446 114.427 16.0769C120.075 18.8093 125.084 22.7027 129.126 27.5028L128.256 28.24Z" fill="#EAAA15"/>
<path d="M129.26 28.3121H125.711C125.559 28.3121 125.414 28.252 125.308 28.1451C125.201 28.0382 125.141 27.8932 125.141 27.7421C125.141 27.5909 125.201 27.4459 125.308 27.339C125.414 27.2321 125.559 27.1721 125.711 27.1721H128.12V24.7629C128.12 24.6117 128.18 24.4667 128.287 24.3598C128.394 24.2529 128.539 24.1929 128.69 24.1929C128.841 24.1939 128.985 24.2542 129.092 24.3609C129.198 24.4676 129.259 24.612 129.26 24.7629V28.3121Z" fill="#FFAD32"/>
<path d="M120.082 93.1154L119.439 92.173C124.445 88.7682 128.685 84.3555 131.887 79.2174C135.088 74.0794 137.182 68.3293 138.033 62.3354C138.054 62.187 138.132 62.0526 138.25 61.961C138.369 61.8694 138.519 61.8278 138.667 61.8452C138.819 61.865 138.957 61.9442 139.05 62.0653C139.143 62.1864 139.185 62.3395 139.165 62.4912C138.292 68.643 136.143 74.5446 132.857 79.818C129.57 85.0915 125.219 89.6206 120.082 93.1154Z" fill="#EAAA15"/>
<path d="M122.124 94.0601L118.67 93.2621L119.468 89.8041C119.485 89.7314 119.515 89.6627 119.558 89.6019C119.602 89.5412 119.656 89.4895 119.72 89.45C119.783 89.4104 119.853 89.3838 119.927 89.3715C120 89.3592 120.076 89.3616 120.148 89.3785C120.221 89.3951 120.29 89.4259 120.352 89.4693C120.413 89.5127 120.465 89.5678 120.505 89.6313C120.545 89.6949 120.572 89.7656 120.584 89.8396C120.597 89.9136 120.594 89.9894 120.578 90.0625L120.034 92.4071L122.383 92.9467C122.53 92.981 122.657 93.0723 122.737 93.2006C122.817 93.3288 122.842 93.4835 122.808 93.6307C122.774 93.7779 122.683 93.9057 122.554 93.9861C122.426 94.0665 122.272 94.0931 122.124 94.0601Z" fill="#FFAD32"/>
<path d="M61.9919 86.2347C56.2401 79.9289 52.4285 72.0985 51.0137 63.6817L52.1347 63.4917C53.5131 71.6938 57.2286 79.324 62.8355 85.4671C62.9362 85.5782 62.9894 85.7243 62.9837 85.8742C62.978 86.024 62.9139 86.1657 62.8051 86.2689C62.7495 86.3203 62.6844 86.3601 62.6134 86.3862C62.5424 86.4123 62.4669 86.4241 62.3914 86.4209C62.3158 86.4178 62.2416 86.3997 62.173 86.3677C62.1045 86.3357 62.0429 86.2905 61.9919 86.2347Z" fill="#EAAA15"/>
<path d="M49.3516 65.6089C49.2291 65.5198 49.1468 65.386 49.1226 65.2365C49.0984 65.087 49.1343 64.934 49.2224 64.8109L51.3086 61.9419L54.1776 64.0281C54.2382 64.0718 54.2896 64.1271 54.3288 64.1908C54.3679 64.2544 54.3941 64.3252 54.4057 64.3991C54.4174 64.4729 54.4143 64.5483 54.3967 64.621C54.3791 64.6936 54.3472 64.762 54.303 64.8223C54.2593 64.8829 54.204 64.9343 54.1403 64.9735C54.0767 65.0126 54.0059 65.0388 53.932 65.0504C53.8582 65.0621 53.7828 65.059 53.7101 65.0414C53.6375 65.0238 53.5691 64.9919 53.5088 64.9477L51.5594 63.5341L50.161 65.4797C50.1172 65.5424 50.0612 65.5956 49.9964 65.6362C49.9315 65.6768 49.8592 65.7039 49.7837 65.716C49.7082 65.728 49.631 65.7247 49.5568 65.7064C49.4825 65.688 49.4128 65.6548 49.3516 65.6089Z" fill="#EAAA15"/>
<path d="M150.392 39.0478H147.352L147.732 26.5078H150.012L150.392 39.0478Z" fill="#263238"/>
<path opacity="0.7" d="M150.392 39.0478H147.352L147.732 26.5078H150.012L150.392 39.0478Z" fill="white"/>
<path d="M150.195 32.6828L150.161 31.4478H147.581L147.543 32.6828H150.195Z" fill="#3B5998"/>
<path d="M147.619 30.2116H150.123L150.085 28.9766H147.653L147.619 30.2116Z" fill="#3B5998"/>
<path d="M150.271 35.1515L150.233 33.9165H147.505L147.467 35.1515H150.271Z" fill="#3B5998"/>
<path d="M150.347 37.6246L150.309 36.3896H147.429L147.395 37.6246H150.347Z" fill="#3B5998"/>
<path d="M150.047 27.7428L150.009 26.5078H147.729L147.691 27.7428H150.047Z" fill="#3B5998"/>
<path d="M155.46 39.0478H152.42L152.8 26.5078H155.08L155.46 39.0478Z" fill="#263238"/>
<path opacity="0.7" d="M155.46 39.0478H152.42L152.8 26.5078H155.08L155.46 39.0478Z" fill="white"/>
<path d="M155.264 32.6828L155.226 31.4478H152.645L152.607 32.6828H155.264Z" fill="#3B5998"/>
<path d="M152.684 30.2116H155.188L155.15 28.9766H152.722L152.684 30.2116Z" fill="#3B5998"/>
<path d="M155.336 35.1515L155.302 33.9165H152.569L152.535 35.1515H155.336Z" fill="#3B5998"/>
<path d="M155.414 37.6246L155.376 36.3896H152.499L152.461 37.6246H155.414Z" fill="#3B5998"/>
<path d="M155.116 27.7428L155.082 26.5078H152.802L152.764 27.7428H155.116Z" fill="#3B5998"/>
<path d="M112.266 59.9458H158.88V40.22L135.571 28.7212L112.266 40.22V59.9458Z" fill="#3B5998"/>
<path opacity="0.5" d="M112.266 59.9458H158.88V40.22L135.571 28.7212L112.266 40.22V59.9458Z" fill="white"/>
<path d="M144.821 44.3335H126.326V59.9439H144.821V44.3335Z" fill="#263238"/>
<path d="M129.621 44.3335H126.326V59.9439H129.621V44.3335Z" fill="#263238"/>
<path opacity="0.5" d="M129.621 44.3335H126.326V59.9439H129.621V44.3335Z" fill="white"/>
<path d="M134.24 49.0225H131.455V52.4805H134.24V49.0225Z" fill="#263238"/>
<path opacity="0.6" d="M134.24 49.0225H131.455V52.4805H134.24V49.0225Z" fill="white"/>
<path d="M135.948 49.0225H134.238V52.4805H135.948V49.0225Z" fill="#263238"/>
<path opacity="0.4" d="M135.948 49.0225H134.238V52.4805H135.948V49.0225Z" fill="white"/>
<path d="M134.924 49.0225V50.0751L134.969 50.0371L135.045 50.0865L135.114 50.0371L135.205 50.0865L135.296 50.0371L135.353 50.0865L135.422 50.0485V49.0225H134.924Z" fill="#3B5998"/>
<path opacity="0.7" d="M134.924 49.0225V50.0751L134.969 50.0371L135.045 50.0865L135.114 50.0371L135.205 50.0865L135.296 50.0371L135.353 50.0865L135.422 50.0485V49.0225H134.924Z" fill="#3B5998"/>
<path d="M139.227 49.0225H136.441V52.4805H139.227V49.0225Z" fill="#263238"/>
<path opacity="0.6" d="M139.227 49.0225H136.441V52.4805H139.227V49.0225Z" fill="white"/>
<path d="M140.939 49.0225H139.229V52.4805H140.939V49.0225Z" fill="#263238"/>
<path opacity="0.4" d="M140.939 49.0225H139.229V52.4805H140.939V49.0225Z" fill="white"/>
<path d="M139.914 49.0225V50.0751L139.956 50.0371L140.036 50.0865L140.104 50.0371L140.191 50.0865L140.286 50.0371L140.343 50.0865L140.412 50.0485V49.0225H139.914Z" fill="#3B5998"/>
<path opacity="0.7" d="M139.914 49.0225V50.0751L139.956 50.0371L140.036 50.0865L140.104 50.0371L140.191 50.0865L140.286 50.0371L140.343 50.0865L140.412 50.0485V49.0225H139.914Z" fill="#3B5998"/>
<path d="M158.556 40.9138L135.57 29.5708L112.583 40.9138C112.494 40.9581 112.396 40.9842 112.297 40.9908C112.197 40.9973 112.097 40.9842 112.002 40.9521C111.908 40.9199 111.821 40.8695 111.745 40.8036C111.67 40.7377 111.609 40.6577 111.565 40.568C111.521 40.4785 111.495 40.3811 111.488 40.2814C111.481 40.1817 111.495 40.0817 111.527 39.9872C111.559 39.8926 111.609 39.8052 111.675 39.7302C111.741 39.6551 111.821 39.5938 111.911 39.5496L135.57 27.8608L159.221 39.5496C159.31 39.5938 159.39 39.6551 159.456 39.7302C159.522 39.8052 159.573 39.8926 159.605 39.9872C159.637 40.0817 159.65 40.1817 159.643 40.2814C159.637 40.3811 159.611 40.4785 159.566 40.568C159.477 40.7471 159.321 40.8838 159.132 40.9485C158.943 41.0132 158.736 41.0008 158.556 40.9138Z" fill="#263238"/>
<g opacity="0.5">
<path d="M158.556 40.9134L135.57 29.5704L112.583 40.9134C112.494 40.9576 112.396 40.9837 112.297 40.9903C112.197 40.9968 112.097 40.9837 112.002 40.9516C111.908 40.9194 111.821 40.869 111.745 40.8031C111.67 40.7372 111.609 40.6572 111.565 40.5676C111.521 40.478 111.495 40.3806 111.488 40.2809C111.481 40.1812 111.495 40.0813 111.527 39.9867C111.559 39.8921 111.609 39.8048 111.675 39.7297C111.741 39.6546 111.821 39.5933 111.911 39.5491L135.57 27.8604L159.221 39.5491C159.31 39.5933 159.39 39.6546 159.456 39.7297C159.522 39.8048 159.573 39.8921 159.605 39.9867C159.637 40.0813 159.65 40.1812 159.643 40.2809C159.637 40.3806 159.611 40.478 159.566 40.5676C159.477 40.7466 159.321 40.8833 159.132 40.948C158.943 41.0127 158.736 41.0003 158.556 40.9134Z" fill="white"/>
</g>
<path d="M144.82 44.3335H141.525V59.9439H144.82V44.3335Z" fill="#263238"/>
<path opacity="0.5" d="M144.82 44.3335H141.525V59.9439H144.82V44.3335Z" fill="white"/>
<path d="M141.525 54.8179H130.631V59.9479H141.525V54.8179Z" fill="#263238"/>
<path opacity="0.4" d="M141.525 54.8179H130.631V59.9479H141.525V54.8179Z" fill="white"/>
<path d="M124.177 53.1699H122.334V59.9453H124.177V53.1699Z" fill="#3B5998"/>
<path d="M130.631 55.5092C130.228 55.5092 129.842 55.3491 129.557 55.064C129.271 54.779 129.111 54.3924 129.111 53.9892C129.111 53.5861 129.271 53.1995 129.557 52.9144C129.842 52.6294 130.228 52.4692 130.631 52.4692H141.526V55.5092H130.631Z" fill="#3B5998"/>
<path d="M131.454 53.9945C131.454 54.1576 131.406 54.317 131.315 54.4526C131.224 54.5882 131.096 54.6939 130.945 54.7564C130.794 54.8188 130.628 54.8351 130.468 54.8033C130.308 54.7715 130.162 54.6929 130.046 54.5776C129.931 54.4623 129.852 54.3153 129.821 54.1554C129.789 53.9954 129.805 53.8296 129.867 53.679C129.93 53.5283 130.036 53.3995 130.171 53.3089C130.307 53.2183 130.466 53.1699 130.629 53.1699C130.848 53.1699 131.058 53.2568 131.212 53.4114C131.367 53.5661 131.454 53.7758 131.454 53.9945Z" fill="#263238"/>
<path d="M123.385 53.1699H115.432V59.9453H123.385V53.1699Z" fill="#3B5998"/>
<path opacity="0.3" d="M123.385 53.1699H115.432V59.9453H123.385V53.1699Z" fill="white"/>
<path opacity="0.8" d="M121.001 56.2011H119.659L120.191 54.5405L117.816 56.9155H119.158L118.626 58.5761L121.001 56.2011Z" fill="white"/>
<path d="M55.6349 82.7587C59.8365 82.7587 63.2425 79.3526 63.2425 75.1511C63.2425 70.9495 59.8365 67.5435 55.6349 67.5435C51.4334 67.5435 48.0273 70.9495 48.0273 75.1511C48.0273 79.3526 51.4334 82.7587 55.6349 82.7587Z" fill="#3B5998"/>
<path d="M54.4514 82.7587C58.6529 82.7587 62.059 79.3526 62.059 75.1511C62.059 70.9495 58.6529 67.5435 54.4514 67.5435C50.2498 67.5435 46.8438 70.9495 46.8438 75.1511C46.8438 79.3526 50.2498 82.7587 54.4514 82.7587Z" fill="#3B5998"/>
<path opacity="0.3" d="M54.4514 82.7587C58.6529 82.7587 62.059 79.3526 62.059 75.1511C62.059 70.9495 58.6529 67.5435 54.4514 67.5435C50.2498 67.5435 46.8438 70.9495 46.8438 75.1511C46.8438 79.3526 50.2498 82.7587 54.4514 82.7587Z" fill="white"/>
<path opacity="0.2" d="M54.4517 80.9991C57.6816 80.9991 60.2999 78.3808 60.2999 75.1509C60.2999 71.9211 57.6816 69.3027 54.4517 69.3027C51.2218 69.3027 48.6035 71.9211 48.6035 75.1509C48.6035 78.3808 51.2218 80.9991 54.4517 80.9991Z" fill="white"/>
<path opacity="0.1" d="M49.4889 75.1509C49.4895 73.6776 50.0465 72.2589 51.0485 71.1787C52.0504 70.0986 53.4234 69.4367 54.8925 69.3255C54.7481 69.3255 54.5999 69.3027 54.4517 69.3027C52.9007 69.3027 51.4132 69.9189 50.3164 71.0156C49.2197 72.1124 48.6035 73.5999 48.6035 75.1509C48.6035 76.702 49.2197 78.1895 50.3164 79.2862C51.4132 80.383 52.9007 80.9991 54.4517 80.9991C54.5999 80.9991 54.7481 80.9991 54.8925 80.9763C53.4231 80.8661 52.0496 80.2045 51.0475 79.1241C50.0453 78.0437 49.4886 76.6245 49.4889 75.1509Z" fill="black"/>
<g opacity="0.1">
<path d="M57.1989 77.2593C56.776 77.632 56.2414 77.8539 55.6789 77.8901V78.8629H54.8087V77.9167C54.3924 77.8962 53.9808 77.8195 53.5851 77.6887C53.2475 77.5884 52.9299 77.4303 52.6465 77.2213L53.1215 76.1611C53.3556 76.3298 53.6112 76.4666 53.8815 76.5677C54.1751 76.6766 54.4817 76.7469 54.7935 76.7767V75.3251C54.4378 75.2442 54.0895 75.1337 53.7523 74.9945C53.4734 74.878 53.2278 74.6938 53.0379 74.4587C52.836 74.1903 52.7351 73.8593 52.7529 73.5239C52.7504 73.2924 52.7957 73.063 52.886 72.8498C52.9762 72.6367 53.1094 72.4444 53.2773 72.2851C53.6983 71.9099 54.2342 71.6889 54.7973 71.6581V70.6929H55.6675V71.6391C56.2899 71.6691 56.8955 71.8518 57.4307 72.1711L56.9975 73.2389C56.59 72.9982 56.1372 72.8443 55.6675 72.7867V74.2649C56.0193 74.3399 56.3638 74.4454 56.6973 74.5803C56.9731 74.6966 57.2159 74.8794 57.4041 75.1123C57.6071 75.3774 57.7095 75.706 57.6929 76.0395C57.6989 76.2658 57.6582 76.491 57.5731 76.7009C57.4881 76.9108 57.3607 77.1009 57.1989 77.2593ZM54.3375 73.8393C54.4805 73.9477 54.6431 74.0277 54.8163 74.0749V72.8399C54.6367 72.8711 54.4702 72.9543 54.3375 73.0793C54.2401 73.1822 54.1846 73.3176 54.1817 73.4593C54.1755 73.5304 54.1864 73.6021 54.2135 73.6682C54.2406 73.7343 54.2831 73.7929 54.3375 73.8393ZM56.1539 76.5411C56.2059 76.4926 56.247 76.4337 56.2745 76.3682C56.302 76.3027 56.3153 76.2321 56.3135 76.1611C56.3151 76.093 56.3013 76.0255 56.273 75.9636C56.2447 75.9017 56.2026 75.8471 56.1501 75.8039C56.012 75.6947 55.8548 75.6122 55.6865 75.5607V76.7615C55.8653 76.7313 56.0309 76.6479 56.1615 76.5221L56.1539 76.5411Z" fill="black"/>
</g>
<path d="M56.6149 77.2578C56.1925 77.6313 55.6576 77.8533 55.0949 77.8886V78.8614H54.2247V77.9152C53.8085 77.8944 53.3969 77.8177 53.0011 77.6872C52.6639 77.586 52.3464 77.4279 52.0625 77.2198L52.5413 76.1596C52.7748 76.3294 53.0305 76.4662 53.3013 76.5662C53.5949 76.6751 53.9015 76.7454 54.2133 76.7752V75.3236C53.8577 75.2422 53.5095 75.1316 53.1721 74.993C52.8938 74.8754 52.6485 74.6914 52.4577 74.4572C52.2558 74.1888 52.1549 73.8578 52.1727 73.5224C52.1702 73.291 52.2156 73.0615 52.3058 72.8483C52.396 72.6352 52.5292 72.443 52.6971 72.2836C53.1184 71.909 53.6542 71.688 54.2171 71.6566V70.6914H55.0949V71.6376C55.7187 71.6671 56.3256 71.8498 56.8619 72.1696L56.4249 73.2374C56.0174 72.9968 55.5646 72.8428 55.0949 72.7852V74.2634C55.4467 74.3384 55.7912 74.444 56.1247 74.5788C56.4011 74.696 56.645 74.8786 56.8353 75.1108C57.0355 75.3772 57.1363 75.7052 57.1203 76.038C57.1256 76.2653 57.0833 76.4912 56.9963 76.7012C56.9093 76.9113 56.7794 77.1008 56.6149 77.2578ZM53.7649 73.8112C53.907 73.9189 54.0682 73.9988 54.2399 74.0468V72.8118C54.057 72.8446 53.8879 72.9305 53.7535 73.0588C53.6562 73.1617 53.6006 73.2972 53.5977 73.4388C53.5887 73.513 53.5982 73.5883 53.6254 73.6579C53.6526 73.7275 53.6966 73.7894 53.7535 73.8378L53.7649 73.8112ZM55.5813 76.513C55.6322 76.464 55.6724 76.4048 55.6992 76.3394C55.726 76.274 55.7389 76.2037 55.7371 76.133C55.7387 76.0654 55.7252 75.9982 55.6976 75.9364C55.6699 75.8746 55.6289 75.8198 55.5775 75.7758C55.438 75.6667 55.2795 75.5842 55.1101 75.5326V76.7334C55.2801 76.7063 55.4393 76.6327 55.5699 76.5206L55.5813 76.513Z" fill="#EAAA15"/>
<path d="M100.08 17.5732C103.051 14.6023 103.051 9.78541 100.08 6.81446C97.1086 3.84351 92.2917 3.84351 89.3208 6.81446C86.3498 9.78541 86.3498 14.6023 89.3208 17.5732C92.2917 20.5442 97.1086 20.5442 100.08 17.5732Z" fill="#3B5998"/>
<path d="M100.917 13.9386C101.882 9.84936 99.3498 5.75201 95.2606 4.78687C91.1714 3.82173 87.074 6.35428 86.1089 10.4435C85.1437 14.5327 87.6763 18.6301 91.7655 19.5952C95.8547 20.5603 99.9521 18.0278 100.917 13.9386Z" fill="#3B5998"/>
<path opacity="0.3" d="M100.917 13.9386C101.882 9.84936 99.3498 5.75201 95.2606 4.78687C91.1714 3.82173 87.074 6.35428 86.1089 10.4435C85.1437 14.5327 87.6763 18.6301 91.7655 19.5952C95.8547 20.5603 99.9521 18.0278 100.917 13.9386Z" fill="white"/>
<path opacity="0.2" d="M93.5142 18.0445C96.7441 18.0445 99.3624 15.4262 99.3624 12.1963C99.3624 8.96647 96.7441 6.34814 93.5142 6.34814C90.2843 6.34814 87.666 8.96647 87.666 12.1963C87.666 15.4262 90.2843 18.0445 93.5142 18.0445Z" fill="white"/>
<path opacity="0.1" d="M88.5552 12.1963C88.5558 10.723 89.1128 9.30429 90.1148 8.22412C91.1167 7.14396 92.4897 6.48207 93.9588 6.37094C93.8106 6.37094 93.6662 6.34814 93.5142 6.34814C91.9632 6.34814 90.4757 6.96429 89.3789 8.06104C88.2822 9.15779 87.666 10.6453 87.666 12.1963C87.666 13.7474 88.2822 15.2349 89.3789 16.3316C90.4757 17.4284 91.9632 18.0445 93.5142 18.0445C93.6662 18.0445 93.8106 18.0445 93.9588 18.0217C92.4897 17.9106 91.1167 17.2487 90.1148 16.1686C89.1128 15.0884 88.5558 13.6697 88.5552 12.1963Z" fill="black"/>
<g opacity="0.1">
<path d="M96.2593 14.3061C95.8384 14.6819 95.3027 14.9042 94.7393 14.9369V15.9135H93.8691V14.9635C93.452 14.9425 93.0394 14.8671 92.6417 14.7393C92.3046 14.6362 91.9873 14.4769 91.7031 14.2681L92.1819 13.2079C92.415 13.3794 92.6708 13.5175 92.9419 13.6183C93.235 13.7286 93.5419 13.7977 93.8539 13.8235V12.3719C93.4967 12.2923 93.147 12.1816 92.8089 12.0413C92.5314 11.9261 92.2871 11.7432 92.0983 11.5093C91.8948 11.2416 91.7925 10.9105 91.8095 10.5745C91.8066 10.3427 91.8521 10.1128 91.9431 9.89948C92.034 9.68618 92.1684 9.49419 92.3377 9.33575C92.7582 8.95922 93.2942 8.73678 93.8577 8.70495V7.73975H94.7279V8.68595C95.3595 8.71994 95.973 8.9092 96.5139 9.23695L96.0807 10.3047C95.6722 10.0663 95.2199 9.91256 94.7507 9.85255V11.3307C95.102 11.4092 95.4464 11.516 95.7805 11.6499C96.0562 11.7648 96.299 11.9463 96.4873 12.1781C96.6886 12.4442 96.7907 12.7721 96.7761 13.1053C96.7771 13.3303 96.7316 13.553 96.6427 13.7595C96.5538 13.9661 96.4233 14.1522 96.2593 14.3061ZM93.4093 10.8595C93.5515 10.9694 93.7143 11.0496 93.8881 11.0951V9.86015C93.7055 9.89379 93.5366 9.97958 93.4017 10.1071C93.3037 10.2096 93.2481 10.3454 93.2459 10.4871C93.2409 10.5578 93.2532 10.6286 93.2817 10.6935C93.3101 10.7584 93.3539 10.8154 93.4093 10.8595ZM95.2257 13.5651C95.2768 13.5162 95.3171 13.4571 95.344 13.3917C95.3708 13.3262 95.3836 13.2559 95.3815 13.1851C95.3833 13.118 95.3699 13.0513 95.3423 12.9901C95.3146 12.9289 95.2735 12.8748 95.2219 12.8317C95.0848 12.7212 94.9273 12.6386 94.7583 12.5885V13.7969C94.9331 13.766 95.0953 13.6856 95.2257 13.5651Z" fill="black"/>
</g>
<path d="M95.6734 14.3091C95.2516 14.6836 94.7164 14.9057 94.1534 14.9399V15.9165H93.2832V14.9665C92.8661 14.9451 92.4535 14.8697 92.0558 14.7423C91.7187 14.6391 91.4013 14.4798 91.1172 14.2711L91.596 13.2109C91.829 13.3823 92.0848 13.5204 92.356 13.6213C92.6493 13.7308 92.9561 13.7998 93.268 13.8265V12.3749C92.9107 12.2952 92.5611 12.1846 92.223 12.0443C91.946 11.928 91.7019 11.7453 91.5124 11.5123C91.3103 11.2438 91.2081 10.9132 91.2236 10.5775C91.2214 10.3457 91.2672 10.116 91.3581 9.90282C91.449 9.68962 91.583 9.49755 91.7518 9.33868C92.1723 8.96215 92.7083 8.73971 93.2718 8.70788V7.74268H94.142V8.68888C94.7641 8.72078 95.3692 8.90335 95.9052 9.22088L95.472 10.2887C95.0635 10.0503 94.6112 9.89649 94.142 9.83648V11.3147C94.4934 11.3926 94.8379 11.4993 95.1718 11.6339C95.4475 11.7488 95.6903 11.9302 95.8786 12.1621C96.0816 12.4272 96.184 12.7558 96.1674 13.0893C96.1734 13.3156 96.1327 13.5408 96.0477 13.7507C95.9627 13.9606 95.8352 14.1507 95.6734 14.3091ZM92.8196 10.8625C92.9617 10.9724 93.1246 11.0525 93.2984 11.0981V9.86308C93.1158 9.89672 92.9469 9.98251 92.812 10.1101C92.714 10.2126 92.6584 10.3483 92.6562 10.4901C92.6512 10.5607 92.6635 10.6316 92.6919 10.6964C92.7204 10.7613 92.7642 10.8183 92.8196 10.8625ZM94.636 13.5681C94.6876 13.5194 94.7285 13.4604 94.756 13.3949C94.7834 13.3295 94.7969 13.259 94.7956 13.1881C94.7967 13.1207 94.7825 13.0539 94.7542 12.9927C94.726 12.9315 94.6842 12.8775 94.6322 12.8347C94.495 12.7241 94.3375 12.6415 94.1686 12.5915V13.7999C94.3434 13.7689 94.5056 13.6885 94.636 13.5681Z" fill="#EAAA15"/>
<path d="M112.355 67.4431H103.402C103.299 67.4405 103.197 67.4589 103.101 67.4971C103.005 67.5353 102.919 67.5926 102.846 67.6655C102.773 67.7383 102.715 67.8253 102.677 67.9209C102.639 68.0166 102.621 68.1191 102.623 68.2221V77.1711C102.623 77.2737 102.643 77.3754 102.681 77.4704C102.72 77.5654 102.778 77.6517 102.85 77.7244C102.922 77.7972 103.009 77.8549 103.103 77.8943C103.198 77.9336 103.3 77.9539 103.402 77.9539V79.4739C103.404 79.5802 103.437 79.6836 103.496 79.7714C103.556 79.8593 103.641 79.9276 103.739 79.9681C103.837 80.0085 103.945 80.0192 104.049 79.999C104.154 79.9787 104.25 79.9282 104.326 79.8539L106.226 77.9539H112.355C112.458 77.9539 112.559 77.9336 112.654 77.8943C112.749 77.8549 112.835 77.7972 112.907 77.7244C112.98 77.6517 113.037 77.5654 113.076 77.4704C113.115 77.3754 113.135 77.2737 113.134 77.1711V68.2221C113.137 68.1191 113.118 68.0166 113.08 67.9209C113.042 67.8253 112.985 67.7383 112.912 67.6655C112.839 67.5926 112.752 67.5353 112.656 67.4971C112.561 67.4589 112.458 67.4405 112.355 67.4431Z" fill="#3B5998"/>
<g opacity="0.9">
<path d="M110.381 71.817H105.612L105.434 71.1558H103.834V71.4522H105.206L106.198 75.1154H109.481V74.819H106.441L106.266 74.1768H109.602L110.381 71.817ZM106.171 73.8804L105.692 72.1134H109.967L109.374 73.8804H106.171Z" fill="white"/>
<path d="M106.361 75.8111C106.525 75.8111 106.657 75.6784 106.657 75.5147C106.657 75.351 106.525 75.2183 106.361 75.2183C106.197 75.2183 106.064 75.351 106.064 75.5147C106.064 75.6784 106.197 75.8111 106.361 75.8111Z" fill="white"/>
<path d="M109.776 75.5147C109.776 75.5733 109.759 75.6306 109.726 75.6793C109.694 75.7281 109.648 75.7661 109.593 75.7885C109.539 75.8109 109.48 75.8168 109.422 75.8054C109.365 75.7939 109.312 75.7657 109.27 75.7242C109.229 75.6828 109.201 75.63 109.189 75.5725C109.178 75.515 109.184 75.4554 109.206 75.4012C109.229 75.3471 109.267 75.3008 109.315 75.2682C109.364 75.2356 109.421 75.2183 109.48 75.2183C109.559 75.2183 109.634 75.2495 109.69 75.3051C109.745 75.3607 109.776 75.4361 109.776 75.5147Z" fill="white"/>
</g>
<path d="M109.408 72.6031C110.372 72.6031 111.152 71.8222 111.152 70.8589C111.152 69.8956 110.372 69.1147 109.408 69.1147C108.445 69.1147 107.664 69.8956 107.664 70.8589C107.664 71.8222 108.445 72.6031 109.408 72.6031Z" fill="#3B5998"/>
<path opacity="0.3" d="M109.408 72.6031C110.372 72.6031 111.152 71.8222 111.152 70.8589C111.152 69.8956 110.372 69.1147 109.408 69.1147C108.445 69.1147 107.664 69.8956 107.664 70.8589C107.664 71.8222 108.445 72.6031 109.408 72.6031Z" fill="black"/>
<g opacity="0.9">
<path d="M109.351 71.9855L107.918 70.4997C107.809 70.39 107.748 70.2418 107.748 70.0874C107.748 69.9329 107.809 69.7847 107.918 69.675C107.972 69.6207 108.036 69.5776 108.107 69.5482C108.178 69.5187 108.254 69.5036 108.33 69.5036C108.407 69.5036 108.483 69.5187 108.554 69.5482C108.624 69.5776 108.689 69.6207 108.743 69.675L109.37 70.3249L111.27 68.4059C111.324 68.3515 111.388 68.3084 111.459 68.279C111.529 68.2495 111.605 68.2344 111.682 68.2344C111.758 68.2344 111.834 68.2495 111.905 68.279C111.976 68.3084 112.04 68.3515 112.094 68.4059C112.203 68.5148 112.264 68.6624 112.264 68.8163C112.264 68.9701 112.203 69.1177 112.094 69.2267L109.351 71.9855Z" fill="white"/>
</g>
<path d="M68.6102 32.666H35.041V59.9462H68.6102V32.666Z" fill="#3B5998"/>
<path opacity="0.5" d="M68.6102 32.666H35.041V59.9462H68.6102V32.666Z" fill="white"/>
<path d="M39.0051 29.623H33.8789V33.2558H39.0051V29.623Z" fill="#3B5998"/>
<path d="M49.1965 29.623H44.0703V33.2558H49.1965V29.623Z" fill="#3B5998"/>
<path d="M59.3938 29.623H54.2676V33.2558H59.3938V29.623Z" fill="#3B5998"/>
<path d="M69.5871 29.623H64.4609V33.2558H69.5871V29.623Z" fill="#3B5998"/>
<g opacity="0.2">
<path d="M39.0071 29.624H33.8809V33.2568H39.0071V29.624Z" fill="white"/>
<path d="M49.1985 29.624H44.0723V33.2568H49.1985V29.624Z" fill="white"/>
<path d="M59.3957 29.624H54.2695V33.2568H59.3957V29.624Z" fill="white"/>
<path d="M69.5891 29.624H64.4629V33.2568H69.5891V29.624Z" fill="white"/>
</g>
<path d="M39.1618 35.7681C39.1618 36.6535 37.98 37.3717 36.5018 37.3717C35.0236 37.3717 33.8418 36.6535 33.8418 35.7681V33.2183H38.968L39.1618 35.7681Z" fill="#3B5998"/>
<path d="M49.3655 35.7681C49.3655 36.6535 48.1837 37.3717 46.7055 37.3717C45.2273 37.3717 44.0645 36.6535 44.0645 35.7681V33.2183H49.1945L49.3655 35.7681Z" fill="#3B5998"/>
<path d="M59.5691 35.7681C59.5691 36.6535 58.3873 37.3717 56.9281 37.3717C55.4689 37.3717 54.2871 36.6535 54.2871 35.7681V33.2183H59.4171L59.5691 35.7681Z" fill="#3B5998"/>
<path d="M69.5904 35.7681C69.5904 36.6535 68.5606 37.3717 67.1014 37.3717C65.6422 37.3717 64.4414 36.6535 64.4414 35.7681V33.2183H69.5714L69.5904 35.7681Z" fill="#3B5998"/>
<path d="M44.1028 33.2178V29.623H38.9766V33.252V35.7676C38.9766 36.653 40.1584 37.3712 41.6366 37.3712C43.1148 37.3712 44.1256 36.653 44.1256 35.7676V33.2178H44.1028Z" fill="#263238"/>
<path opacity="0.8" d="M44.1028 29.623H38.9766V35.7676C38.9766 36.653 40.1584 37.3712 41.6366 37.3712C43.1148 37.3712 44.1256 36.653 44.1256 35.7676L44.1028 29.623Z" fill="white"/>
<path d="M54.3407 33.2178V29.623H49.2031V33.252V35.7676C49.2031 36.653 50.3849 37.3712 51.8441 37.3712C53.3033 37.3712 54.3331 36.653 54.3331 35.7676V33.2178H54.3407Z" fill="#263238"/>
<path opacity="0.8" d="M54.3407 29.623H49.2031V35.7676C49.2031 36.653 50.3849 37.3712 51.8441 37.3712C53.3033 37.3712 54.3331 36.653 54.3331 35.7676L54.3407 29.623Z" fill="white"/>
<path d="M64.5227 33.2178V29.623H59.3965V33.252V35.7676C59.3965 36.653 60.5783 37.3712 62.0565 37.3712C63.5347 37.3712 64.5455 36.653 64.5455 35.7676V33.2178H64.5227Z" fill="#263238"/>
<path opacity="0.8" d="M64.5227 29.623H59.3965V35.7676C59.3965 36.653 60.5783 37.3712 62.0565 37.3712C63.5347 37.3712 64.5455 36.653 64.5455 35.7676L64.5227 29.623Z" fill="white"/>
<path opacity="0.5" d="M64.9782 41.2012H49.668V49.888H64.9782V41.2012Z" fill="white"/>
<path opacity="0.4" d="M59.4733 49.8804H56.7031L58.7817 41.2886H61.5557L59.4733 49.8804Z" fill="white"/>
<path opacity="0.4" d="M60.8187 49.8804H60.2031L62.2855 41.2886H62.8973L60.8187 49.8804Z" fill="white"/>
<path opacity="0.4" d="M52.2804 49.8804H51.9688L54.0512 41.2886H54.3628L52.2804 49.8804Z" fill="white"/>
<path d="M65.2854 50.1928H49.3672V40.8979H65.2854V50.1928ZM49.9752 49.5847H64.6774V41.506H49.9752V49.5847Z" fill="#3B5998"/>
<path d="M45.938 38.0249H36.7344V59.8711H45.938V38.0249Z" fill="#3B5998"/>
<path opacity="0.7" d="M45.5458 38.4224H37.125V59.8696H45.5458V38.4224Z" fill="white"/>
<path opacity="0.1" d="M41.1361 41.2515H37.7617V49.1061H41.1361V41.2515Z" fill="black"/>
<path opacity="0.1" d="M44.9525 41.2515H41.5781V49.1061H44.9525V41.2515Z" fill="black"/>
<path opacity="0.1" d="M44.9513 51.4805H37.7617V59.3351H44.9513V51.4805Z" fill="black"/>
<path opacity="0.1" d="M44.9551 40.8441H37.7617C37.7617 40.3523 37.9571 39.8807 38.3049 39.5329C38.6526 39.1851 39.1243 38.9897 39.6161 38.9897H43.1007C43.5925 38.9897 44.0642 39.1851 44.412 39.5329C44.7597 39.8807 44.9551 40.3523 44.9551 40.8441Z" fill="black"/>
<path d="M38.3773 49.459H37.7617V51.0588H38.3773V49.459Z" fill="#3B5998"/>
<path opacity="0.3" d="M38.3773 49.459H37.7617V51.0588H38.3773V49.459Z" fill="white"/>
<path d="M38.3764 51.0615H38.498V49.4617H38.3764V51.0615Z" fill="#3B5998"/>
<path d="M38.175 50.0865C38.175 50.1376 38.1598 50.1876 38.1315 50.2301C38.1031 50.2726 38.0627 50.3057 38.0155 50.3253C37.9683 50.3448 37.9163 50.3499 37.8662 50.34C37.8161 50.33 37.77 50.3054 37.7339 50.2692C37.6977 50.2331 37.6731 50.1871 37.6632 50.1369C37.6532 50.0868 37.6583 50.0349 37.6779 49.9876C37.6974 49.9404 37.7306 49.9001 37.773 49.8717C37.8155 49.8433 37.8655 49.8281 37.9166 49.8281C37.9851 49.8281 38.0509 49.8554 38.0993 49.9038C38.1478 49.9523 38.175 50.018 38.175 50.0865Z" fill="#263238"/>
<path opacity="0.5" d="M38.1252 50.5332H37.9922V50.8562H38.1252V50.5332Z" fill="white"/>
<path d="M37.6891 50.4495C37.8885 50.4495 38.0501 50.2879 38.0501 50.0885C38.0501 49.8892 37.8885 49.7275 37.6891 49.7275C37.4897 49.7275 37.3281 49.8892 37.3281 50.0885C37.3281 50.2879 37.4897 50.4495 37.6891 50.4495Z" fill="#263238"/>
<path opacity="0.2" d="M37.6891 50.4495C37.8885 50.4495 38.0501 50.2879 38.0501 50.0885C38.0501 49.8892 37.8885 49.7275 37.6891 49.7275C37.4897 49.7275 37.3281 49.8892 37.3281 50.0885C37.3281 50.2879 37.4897 50.4495 37.6891 50.4495Z" fill="white"/>
<path d="M134.526 66.5908H120.986L123.574 69.988H137.11L134.526 66.5908Z" fill="#3B5998"/>
<path opacity="0.3" d="M134.526 66.5908H120.986L123.574 69.988H137.11L134.526 66.5908Z" fill="white"/>
<path d="M139.56 66.5908H147.875L145.428 69.988H137.109L139.56 66.5908Z" fill="#3B5998"/>
<path opacity="0.1" d="M139.56 66.5908H147.875L145.428 69.988H137.109L139.56 66.5908Z" fill="white"/>
<path d="M137.116 69.9873H123.576V83.5267H137.116V69.9873Z" fill="#3B5998"/>
<path opacity="0.5" d="M137.116 69.9873H123.576V83.5267H137.116V69.9873Z" fill="white"/>
<path opacity="0.2" d="M131.566 69.9873H129.115V73.0349H131.566V69.9873Z" fill="black"/>
<path opacity="0.2" d="M131.566 81.0811H129.115V83.5283H131.566V81.0811Z" fill="black"/>
<path d="M145.424 69.9878H137.109V83.5272H145.424V69.9878Z" fill="#3B5998"/>
<path opacity="0.3" d="M145.424 69.9878H137.109V83.5272H145.424V69.9878Z" fill="white"/>
<path opacity="0.8" d="M141.807 82.639V80.188H138.071V82.639H141.807Z" fill="white"/>
<path d="M104.238 120.42C107.37 120.579 108.935 120.678 112.063 120.925C111.556 109.662 110.901 98.409 110.098 87.166C109.992 85.7372 108.608 84.506 107.012 84.411L103.972 84.259C92.1203 83.8182 80.3213 83.9474 68.4805 84.639C71.1278 96.5153 73.594 108.422 75.8791 120.359C85.3601 120.002 94.7689 120.013 104.238 120.42Z" fill="#3B5998"/>
<path opacity="0.5" d="M104.238 120.42C107.37 120.579 108.935 120.678 112.063 120.925C111.556 109.662 110.901 98.409 110.098 87.166C109.992 85.7372 108.608 84.506 107.012 84.411L103.972 84.259C92.1203 83.8182 80.3213 83.9474 68.4805 84.639C71.1278 96.5153 73.594 108.422 75.8791 120.359C85.3601 120.002 94.7689 120.013 104.238 120.42Z" fill="white"/>
<path d="M79.3866 120.237C76.2554 120.351 74.6898 120.431 71.5586 120.617C69.4458 109.542 67.1988 98.495 64.8174 87.4776C64.5096 86.0792 65.5546 84.8404 67.1544 84.7264C68.3628 84.6428 68.9708 84.601 70.1944 84.5288C71.7942 84.43 73.3104 85.5054 73.5764 86.9114C75.6487 98.0023 77.5854 109.111 79.3866 120.237Z" fill="#3B5998"/>
<path d="M83.7506 126.48L82.2686 109.525C82.2353 109.158 82.0778 108.813 81.8222 108.548C81.5665 108.283 81.228 108.112 80.8626 108.065L80.2508 107.986C79.7575 107.926 79.2996 107.698 78.9537 107.342C78.6079 106.985 78.3951 106.52 78.3508 106.025L78.081 102.935C78.0547 102.636 78.091 102.334 78.1877 102.048C78.2844 101.763 78.4393 101.502 78.6427 101.28C78.846 101.058 79.0934 100.881 79.3689 100.759C79.6444 100.638 79.9422 100.576 80.2432 100.576H66.5632C66.2625 100.576 65.9652 100.639 65.6901 100.76C65.415 100.882 65.1681 101.059 64.9652 101.281C64.7623 101.503 64.6076 101.765 64.5112 102.049C64.4147 102.334 64.3785 102.636 64.4048 102.935L64.6746 106.025C64.7189 106.52 64.9317 106.985 65.2775 107.342C65.6234 107.698 66.0813 107.926 66.5746 107.986L67.1864 108.065C67.5518 108.112 67.8903 108.283 68.146 108.548C68.4016 108.813 68.5591 109.158 68.5924 109.525L70.0744 126.48C70.1267 127.076 70.4004 127.63 70.8415 128.034C71.2826 128.438 71.859 128.662 72.457 128.661H86.137C85.5386 128.662 84.9617 128.438 84.52 128.035C84.0783 127.631 83.8038 127.076 83.7506 126.48Z" fill="#3B5998"/>
<g opacity="0.2">
<path d="M83.7506 126.481L82.2686 109.526C82.2353 109.159 82.0778 108.814 81.8222 108.549C81.5665 108.284 81.228 108.113 80.8626 108.066L80.2508 107.987C79.7575 107.927 79.2996 107.699 78.9537 107.343C78.6079 106.986 78.3951 106.521 78.3508 106.026L78.081 102.936C78.0547 102.637 78.091 102.335 78.1877 102.049C78.2844 101.764 78.4393 101.503 78.6427 101.281C78.846 101.059 79.0934 100.881 79.3689 100.76C79.6444 100.639 79.9422 100.577 80.2432 100.577H66.5632C66.2625 100.577 65.9652 100.64 65.6901 100.761C65.415 100.883 65.1681 101.06 64.9652 101.282C64.7623 101.504 64.6076 101.766 64.5112 102.05C64.4147 102.335 64.3785 102.637 64.4048 102.936L64.6746 106.026C64.7189 106.521 64.9317 106.986 65.2775 107.343C65.6234 107.699 66.0813 107.927 66.5746 107.987L67.1864 108.066C67.5518 108.113 67.8903 108.284 68.146 108.549C68.4016 108.814 68.5591 109.159 68.5924 109.526L70.0744 126.481C70.1267 127.077 70.4004 127.631 70.8415 128.035C71.2826 128.439 71.859 128.663 72.457 128.662H86.137C85.5386 128.663 84.9617 128.439 84.52 128.036C84.0783 127.632 83.8038 127.077 83.7506 126.481Z" fill="white"/>
</g>
<path d="M121.401 105.286C121.513 104.001 122.103 102.804 123.054 101.933C124.005 101.061 125.249 100.578 126.539 100.578H114.626C113.336 100.578 112.093 101.062 111.142 101.934C110.191 102.805 109.601 104.001 109.488 105.286L108.299 118.723H120.208L121.401 105.286Z" fill="#3B5998"/>
<path opacity="0.2" d="M121.401 105.286C121.513 104.001 122.103 102.804 123.054 101.933C124.005 101.061 125.249 100.578 126.539 100.578H114.626C113.336 100.578 112.093 101.062 111.142 101.934C110.191 102.805 109.601 104.001 109.488 105.286L108.299 118.723H120.208L121.401 105.286Z" fill="white"/>
<path d="M118.745 118.096C110.502 119.058 102.187 119.254 93.9078 118.681C93.6232 118.668 93.3442 118.598 93.0868 118.475C92.8295 118.353 92.5991 118.181 92.4088 117.969C92.2186 117.756 92.0725 117.509 91.9788 117.24C91.8852 116.971 91.846 116.686 91.8634 116.401C92.1028 114.224 92.2206 113.137 92.46 110.96C92.5241 110.415 92.7981 109.916 93.2238 109.57C93.6495 109.224 94.1934 109.057 94.74 109.105C102.298 109.795 109.91 109.612 117.426 108.558C117.972 108.48 118.526 108.618 118.971 108.943C119.417 109.268 119.717 109.755 119.809 110.298L120.664 115.706C120.697 115.989 120.674 116.276 120.596 116.551C120.517 116.825 120.385 117.081 120.206 117.304C120.027 117.526 119.806 117.711 119.555 117.847C119.304 117.983 119.029 118.068 118.745 118.096Z" fill="#3B5998"/>
<path d="M94.592 109.103C92.692 108.932 91.7686 108.826 89.8952 108.567C89.3489 108.488 88.7934 108.626 88.3474 108.951C87.9014 109.276 87.6004 109.763 87.5088 110.308L86.6386 115.715C86.6065 115.998 86.6313 116.285 86.7113 116.559C86.7914 116.833 86.9252 117.088 87.1049 117.309C87.2846 117.531 87.5066 117.714 87.758 117.849C88.0094 117.984 88.2851 118.067 88.569 118.094C90.6248 118.375 91.6508 118.493 93.7142 118.679C94.0752 114.849 94.2386 112.933 94.592 109.103Z" fill="#3B5998"/>
<g opacity="0.4">
<path d="M118.745 118.093C110.502 119.055 102.187 119.251 93.9078 118.678C93.6232 118.665 93.3442 118.595 93.0868 118.472C92.8295 118.35 92.5991 118.178 92.4088 117.966C92.2186 117.754 92.0725 117.506 91.9788 117.237C91.8852 116.968 91.846 116.683 91.8634 116.398C92.1028 114.221 92.2206 113.134 92.46 110.957C92.5241 110.412 92.7981 109.913 93.2238 109.567C93.6495 109.221 94.1934 109.054 94.74 109.102C102.298 109.793 109.91 109.609 117.426 108.555C117.972 108.477 118.526 108.615 118.971 108.94C119.417 109.266 119.717 109.752 119.809 110.295L120.664 115.703C120.697 115.986 120.674 116.273 120.596 116.548C120.517 116.822 120.385 117.078 120.206 117.301C120.027 117.523 119.806 117.708 119.555 117.844C119.304 117.98 119.029 118.065 118.745 118.093Z" fill="white"/>
</g>
<path d="M131.824 100.576H126.539C125.249 100.577 124.007 101.06 123.057 101.932C122.106 102.803 121.517 103.999 121.405 105.284L120.227 118.721H91.856L90.6818 105.284C90.5697 103.999 89.9804 102.803 89.0301 101.932C88.0798 101.06 86.8375 100.577 85.548 100.576H80.2584C79.9574 100.576 79.6597 100.638 79.3841 100.759C79.1086 100.881 78.8613 101.058 78.6579 101.28C78.4545 101.502 78.2996 101.763 78.2029 102.049C78.1062 102.334 78.0699 102.636 78.0962 102.936L78.366 106.025C78.4103 106.52 78.6231 106.985 78.969 107.342C79.3148 107.699 79.7727 107.926 80.266 107.986L80.8778 108.066C81.2432 108.112 81.5817 108.283 81.8374 108.548C82.093 108.813 82.2505 109.158 82.2838 109.525L83.7658 126.48C83.819 127.076 84.0929 127.63 84.5338 128.033C84.9747 128.437 85.5507 128.661 86.1484 128.662H125.946C126.544 128.662 127.121 128.438 127.563 128.035C128.005 127.631 128.279 127.076 128.332 126.48L129.814 109.525C129.846 109.157 130.003 108.812 130.259 108.546C130.515 108.281 130.854 108.111 131.22 108.066L131.828 107.986C132.322 107.927 132.78 107.699 133.126 107.342C133.472 106.985 133.685 106.52 133.728 106.025L133.998 102.936C134.025 102.635 133.989 102.331 133.892 102.045C133.795 101.759 133.639 101.496 133.434 101.274C133.229 101.052 132.98 100.875 132.703 100.755C132.426 100.634 132.127 100.573 131.824 100.576Z" fill="#3B5998"/>
<path opacity="0.6" d="M131.824 100.576H126.539C125.249 100.577 124.007 101.06 123.057 101.932C122.106 102.803 121.517 103.999 121.405 105.284L120.227 118.721H91.856L90.6818 105.284C90.5697 103.999 89.9804 102.803 89.0301 101.932C88.0798 101.06 86.8375 100.577 85.548 100.576H80.2584C79.9574 100.576 79.6597 100.638 79.3841 100.759C79.1086 100.881 78.8613 101.058 78.6579 101.28C78.4545 101.502 78.2996 101.763 78.2029 102.049C78.1062 102.334 78.0699 102.636 78.0962 102.936L78.366 106.025C78.4103 106.52 78.6231 106.985 78.969 107.342C79.3148 107.699 79.7727 107.926 80.266 107.986L80.8778 108.066C81.2432 108.112 81.5817 108.283 81.8374 108.548C82.093 108.813 82.2505 109.158 82.2838 109.525L83.7658 126.48C83.819 127.076 84.0929 127.63 84.5338 128.033C84.9747 128.437 85.5507 128.661 86.1484 128.662H125.946C126.544 128.662 127.121 128.438 127.563 128.035C128.005 127.631 128.279 127.076 128.332 126.48L129.814 109.525C129.846 109.157 130.003 108.812 130.259 108.546C130.515 108.281 130.854 108.111 131.22 108.066L131.828 107.986C132.322 107.927 132.78 107.699 133.126 107.342C133.472 106.985 133.685 106.52 133.728 106.025L133.998 102.936C134.025 102.635 133.989 102.331 133.892 102.045C133.795 101.759 133.639 101.496 133.434 101.274C133.229 101.052 132.98 100.875 132.703 100.755C132.426 100.634 132.127 100.573 131.824 100.576Z" fill="white"/>
<path d="M114.607 121.674L115.88 127.583L117.864 126.899L117.632 121.309L114.607 121.674Z" fill="#FFC3BD"/>
<path d="M96.0077 96.8667C97.9074 96.8861 99.8005 96.6392 101.632 96.1333L103.501 100.059C103.501 100.059 115.201 97.9611 116.691 101.579C117.964 104.653 118.017 123.619 118.017 123.619L114.761 123.999C114.761 123.999 111.192 110.193 111.208 105.622C111.209 105.541 111.187 105.462 111.145 105.393C111.103 105.324 111.043 105.268 110.97 105.232C110.898 105.196 110.817 105.181 110.737 105.189C110.657 105.197 110.58 105.227 110.516 105.276C108.719 106.674 103.934 109.699 96.6917 109.232C95.5707 109.16 94.2597 108.916 94.5941 105.257C94.9137 102.437 95.3856 99.636 96.0077 96.8667Z" fill="#EAAA15"/>
<path opacity="0.1" d="M102.489 107.281C105.7 105.856 110.153 101.961 112.213 100.517C112.691 100.165 113.235 99.9133 113.813 99.7757C112.027 99.3957 109.739 99.3957 107.771 99.5515L103.1 101.615L95.603 104.959L94.6758 107.619C94.9988 109.044 95.8956 109.192 96.7012 109.245C99.5542 109.445 102.418 109.073 105.126 108.151C104.753 108.17 99.3916 108.653 102.489 107.281Z" fill="black"/>
<path d="M124.859 110.847L128.872 114.902L130.43 113.675L127.337 109.023L124.859 110.847Z" fill="#FFC3BD"/>
<path d="M130.143 113.123L128.334 114.502C128.297 114.532 128.271 114.574 128.26 114.621C128.249 114.668 128.254 114.717 128.273 114.761L129.189 116.737C129.228 116.821 129.299 116.886 129.385 116.919C129.472 116.951 129.568 116.949 129.653 116.911C129.676 116.901 129.697 116.888 129.717 116.873C130.458 116.288 131.093 115.733 132.024 115.023C133.126 114.183 132.947 114.529 134.255 113.556C135.045 112.971 134.509 111.975 134.144 112.184C132.484 113.149 131.709 113.02 130.724 112.925C130.513 112.915 130.305 112.985 130.143 113.123Z" fill="#263238"/>
<path opacity="0.1" d="M97.2176 99.7294L99.2164 100.208C99.2164 100.208 102.956 97.3012 101.211 98.2626C99.9384 98.9694 99.3114 97.5026 99.0492 96.6704C98.255 96.7806 97.5596 96.83 97.0352 96.8528L97.2176 99.7294Z" fill="black"/>
<path d="M98.078 96.6381C93.119 97.4589 90.9302 96.6875 90.9302 96.6875C90.9302 96.6875 87.3962 109.383 95.19 109.33C98.6442 109.307 100.077 107.955 102.323 106.636C107.43 103.638 111.648 99.1955 113.624 99.4843C116.462 99.8947 114.855 103.284 126.434 112.697L128.835 110.584C128.835 110.584 118.83 92.6139 113.574 92.6519C108.513 92.6861 100.369 99.0473 99.2978 99.0549C98.2262 99.0625 98.078 96.6381 98.078 96.6381Z" fill="#EAAA15"/>
<path opacity="0.1" d="M115.205 100.209C115.858 100.454 116.392 100.941 116.695 101.569C116.89 102.116 117.025 102.681 117.097 103.257C117.424 103.728 117.812 104.256 118.268 104.834C117.964 101.026 115.205 100.209 115.205 100.209Z" fill="black"/>
<path d="M117.835 126.366L115.555 126.502C115.507 126.504 115.461 126.523 115.425 126.555C115.389 126.586 115.365 126.63 115.357 126.677L115.011 128.832C115.003 128.877 115.004 128.924 115.014 128.969C115.025 129.014 115.044 129.057 115.071 129.094C115.098 129.132 115.132 129.163 115.171 129.188C115.211 129.212 115.254 129.228 115.3 129.235C115.324 129.238 115.348 129.238 115.372 129.235C116.315 129.162 117.147 129.063 118.321 128.995C119.704 128.911 119.362 129.098 120.981 129.026C121.965 128.98 122.075 127.855 121.657 127.825C119.757 127.699 119.172 127.156 118.397 126.518C118.233 126.402 118.034 126.348 117.835 126.366Z" fill="#263238"/>
<path d="M97.4921 79.7915C98.1343 79.5445 99.1983 79.9701 100.122 81.6193C101.045 83.2685 104.974 90.0705 103.857 90.9445C102.74 91.8185 100.6 89.3409 99.8139 87.5625C99.0273 85.7841 96.3673 80.2285 97.4921 79.7915Z" fill="#263238"/>
<path opacity="0.4" d="M99.2188 82.9292L99.3555 84.0198L99.2833 86.3796C99.4961 86.8546 99.6824 87.2612 99.8154 87.5614C100.157 88.3 100.596 88.99 101.119 89.6134C101.286 86.2884 100.032 82.9292 100.032 82.9292H99.2188Z" fill="black"/>
<path d="M90.6868 96.9327C90.6868 96.9327 97.5534 97.7497 101.935 96.3095C101.935 96.3095 100.601 94.6299 100.415 91.2669C100.244 87.9685 101.646 84.009 98.3438 79.9962C98.2795 79.9176 98.1973 79.8559 98.1039 79.8162C98.0106 79.7765 97.9091 79.76 97.808 79.7681C96.0714 79.8897 87.985 80.5281 87.8672 81.9607C87.7304 83.7771 91.2644 87.6531 90.6868 96.9327Z" fill="#263238"/>
<path d="M91.3574 75.9736C91.3574 75.9736 92.258 78.5994 91.5588 79.7242C91.5588 79.7242 94.0858 79.8535 94.7014 79.0289C94.7014 79.0289 94.3442 78.8351 94.2302 77.8319C94.1162 76.8287 93.1548 75.7912 91.3574 75.9736Z" fill="#FFC3BD"/>
<path opacity="0.2" d="M94.2387 77.8346C94.1361 76.9074 93.3001 75.9346 91.7459 75.9574L91.6395 76.0524L91.5293 76.2538C91.5293 76.2538 92.4831 78.815 94.3983 78.5338C94.3163 78.3083 94.2626 78.0734 94.2387 77.8346Z" fill="black"/>
<path d="M90.4092 72.4912C90.7094 74.9042 90.7892 75.934 92.085 77.1006C94.0458 78.86 96.9452 77.9632 97.3746 75.5046C97.7546 73.293 97.2036 69.7172 94.7716 68.9002C94.2357 68.7176 93.6621 68.675 93.1052 68.7764C92.5482 68.8778 92.0264 69.1199 91.5893 69.4797C91.1523 69.8395 90.8144 70.305 90.6079 70.8321C90.4013 71.3592 90.3329 71.9303 90.4092 72.4912Z" fill="#FFC3BD"/>
<path d="M95.7598 73.9116C95.9641 74.3507 96.2275 74.7598 96.5426 75.1276C96.4474 75.2062 96.3361 75.2629 96.2166 75.2937C96.0971 75.3246 95.9723 75.3288 95.851 75.3062L95.7598 73.9116Z" fill="#ED893E"/>
<path d="M93.62 72.6541L93.5744 72.6351C93.5567 72.6167 93.5469 72.5922 93.5469 72.5667C93.5469 72.5412 93.5567 72.5167 93.5744 72.4983C93.6844 72.3539 93.8273 72.2379 93.9913 72.1599C94.1552 72.0819 94.3353 72.0442 94.5168 72.0499C94.5392 72.0561 94.5588 72.07 94.572 72.0892C94.5852 72.1083 94.5912 72.1316 94.5889 72.1548C94.5866 72.178 94.5762 72.1996 94.5596 72.2159C94.5429 72.2321 94.521 72.242 94.4978 72.2437C94.3501 72.2425 94.2042 72.2763 94.0721 72.3423C93.94 72.4084 93.8254 72.5048 93.7378 72.6237C93.724 72.6406 93.7051 72.6527 93.6839 72.6582C93.6627 72.6637 93.6403 72.6622 93.62 72.6541Z" fill="#2E353A"/>
<path d="M97.2028 72.2706L97.1572 72.2516C97.0407 72.1588 96.9038 72.0949 96.7578 72.0652C96.6118 72.0354 96.4609 72.0407 96.3174 72.0806C96.3057 72.0856 96.2931 72.0881 96.2804 72.0881C96.2677 72.088 96.2551 72.0855 96.2434 72.0805C96.2317 72.0756 96.2212 72.0683 96.2123 72.0592C96.2035 72.0501 96.1966 72.0393 96.192 72.0274C96.1872 72.0155 96.1851 72.0027 96.1856 71.9899C96.1862 71.9771 96.1894 71.9645 96.1952 71.953C96.2009 71.9416 96.209 71.9314 96.2189 71.9233C96.2289 71.9152 96.2404 71.9092 96.2528 71.9058C96.4263 71.8547 96.6095 71.8456 96.7873 71.8793C96.965 71.913 97.1322 71.9885 97.275 72.0996C97.2852 72.1068 97.294 72.116 97.3007 72.1266C97.3074 72.1372 97.312 72.149 97.3141 72.1614C97.3162 72.1737 97.3158 72.1864 97.313 72.1986C97.3102 72.2109 97.305 72.2224 97.2978 72.2326C97.2874 72.2477 97.273 72.2596 97.2562 72.267C97.2394 72.2744 97.2209 72.277 97.2028 72.2744V72.2706Z" fill="#2E353A"/>
<path d="M94.3369 73.6718C94.3369 73.8694 94.4661 74.0214 94.5953 74.0138C94.7245 74.0062 94.8195 73.8428 94.8043 73.6338C94.7891 73.4248 94.6789 73.2842 94.5497 73.2918C94.4205 73.2994 94.3255 73.459 94.3369 73.6718Z" fill="#2E353A"/>
<path d="M96.568 73.5341C96.568 73.7317 96.6934 73.8837 96.8226 73.8761C96.9518 73.8685 97.043 73.7051 97.0316 73.4961C97.0202 73.2871 96.9062 73.1465 96.777 73.1541C96.6478 73.1617 96.5528 73.3365 96.568 73.5341Z" fill="#2E353A"/>
<path d="M96.7266 73.1756L97.1902 73.0122C97.1902 73.0122 96.9698 73.396 96.7266 73.1756Z" fill="#2E353A"/>
<path d="M94.4902 73.3147L94.9576 73.1475C94.9576 73.1475 94.7334 73.5351 94.4902 73.3147Z" fill="#2E353A"/>
<path d="M94.5765 75.6521C94.5241 75.5917 94.4771 75.5268 94.4359 75.4583C94.4281 75.4494 94.4238 75.4379 94.4238 75.426C94.4238 75.4142 94.4281 75.4027 94.4359 75.3937C94.4451 75.3866 94.4565 75.3828 94.4682 75.3828C94.4798 75.3828 94.4912 75.3866 94.5005 75.3937C94.6032 75.566 94.7452 75.7116 94.915 75.8186C95.0847 75.9256 95.2773 75.9909 95.4771 76.0093C95.4874 76.0123 95.4965 76.0185 95.5029 76.0271C95.5094 76.0357 95.5129 76.0461 95.5129 76.0568C95.5129 76.0676 95.5094 76.078 95.5029 76.0866C95.4965 76.0952 95.4874 76.1014 95.4771 76.1043C95.3046 76.0919 95.1362 76.0455 94.9817 75.9679C94.8272 75.8904 94.6895 75.783 94.5765 75.6521Z" fill="#263238"/>
<path opacity="0.4" d="M91.5229 88.2818C91.1429 86.5642 89.8395 83.604 89.8395 83.604L88.8933 83.3418L88.4297 83.9802C89.2543 86.0322 90.7097 89.3002 90.7477 94.6962C92.5717 94.6392 94.5895 92.0666 94.5895 92.0666L93.5559 89.7866C92.4045 90.3566 91.8915 90.0146 91.5229 88.2818Z" fill="black"/>
<path d="M91.101 74.4099C91.101 74.4099 92.6666 73.6955 91.7546 72.3541C91.7546 72.3541 93.3582 72.5745 93.4912 71.0089C93.4912 71.0089 94.9162 71.7271 95.718 70.6099C95.718 70.6099 97.238 71.4725 97.5876 70.3933C97.9372 69.3141 96.7516 69.0291 96.7516 69.0291C96.7516 69.0291 96.934 67.9651 96.3184 67.6839C96.1138 67.6105 95.8942 67.589 95.6793 67.6215C95.4644 67.654 95.2609 67.7395 95.0872 67.8701C95.0872 67.8701 94.9694 66.6009 93.9472 66.6503C93.6286 66.68 93.321 66.7825 93.0483 66.9499C92.7755 67.1172 92.5448 67.3449 92.374 67.6155C92.0925 67.4399 91.7726 67.335 91.4417 67.3099C91.1109 67.2848 90.7788 67.3401 90.474 67.4711C89.4594 67.9309 89.2922 69.3141 89.2922 69.3141C89.2922 69.3141 88.1522 69.5459 87.966 70.4275C87.7798 71.3091 88.1446 71.6093 88.1446 71.6093C88.1446 71.6093 87.529 72.4567 87.7266 73.2395C87.9242 74.0223 88.3346 73.9995 88.3346 73.9995C88.2602 74.6121 88.4115 75.2308 88.7602 75.7399C89.3264 76.4201 89.7558 76.1199 89.7558 76.1199C89.7558 76.1199 89.942 77.6399 90.9832 77.4841C92.0244 77.3283 91.101 74.4099 91.101 74.4099Z" fill="#263238"/>
<path d="M89.9533 74.4427C90.1169 74.8838 90.4491 75.2419 90.8767 75.4383C91.4467 75.6967 91.8229 75.2103 91.7431 74.6251C91.6747 74.1007 91.2909 73.3293 90.6829 73.3179C90.4696 73.3219 90.2664 73.41 90.1177 73.563C89.969 73.716 89.8867 73.9215 89.8887 74.1349C89.8896 74.2407 89.9116 74.3454 89.9533 74.4427Z" fill="#FFC3BD"/>
<path d="M91.1016 80.5723L91.7172 78.7711C92.3672 79.0181 93.0667 79.1067 93.7578 79.0295C94.5178 78.9421 94.4912 78.6001 94.4912 78.6001L96.0112 79.9149L95.3614 80.7471L94.1948 80.2113L93.3132 81.1917L91.1016 80.5723Z" fill="#263238"/>
<path opacity="0.7" d="M91.1016 80.5723L91.7172 78.7711C92.3672 79.0181 93.0667 79.1067 93.7578 79.0295C94.5178 78.9421 94.4912 78.6001 94.4912 78.6001L96.0112 79.9149L95.3614 80.7471L94.1948 80.2113L93.3132 81.1917L91.1016 80.5723Z" fill="white"/>
<path d="M99.5063 87.6826H98.0395C97.9711 87.6852 97.9032 87.6716 97.8412 87.6429C97.7791 87.6142 97.7247 87.5712 97.6825 87.5175C97.6402 87.4638 97.6113 87.4008 97.5981 87.3337C97.5848 87.2667 97.5876 87.1974 97.6063 87.1316L98.4195 83.286C98.455 83.1342 98.5392 82.9982 98.6593 82.8987C98.7793 82.7992 98.9287 82.7417 99.0845 82.735H100.559C100.627 82.7331 100.694 82.7471 100.756 82.7761C100.817 82.8051 100.871 82.8481 100.913 82.9018C100.955 82.9554 100.984 83.0182 100.997 83.0849C101.01 83.1517 101.007 83.2206 100.988 83.286L100.171 87.1392C100.134 87.2897 100.049 87.424 99.9295 87.522C99.8096 87.62 99.661 87.6764 99.5063 87.6826Z" fill="#3B5998"/>
<path opacity="0.3" d="M99.5063 87.6826H98.0395C97.9711 87.6852 97.9032 87.6716 97.8412 87.6429C97.7791 87.6142 97.7247 87.5712 97.6825 87.5175C97.6402 87.4638 97.6113 87.4008 97.5981 87.3337C97.5848 87.2667 97.5876 87.1974 97.6063 87.1316L98.4195 83.286C98.455 83.1342 98.5392 82.9982 98.6593 82.8987C98.7793 82.7992 98.9287 82.7417 99.0845 82.735H100.559C100.627 82.7331 100.694 82.7471 100.756 82.7761C100.817 82.8051 100.871 82.8481 100.913 82.9018C100.955 82.9554 100.984 83.0182 100.997 83.0849C101.01 83.1517 101.007 83.2206 100.988 83.286L100.171 87.1392C100.134 87.2897 100.049 87.424 99.9295 87.522C99.8096 87.62 99.661 87.6764 99.5063 87.6826Z" fill="white"/>
<path d="M99.7249 87.6826H98.2543C98.186 87.6852 98.118 87.6716 98.056 87.6429C97.994 87.6142 97.9396 87.5712 97.8973 87.5175C97.8551 87.4638 97.8262 87.4008 97.8129 87.3337C97.7997 87.2667 97.8025 87.1974 97.8211 87.1316L98.6381 83.286C98.6736 83.1342 98.7578 82.9982 98.8779 82.8987C98.998 82.7992 99.1473 82.7417 99.3031 82.735H100.778C100.845 82.7331 100.913 82.7471 100.975 82.7761C101.036 82.8051 101.09 82.8481 101.132 82.9018C101.174 82.9554 101.202 83.0182 101.215 83.0849C101.228 83.1517 101.225 83.2206 101.207 83.286L100.39 87.1392C100.353 87.2897 100.268 87.424 100.148 87.522C100.028 87.62 99.8797 87.6764 99.7249 87.6826Z" fill="#3B5998"/>
<path opacity="0.7" d="M99.7249 87.6826H98.2543C98.186 87.6852 98.118 87.6716 98.056 87.6429C97.994 87.6142 97.9396 87.5712 97.8973 87.5175C97.8551 87.4638 97.8262 87.4008 97.8129 87.3337C97.7997 87.2667 97.8025 87.1974 97.8211 87.1316L98.6381 83.286C98.6736 83.1342 98.7578 82.9982 98.8779 82.8987C98.998 82.7992 99.1473 82.7417 99.3031 82.735H100.778C100.845 82.7331 100.913 82.7471 100.975 82.7761C101.036 82.8051 101.09 82.8481 101.132 82.9018C101.174 82.9554 101.202 83.0182 101.215 83.0849C101.228 83.1517 101.225 83.2206 101.207 83.286L100.39 87.1392C100.353 87.2897 100.268 87.424 100.148 87.522C100.028 87.62 99.8797 87.6764 99.7249 87.6826Z" fill="white"/>
<path d="M99.1377 83.8774H99.2821C99.3876 83.8715 99.4882 83.8311 99.5685 83.7625C99.6488 83.6938 99.7044 83.6007 99.7267 83.4974L99.7571 83.353C99.772 83.3084 99.7758 83.2608 99.7681 83.2144C99.7605 83.168 99.7416 83.1242 99.7131 83.0867C99.6847 83.0493 99.6475 83.0193 99.6048 82.9995C99.5621 82.9797 99.5153 82.9706 99.4683 82.973H99.3239C99.2184 82.979 99.1178 83.0194 99.0375 83.088C98.9572 83.1567 98.9016 83.2498 98.8793 83.353L98.8489 83.4974C98.834 83.5421 98.8302 83.5896 98.8378 83.6361C98.8455 83.6825 98.8644 83.7263 98.8929 83.7638C98.9213 83.8012 98.9585 83.8312 99.0012 83.851C99.0438 83.8708 99.0907 83.8799 99.1377 83.8774Z" fill="#3B5998"/>
<path d="M99.4908 83.2141C99.4822 83.2564 99.4594 83.2945 99.4263 83.3221C99.3931 83.3498 99.3516 83.3653 99.3084 83.3661C99.2893 83.3676 99.2701 83.3644 99.2525 83.3567C99.2349 83.3491 99.2194 83.3372 99.2075 83.3223C99.1955 83.3073 99.1873 83.2896 99.1837 83.2707C99.1801 83.2519 99.1812 83.2325 99.1868 83.2141C99.1974 83.1721 99.2212 83.1347 99.2548 83.1073C99.2883 83.0799 99.3298 83.0641 99.373 83.0621C99.3918 83.0613 99.4106 83.065 99.4277 83.0729C99.4448 83.0809 99.4597 83.0928 99.4712 83.1077C99.4828 83.1225 99.4906 83.14 99.494 83.1585C99.4974 83.177 99.4963 83.1961 99.4908 83.2141Z" fill="#263238"/>
<path d="M99.3996 83.655C99.389 83.697 99.3652 83.7344 99.3316 83.7618C99.2981 83.7892 99.2566 83.805 99.2134 83.807C99.1945 83.8076 99.1757 83.8038 99.1586 83.7959C99.1414 83.788 99.1263 83.7762 99.1145 83.7614C99.1027 83.7467 99.0945 83.7294 99.0906 83.7109C99.0866 83.6924 99.087 83.6733 99.0918 83.655C99.1023 83.613 99.1262 83.5756 99.1597 83.5482C99.1933 83.5208 99.2347 83.5049 99.278 83.503C99.2969 83.5024 99.3156 83.5062 99.3328 83.5141C99.3499 83.522 99.365 83.5338 99.3768 83.5486C99.3886 83.5633 99.3968 83.5806 99.4008 83.5991C99.4047 83.6176 99.4043 83.6367 99.3996 83.655Z" fill="#263238"/>
<path d="M103.62 89.2812L101.557 87.689C101.557 87.689 100.751 85.9334 100.192 85.713C100.043 85.6688 99.8846 85.6714 99.7371 85.7203C99.5897 85.7692 99.4608 85.8621 99.3678 85.9866C99.041 86.3894 99.0068 87.6624 99.3374 88.0652C99.668 88.468 100.675 88.734 100.675 88.734L102.605 90.7442L103.62 89.2812Z" fill="#FFC3BD"/>
<path d="M104.118 91.0475C103.156 91.9519 102.191 90.8423 101.207 89.7251C101.515 89.5775 101.788 89.3654 102.007 89.1032C102.226 88.8409 102.386 88.5346 102.476 88.2051C102.476 88.2051 105.383 89.8619 104.118 91.0475Z" fill="#263238"/>
<path opacity="0.7" d="M101.211 89.7237L101.496 90.0467C102.13 89.6966 102.607 89.1176 102.83 88.4279C102.625 88.2873 102.48 88.2075 102.48 88.2075C102.389 88.5364 102.229 88.8419 102.01 89.1035C101.791 89.3651 101.519 89.5766 101.211 89.7237Z" fill="white"/>
<path d="M94.7051 89.2812L96.7685 87.689C96.7685 87.689 97.5741 85.9334 98.1327 85.713C98.2816 85.6688 98.4405 85.6714 98.5879 85.7203C98.7354 85.7692 98.8643 85.8621 98.9573 85.9866C99.2841 86.3894 99.3183 87.6624 98.9877 88.0652C98.6571 88.468 97.6501 88.734 97.6501 88.734L95.7197 90.7442L94.7051 89.2812Z" fill="#FFC3BD"/>
<path d="M87.3095 87.3371C86.9789 86.0261 86.6103 82.7429 87.8795 81.6979C89.1487 80.6529 89.8783 83.5105 90.3799 85.7107C90.8815 87.9109 91.1399 90.8597 92.2609 90.4037C93.2739 89.8975 94.2414 89.3051 95.1527 88.6329L96.4409 90.4493C96.4409 90.4493 92.5079 94.9827 90.7789 93.6451C89.0499 92.3075 87.7313 88.9977 87.3095 87.3371Z" fill="#263238"/>
<path opacity="0.7" d="M94.6738 88.9748L95.9962 90.9318C96.2736 90.643 96.4408 90.4492 96.4408 90.4492L95.1526 88.6328C95.1526 88.6328 94.9626 88.7734 94.6738 88.9748Z" fill="white"/>
</g>
<defs>
<clipPath id="clip0_405_7585">
<rect width="190" height="190" fill="white" transform="translate(0 -28)"/>
</clipPath>
</defs>
</svg>
