<svg width="124" height="133" viewBox="0 0 124 133" fill="none" xmlns="http://www.w3.org/2000/svg">
<path opacity="0.38" d="M60.3028 0.878518C94.4626 2.7213 95.93 39.4405 92.2444 53.7391C88.5589 68.0718 116.474 71.3479 119.784 94.8605C123.094 118.373 101.424 128.269 85.9994 128.645C70.5747 129.02 58.4601 119.84 55.9006 108.442C53.3412 97.0445 46.0042 91.5503 33.1389 89.3662C20.2735 87.1481 -2.82955 69.9146 1.19727 47.4941C1.19727 47.4941 2.15279 23.6744 24.5051 7.84014C39.5545 -2.80705 60.3028 0.878518 60.3028 0.878518Z" fill="#E2E7FF"/>
<path d="M38.2217 57.153C38.2217 57.153 37.3003 45.2773 40.7812 37.3942C42.1803 35.5173 43.1017 36.234 43.1017 36.234C43.1017 36.234 43.5795 41.1139 42.4192 45.755C41.2589 50.3961 40.5423 59.4735 40.5423 59.4735L38.2217 57.153Z" fill="#61A27D"/>
<path d="M37.5047 56.1977C37.5047 56.1977 37.2659 50.6011 31.4645 45.7211C25.6631 40.8753 24.4688 40.8753 24.4688 40.8753C24.4688 40.8753 29.1098 40.6364 32.3859 42.7522C35.6278 44.8339 36.7881 50.6693 37.027 51.5907C37.2659 52.5121 38.665 56.2318 38.665 56.2318H37.5047V56.1977Z" fill="#578B71"/>
<path d="M41.2931 57.0523C41.2931 57.0523 42.3851 51.5581 48.869 47.6336C55.3528 43.7092 56.5131 43.8798 56.5131 43.8798C56.5131 43.8798 51.9403 42.9243 48.4253 44.4941C44.8763 46.0639 42.8287 51.6263 42.4534 52.5136C42.078 53.4009 40.1328 56.8475 40.1328 56.8475L41.2931 57.0523Z" fill="#578B71"/>
<path d="M38.6655 56.1982C38.6655 56.1982 32.6253 36.2006 27.2676 31.5595C27.5065 30.877 33.7856 32.9586 35.6284 38.0775C37.5053 43.1963 37.9489 50.8746 38.6655 52.9562C39.348 55.0379 40.3036 56.9148 40.3036 56.9148" fill="#7CC97D"/>
<path d="M38.2207 57.1536C38.2207 57.1536 40.5412 46.2334 46.5815 42.5137C47.0592 43.9128 40.3024 55.3108 40.9849 60.4296C41.7015 65.5143 38.2207 57.1536 38.2207 57.1536Z" fill="#7CC97D"/>
<path d="M34.8781 69.4727H43.819C44.365 65.753 44.8428 62.3745 44.911 61.1119C45.0817 58.4842 44.1944 56.2319 43.7508 55.3105H34.9122C34.4686 56.2319 33.5813 58.4842 33.752 61.1119C33.8885 62.3745 34.3321 65.7189 34.8781 69.4727Z" fill="#A9A7E7"/>
<path d="M116.334 47.1875H99.9199V69.3691H116.334V47.1875Z" fill="#24ADB2"/>
<path d="M114.662 47.1875H98.248V69.3691H114.662V47.1875Z" fill="#26C6DA"/>
<path d="M110.569 44.9336H94.1543V69.3675H110.569V44.9336Z" fill="#FFAD32"/>
<path d="M108.862 44.9336H90.0586V69.3675H108.862V44.9336Z" fill="#FFAD32"/>
<path d="M108.862 44.9336H105.654V69.3675H108.862V44.9336Z" fill="url(#paint0_linear_398_6371)"/>
<path d="M14.9491 51.043C14.9491 51.043 12.3897 52.3397 11.2636 56.0253C10.1374 59.7109 16.2459 69.7097 16.2459 69.1978C16.2459 68.72 22.3544 65.99 22.3544 65.99L19.2831 54.7285L14.9491 51.043Z" fill="#273660"/>
<path d="M79.2097 70.5629L75.8313 61.5879H67.334L70.7124 70.5629" fill="#4F57A0"/>
<path d="M48.3945 63.3649H96.6823L97.5354 58.8262H49.2477" fill="#E2E7FF"/>
<path d="M53.5138 35.9276L49.248 58.86H97.5358L101.699 36.4736C101.87 35.5864 101.187 34.7673 100.266 34.7673H54.947C54.2304 34.7332 53.6503 35.211 53.5138 35.9276Z" fill="#243FA7"/>
<path d="M77.2971 67.3217L90.0942 57.8006L77.536 57.084L65.7285 66.2296L77.2971 67.3217Z" fill="white"/>
<path d="M73.7132 64.251L76.921 62.4765C76.921 62.4765 80.0265 61.1797 80.1288 61.1797C80.2312 61.1797 80.5042 61.4868 80.163 62.1011C79.8217 62.7153 78.9686 62.886 78.9686 62.886L78.3884 64.4899L81.3574 64.0804L82.0399 63.9097C82.0399 63.9097 81.5621 65.1041 81.3574 65.4113C81.1526 65.6843 80.0265 66.4009 80.0265 66.4009C80.0265 66.4009 77.9107 68.1754 77.1258 68.3802C76.3409 68.5849 73.7132 68.6873 73.7132 68.6873L72.0411 68.6532L70.4713 68.9603C70.4713 68.9603 69.6523 67.4588 69.7888 65.3771L73.7132 64.251Z" fill="#FF8D68"/>
<path d="M92.7891 71.6216L102.105 132.433H104.358L98.2492 71.3145L92.7891 71.6216Z" fill="#E2E7FF"/>
<path d="M111.764 71.6216L121.08 132.433H123.332L117.224 71.3145L111.764 71.6216Z" fill="#E2E7FF"/>
<path d="M57.0608 71.6216L47.7445 132.433H45.4922L51.6007 71.3145L57.0608 71.6216Z" fill="#C2D3EB"/>
<path d="M38.0862 71.6216L28.7699 132.433H26.5176L32.6261 71.3145L38.0862 71.6216Z" fill="#C2D3EB"/>
<path d="M118.521 70.9727H34.5723V73.8733H118.521V70.9727Z" fill="#A9A7E7"/>
<path d="M120.125 72.2703H37.1312C36.244 72.2703 35.5273 71.5537 35.5273 70.6664C35.5273 69.7791 36.244 69.0625 37.1312 69.0625H120.125C121.012 69.0625 121.729 69.7791 121.729 70.6664C121.729 71.5537 121.012 72.2703 120.125 72.2703Z" fill="#FFC757"/>
<path d="M39.8943 126.324C39.8943 126.324 40.4061 125.027 42.6243 125.266C44.8425 125.505 45.1155 125.914 45.4226 126.972C45.7297 128.064 46.5488 129.19 47.0606 129.429C47.5725 129.668 49.4836 130.828 51.0192 130.999C52.5549 131.169 52.7596 132.091 52.4525 132.534C52.1454 132.978 46.4123 133.592 45.1496 133.49C45.1496 133.49 40.8498 133.626 39.826 133.319C38.8022 133.046 39.8601 126.733 39.8943 126.324Z" fill="#201360"/>
<path d="M40.5078 117.043L39.8594 127.11C39.8594 127.11 41.4292 127.622 42.6236 128.509C44.3981 129.806 45.8314 128.236 45.8314 128.236L46.2409 121.889L40.5078 117.043Z" fill="#FF8D68"/>
<path d="M53.306 99.298L46.788 127.281C46.788 127.281 43.4095 127.759 39.3145 125.848C39.3145 125.848 42.9318 99.5369 43.1707 97.8648C43.4095 96.1585 52.8282 97.8306 53.306 99.298Z" fill="#273660"/>
<path d="M26.8926 26.8834C26.8926 26.8834 29.5544 27.3953 31.329 31.3197C33.1035 35.2442 32.6599 43.9121 31.7385 44.97C30.8171 46.062 27.7799 45.8572 23.4801 44.7652C18.9755 43.6049 17.1668 39.1004 16.1772 36.1314C14.3003 30.4325 18.9414 24.1192 26.8926 26.8834Z" fill="#FF8D68"/>
<path d="M19.4531 49.952L20.9888 42.5809C20.9888 42.5809 24.9474 41.1476 27.6433 43.6729L28.5647 44.7991L28.8718 49.5084C28.9059 49.4743 24.7426 50.6004 19.4531 49.952Z" fill="#FF8D68"/>
<path d="M19.3849 95.2369C19.3849 95.2369 28.0187 97.7622 38.2222 97.4209C48.4599 97.0797 49.7908 94.179 50.1321 91.4148C50.4392 88.6507 42.4879 86.9785 39.0412 86.0571C35.5946 85.1357 23.753 81.7573 20.5451 85.204C17.3373 88.6507 16.5866 92.8822 19.3849 95.2369Z" fill="#201360"/>
<path d="M63.7825 126.326C63.7825 126.326 64.2944 125.029 66.5125 125.268C68.7307 125.507 69.0037 125.916 69.3108 126.974C69.618 128.066 70.437 129.192 70.9489 129.431C71.4608 129.67 73.3718 130.83 74.9074 131.001C76.4431 131.171 76.6479 132.093 76.3407 132.536C76.0336 132.98 70.3005 133.594 69.0378 133.492C69.0378 133.492 64.738 133.628 63.7142 133.321C62.6905 133.048 63.7142 126.735 63.7825 126.326Z" fill="#201360"/>
<path d="M61.2578 117.793L63.6807 127.587C63.6807 127.587 65.6259 127.109 66.752 128.065C67.8782 129.02 69.9598 128.372 69.9598 128.372L68.1853 120.66L61.2578 117.793Z" fill="#FF8D68"/>
<path d="M41.3285 84.9648C41.8063 84.9648 58.2207 90.4249 61.4285 92.8479C64.6363 95.4073 69.7893 124.073 70.0964 124.721C70.4036 125.37 65.4212 127.144 62.2134 126.666C62.0428 126.018 54.501 101.857 54.501 100.253C54.501 100.253 41.6357 99.6047 36.1756 98.6492C30.7155 97.6937 26.9958 97.5231 24.7435 91.5852C22.4912 85.6474 35.6637 85.1355 35.6637 85.1355L41.3285 84.9648Z" fill="#273660"/>
<path d="M69.3789 63.8404C69.3789 63.8404 72.5185 63.7722 72.7573 64.0793C72.9962 64.3865 74.1224 67.2871 73.0645 68.5157C72.1772 69.164 72.1772 69.164 72.1772 69.164H69.4472L69.3789 63.8404Z" fill="#E2E7FF"/>
<path d="M18.9082 48.8606L19.7613 46.6766C19.7613 46.6766 24.8119 45.1068 29.18 47.052C30.272 48.144 30.8522 49.8161 30.8522 49.8161L18.9082 48.8606Z" fill="#E2E7FF"/>
<path d="M17.8152 49.1319C17.8152 49.1319 18.4636 48.0058 19.5898 47.8352C20.7159 47.6645 25.8689 47.0161 29.2473 48.0058C30.5441 48.4835 31.1925 49.1319 31.1925 49.1319C31.1925 49.1319 36.0042 50.7358 37.6422 51.6913C39.2461 52.6469 39.7239 60.0521 40.0651 62.475C40.3723 64.898 39.4168 67.4574 39.4168 67.4574C39.4168 67.4574 43.2729 83.2234 43.2729 85.4757C43.2729 87.728 41.9762 90.2874 37.4716 91.9254C32.967 93.5294 20.75 92.881 16.5526 90.3215C15.2558 87.7621 13.3448 57.1856 13.0035 54.2849C12.6964 51.3501 17.8152 49.1319 17.8152 49.1319Z" fill="#273660"/>
<path d="M34.9468 51.0437C34.9468 51.0437 36.1412 50.3271 39.0418 52.2381C41.9425 54.1833 49.8938 61.4179 50.8493 61.8957C51.8048 62.3734 70.4033 63.329 70.4033 63.329C70.4033 63.329 73.0651 66.7074 70.1644 69.3692C70.1644 69.3692 52.2485 70.0858 48.87 69.8469C45.4916 69.6081 34.2301 63.0901 34.2301 63.0901C34.2301 63.0901 29.6573 56.3673 34.9468 51.0437Z" fill="#273660"/>
<path d="M31.0898 61.6895C31.0898 61.6895 46.1392 69.5725 47.8796 69.8455C49.6201 70.0844 56.2746 69.8455 56.2746 69.8455" stroke="#4B4B4B" stroke-width="0.28198" stroke-miterlimit="10"/>
<path d="M51.3935 63.7031C51.3935 63.7031 51.9054 66.4673 50.1309 68.1053" stroke="#4B4B4B" stroke-width="0.28198" stroke-miterlimit="10"/>
<path d="M52.5195 62.9531C52.5195 62.9531 54.0211 65.3419 53.2703 67.0823" stroke="#4B4B4B" stroke-width="0.28198" stroke-miterlimit="10"/>
<path d="M30.9529 58.552C30.9529 58.552 29.6903 54.1498 34.0925 51.2832" stroke="#4B4B4B" stroke-width="0.28198" stroke-miterlimit="10"/>
<path d="M14.8111 54.4219C14.8111 54.4219 13.9238 62.2025 13.9238 65.8198" stroke="#4B4B4B" stroke-width="0.28198" stroke-miterlimit="10"/>
<path d="M19.3164 49.2685C19.3164 49.2685 25.0836 48.7566 29.8271 49.2685" stroke="#4B4B4B" stroke-width="0.28198" stroke-miterlimit="10"/>
<path d="M57.0234 99.7741C57.0234 99.7741 59.7876 98.8868 60.7773 94.6211" stroke="#4B4B4B" stroke-width="0.28198" stroke-miterlimit="10"/>
<path d="M58.9004 100.151C58.9004 100.151 60.5384 99.639 61.2892 97.3867" stroke="#4B4B4B" stroke-width="0.28198" stroke-miterlimit="10"/>
<path d="M48.9016 105.064L44.7383 125.745" stroke="#4B4B4B" stroke-width="0.28198" stroke-miterlimit="10"/>
<path d="M30.75 32.1045C30.75 32.1045 31.2278 34.2886 29.3168 35.7219L29.4533 38.1448C29.4533 38.1448 30.1699 40.3288 29.6922 40.5677C29.2144 40.8066 29.0779 40.4312 29.0779 40.4312C29.0779 40.4312 27.5081 37.9059 27.0304 37.7694C26.5526 37.6329 28.1224 41.1478 28.1224 41.1478C28.1224 41.1478 26.5526 43.5708 23.6519 43.912L24.2662 43.0589C24.2662 43.0589 22.9353 43.912 20.8877 43.7755C18.8402 43.639 17.2704 40.5336 17.2704 40.5336C17.2704 40.5336 17.6458 41.3867 17.2704 41.728C16.895 42.1034 14.8475 38.9638 14.7451 34.9711L14.1309 36.1655C14.1309 36.1655 14.2674 33.4013 15.3253 30.2618C16.4173 27.1222 21.229 24.8358 23.8908 24.8358C26.5526 24.8358 29.2144 25.0747 29.931 24.8358C30.6477 24.5969 30.3064 26.6445 30.3064 26.6445C30.3064 26.6445 30.6818 25.7913 30.7842 25.0747C31.2619 24.6993 31.9786 27.6 31.7397 28.692C31.5008 29.784 31.5008 29.784 31.5008 29.784C31.5008 29.784 32.354 28.692 32.4563 28.1119C32.9 28.0095 32.7976 30.6713 30.75 32.1045Z" fill="#201360"/>
<path d="M28.9745 38.1102C28.9745 38.1102 28.4967 36.5063 27.1658 37.3594C25.8349 38.2125 27.7118 42.0005 28.838 41.6933C29.9641 41.3521 29.2816 38.7244 28.9745 38.1102Z" fill="#FF634D"/>
<path d="M77.9453 66.0922L81.3579 65.4097L82.0404 63.9082" stroke="#E66657" stroke-width="0.436979" stroke-miterlimit="10"/>
<path d="M81.2203 65.4785C81.2203 65.4785 79.4799 66.9118 79.2411 67.0483C79.0022 67.1848 77.9102 67.4578 77.9102 67.4578" stroke="#E66657" stroke-width="0.436979" stroke-miterlimit="10"/>
<path d="M28.4629 42.2051C28.4629 42.2051 27.9852 43.8772 30.8858 44.8669" stroke="#E66657" stroke-width="0.436979" stroke-miterlimit="10"/>
<path d="M94.3928 54.8993H68.6621L71.8699 38.1777H97.6006L94.3928 54.8993Z" fill="#2E60BE"/>
<path d="M60.3705 43.9776C60.2681 44.4553 60.6435 44.8989 61.1212 44.8989H89.1384C89.5137 44.8989 89.8209 44.6259 89.8891 44.2847L90.2986 42.1348H60.7117L60.3705 43.9776Z" fill="#26C6F8"/>
<path d="M92.5512 25.6523H64.534C64.1587 25.6523 63.8515 25.9253 63.7833 26.2666L60.7461 42.1009H90.333L93.3361 26.5737C93.4043 26.096 93.0631 25.6523 92.5512 25.6523Z" fill="#CAE5FF"/>
<path d="M73.4063 44.9C73.7817 43.8762 73.9864 43.1596 73.9864 43.1596C73.9864 43.1596 74.8396 38.7574 71.0516 39.8835C71.0516 39.8835 69.7548 40.8732 69.1406 42.9207C68.9358 43.5691 68.7311 44.2516 68.4922 44.9H73.4063Z" fill="#387AB6"/>
<path d="M81.2209 44.9013C81.1526 42.7173 81.0161 40.9768 80.7772 40.4991C80.0947 39.2364 77.2623 38.0762 77.2623 38.0762L73.4061 38.6563C73.4061 38.6563 71.8022 39.1341 71.2903 40.2602C71.1197 40.6356 70.7102 42.5466 70.2324 44.9013H81.2209Z" fill="#DCE4FF"/>
<path d="M74.0554 35.4812C74.0554 35.4812 73.8165 37.2216 73.3046 38.4843C73.3046 38.4843 73.1681 39.4739 75.2157 39.0303C77.2632 38.6208 76.9902 37.597 76.9902 37.597V33.502L74.0554 35.4812Z" fill="#FF8D68"/>
<path d="M71.1541 31.2161C71.1541 31.2161 71.1882 35.0723 72.2802 36.9492C73.031 37.7341 75.6245 36.5055 76.6824 34.8334C77.7744 33.1612 77.7403 30.6701 76.8872 29.2709C76.034 27.8718 73.2016 28.3154 72.3826 28.7931C71.5977 29.2709 71.1199 30.6018 71.1541 31.2161Z" fill="#FF8D68"/>
<path d="M76.375 33.3996C76.375 33.3996 77.0916 32.2734 77.6035 32.956C78.0813 33.6385 76.4091 35.0035 76.2726 34.4575C76.1361 33.9456 76.375 33.3996 76.375 33.3996Z" fill="#FBA894"/>
<path d="M71.1543 31.2158C71.1543 31.2158 69.7893 30.0214 71.4273 28.4858C72.3487 27.7691 72.8265 28.3151 73.8161 28.1104C74.8057 27.9398 76.5803 28.1104 77.2287 29.1341C77.8771 30.1579 77.6382 32.5467 77.4675 32.7856C77.2969 33.0245 76.7168 33.161 76.7168 33.5705C76.7168 33.98 76.6144 34.3212 76.4779 34.3212C76.3414 34.3212 76.3414 33.6046 76.3414 33.0927C76.3414 32.5808 76.239 31.5912 76.0001 30.9087C75.7613 30.192 74.7034 30.2603 74.2597 30.3627C73.8844 30.4309 73.6114 31.5229 71.1543 31.2158Z" fill="#713336"/>
<path opacity="0.53" d="M76.2383 32.3759C76.2383 32.3759 76.2724 32.3759 76.3065 32.3418L76.2383 32.3759Z" fill="#505E83"/>
<path d="M76.3421 32.3421C76.3421 32.4103 76.581 34.6626 75.6937 35.2769C74.7723 35.8911 74.7382 35.1062 73.9874 35.0039C73.2708 34.9015 72.6565 34.9356 72.3494 35.4134C72.0764 35.8911 72.1105 36.0959 71.8375 35.9594C71.7692 36.13 72.1788 37.0514 72.793 37.2903C73.4073 37.5292 74.8747 36.7784 75.5231 36.1983C76.1714 35.6181 76.581 35.2427 76.6833 34.765C76.7857 34.2531 76.7516 33.2976 76.8881 32.6492C76.9905 32.1032 76.5127 32.2397 76.3421 32.3421ZM72.9636 36.4713C72.0764 36.2665 72.1788 35.584 73.1001 35.311C73.1001 35.311 74.0557 34.8674 74.3969 35.5499C74.5334 35.9594 73.8509 36.6419 72.9636 36.4713Z" fill="#713336"/>
<path d="M76.9902 37.291C76.9902 37.291 75.864 38.6902 74.0212 38.8608C73.6458 38.7243 73.4411 38.0418 73.4411 38.0418L73.1681 38.4854C73.1681 38.4854 73.0316 39.3386 73.1681 39.6798C73.3387 39.7139 73.9871 39.2703 73.9871 39.2703C73.9871 39.2703 74.4307 39.8846 74.7379 39.9869C75.045 40.0893 77.0584 38.7584 77.2632 38.0759C77.2632 38.0759 77.229 37.6323 76.9902 37.291Z" fill="white"/>
<path d="M81.4942 44.9013C81.3918 42.7514 81.2553 41.1133 81.153 40.7721C80.6752 39.6801 78.9689 38.3151 77.2626 38.0762C77.2626 38.0762 76.6143 41.0451 76 44.9013H81.4942Z" fill="#387AB6"/>
<path d="M71.5634 44.8995C72.4848 41.0433 73.1673 38.791 73.1673 38.791C72.6554 38.8593 71.734 39.2688 71.0856 39.883C70.7444 40.5655 70.1984 42.5448 69.6523 44.8995H71.5634Z" fill="#387AB6"/>
<path d="M81.1524 44.9006C81.2207 42.8531 81.0842 40.9421 80.777 40.4984C79.685 39.577 78.5248 39.6453 77.9446 40.6691C77.6375 41.2492 77.228 43.2285 76.8867 44.9006H81.1524Z" fill="#387AB6"/>
<path d="M73.9528 39.2695C73.6115 40.6004 73.3385 41.9313 73.0996 43.2964" stroke="#87B8EB" stroke-width="0.122682" stroke-miterlimit="10"/>
<path d="M95.1155 28.7084C97.8281 26.3132 98.5101 22.6537 96.6388 20.5345C94.7676 18.4153 91.0517 18.6391 88.3392 21.0342C85.6267 23.4294 84.9447 27.089 86.8159 29.2082C88.6871 31.3273 92.403 31.1036 95.1155 28.7084Z" fill="#273660"/>
<path d="M98.6913 31.0815C98.4865 31.9688 97.5992 32.6513 96.712 32.6513C95.8247 32.6513 95.3128 31.9346 95.5176 31.0815C95.7223 30.1942 96.6096 29.5117 97.4969 29.5117C98.3841 29.5117 98.896 30.2284 98.6913 31.0815Z" fill="#6787FF"/>
<path d="M90.2279 27.8044C90.0573 27.8044 89.8867 27.7361 89.7843 27.5996L88.2828 25.6203C88.078 25.3473 88.1804 24.9037 88.5217 24.5966C88.8629 24.3236 89.3066 24.3236 89.5454 24.5966L90.6716 26.0981L94.6643 22.8903C95.0055 22.6173 95.4492 22.6173 95.688 22.8903C95.8928 23.1633 95.7904 23.6069 95.4492 23.9141L90.8081 27.6338C90.6033 27.7361 90.3986 27.8044 90.2279 27.8044Z" fill="white"/>
<path d="M49.1765 15.213H47.2655C46.7877 15.213 46.5147 14.8376 46.6171 14.3599L47.0949 12.4488C47.1972 11.9711 47.7091 11.5957 48.1869 11.5957H50.0979C50.5757 11.5957 50.8487 11.9711 50.7463 12.4488L50.2685 14.3599C50.132 14.8376 49.6543 15.213 49.1765 15.213Z" fill="#BFD9FF"/>
<path d="M47.7781 20.7755H45.8671C45.3893 20.7755 45.1163 20.4001 45.2187 19.9224L45.6964 18.0113C45.7988 17.5336 46.3107 17.1582 46.7884 17.1582H48.6995C49.1772 17.1582 49.4502 17.5336 49.3479 18.0113L48.8701 19.9224C48.7336 20.4001 48.2558 20.7755 47.7781 20.7755Z" stroke="#A9A7E7" stroke-width="0.255942" stroke-miterlimit="10"/>
<path d="M53.8171 20.7755H51.9061C51.4283 20.7755 51.1553 20.4001 51.2577 19.9224L51.7355 18.0113C51.8379 17.5336 52.3497 17.1582 52.8275 17.1582H54.7385C55.2163 17.1582 55.4893 17.5336 55.3869 18.0113L54.9092 19.9224C54.7727 20.4001 54.2949 20.7755 53.8171 20.7755Z" fill="#26C6DA"/>
<path d="M59.825 20.7755H57.9139C57.4362 20.7755 57.1632 20.4001 57.2655 19.9224L57.7433 18.0113C57.8457 17.5336 58.3576 17.1582 58.8353 17.1582H60.7463C61.2241 17.1582 61.4971 17.5336 61.3947 18.0113L60.917 19.9224C60.7805 20.4001 60.3027 20.7755 59.825 20.7755Z" fill="white"/>
<path d="M46.3777 26.4747H44.4667C43.9889 26.4747 43.7159 26.0994 43.8183 25.6216L44.296 23.7106C44.3984 23.2328 44.9103 22.8574 45.388 22.8574H47.2991C47.7768 22.8574 48.0498 23.2328 47.9475 23.7106L47.4697 25.6216C47.3332 26.0652 46.8555 26.4747 46.3777 26.4747Z" fill="#26C6DA"/>
<path d="M44.8425 32.5138H42.9315C42.4537 32.5138 42.1807 32.1384 42.2831 31.6607L42.7609 29.7496C42.8632 29.2719 43.3751 28.8965 43.8529 28.8965H45.7639C46.2417 28.8965 46.5147 29.2719 46.4123 29.7496L45.9346 31.6607C45.7981 32.1384 45.3203 32.5138 44.8425 32.5138Z" fill="white"/>
<path d="M52.3836 26.4747H50.4725C49.9948 26.4747 49.7218 26.0994 49.8241 25.6216L50.3019 23.7106C50.4043 23.2328 50.9162 22.8574 51.3939 22.8574H53.3049C53.7827 22.8574 54.0557 23.2328 53.9533 23.7106L53.4756 25.6216C53.3391 26.0652 52.8613 26.4747 52.3836 26.4747Z" fill="#EDF4FF"/>
<path d="M49.7566 37.0529H47.8456C47.3678 37.0529 47.0948 36.6775 47.1972 36.1997L47.6749 34.2887C47.7773 33.8109 48.2892 33.4355 48.767 33.4355H50.678C51.1557 33.4355 51.4288 33.8109 51.3264 34.2887L50.8486 36.1997C50.7121 36.6775 50.2344 37.0529 49.7566 37.0529Z" stroke="#A9A7E7" stroke-width="0.255942" stroke-miterlimit="10"/>
<path d="M106.746 29.6796H106.064C105.893 29.6796 105.791 29.5431 105.825 29.3725L105.996 28.6899C106.03 28.5193 106.2 28.3828 106.405 28.3828H107.088C107.258 28.3828 107.361 28.5193 107.326 28.6899L107.156 29.3725C107.088 29.5431 106.917 29.6796 106.746 29.6796Z" fill="#CAE5FF"/>
<path d="M106.233 31.7284H105.55C105.379 31.7284 105.277 31.5919 105.311 31.4213L105.482 30.7388C105.516 30.5681 105.687 30.4316 105.891 30.4316H106.574C106.745 30.4316 106.847 30.5681 106.813 30.7388L106.642 31.4213C106.574 31.5919 106.403 31.7284 106.233 31.7284Z" fill="#CAE5FF"/>
<path d="M108.451 31.7284H107.769C107.598 31.7284 107.496 31.5919 107.53 31.4213L107.701 30.7388C107.735 30.5681 107.905 30.4316 108.11 30.4316H108.793C108.963 30.4316 109.066 30.5681 109.032 30.7388L108.861 31.4213C108.793 31.5919 108.622 31.7284 108.451 31.7284Z" fill="#CAE5FF"/>
<path d="M110.67 31.7284H109.988C109.817 31.7284 109.715 31.5919 109.749 31.4213L109.919 30.7388C109.953 30.5681 110.124 30.4316 110.329 30.4316H111.011C111.182 30.4316 111.284 30.5681 111.25 30.7388L111.08 31.4213C111.011 31.5919 110.841 31.7284 110.67 31.7284Z" fill="#CAE5FF"/>
<path d="M105.721 33.8104H105.038C104.868 33.8104 104.765 33.6739 104.8 33.5033L104.97 32.8208C105.004 32.6502 105.175 32.5137 105.38 32.5137H106.062C106.233 32.5137 106.335 32.6502 106.301 32.8208L106.13 33.5033C106.062 33.6739 105.892 33.8104 105.721 33.8104Z" fill="#CAE5FF"/>
<path d="M105.141 36.0292H104.458C104.288 36.0292 104.185 35.8927 104.219 35.7221L104.39 35.0396C104.424 34.8689 104.595 34.7324 104.8 34.7324H105.482C105.653 34.7324 105.755 34.8689 105.721 35.0396L105.55 35.7221C105.516 35.8927 105.346 36.0292 105.141 36.0292Z" fill="#CAE5FF"/>
<path d="M107.94 33.8104H107.257C107.087 33.8104 106.984 33.6739 107.018 33.5033L107.189 32.8208C107.223 32.6502 107.394 32.5137 107.598 32.5137H108.281C108.452 32.5137 108.554 32.6502 108.52 32.8208L108.349 33.5033C108.281 33.6739 108.11 33.8104 107.94 33.8104Z" fill="#CAE5FF"/>
<path d="M106.949 37.7011H106.267C106.096 37.7011 105.994 37.5646 106.028 37.3939L106.199 36.7114C106.233 36.5408 106.403 36.4043 106.608 36.4043H107.291C107.461 36.4043 107.564 36.5408 107.53 36.7114L107.359 37.3939C107.291 37.5646 107.12 37.7011 106.949 37.7011Z" fill="#CAE5FF"/>
<path opacity="0.9" d="M106.508 56.024H83.6435C83.4047 56.024 83.234 55.7851 83.3023 55.5803L85.4522 47.3902C85.4863 47.2196 85.6569 47.1172 85.7934 47.1172H108.658C108.896 47.1172 109.067 47.3561 108.999 47.5608L106.849 55.751C106.849 55.9216 106.678 56.024 106.508 56.024Z" fill="#BFD9FF"/>
<path d="M86.7852 48.8574H94.7364" stroke="#A9C2FF" stroke-width="0.367192" stroke-miterlimit="10" stroke-linecap="round" stroke-linejoin="round"/>
<path d="M86.1699 52.543H94.1212" stroke="#A9C2FF" stroke-width="0.367192" stroke-miterlimit="10" stroke-linecap="round" stroke-linejoin="round"/>
<path d="M89.5137 51.1426H97.4649" stroke="#A9C2FF" stroke-width="0.367192" stroke-miterlimit="10" stroke-linecap="round" stroke-linejoin="round"/>
<path d="M86.5781 50.0859H88.9669" stroke="#A9C2FF" stroke-width="0.367192" stroke-miterlimit="10" stroke-linecap="round" stroke-linejoin="round"/>
<path d="M86.2715 51.1426H88.6603" stroke="#A9C2FF" stroke-width="0.367192" stroke-miterlimit="10" stroke-linecap="round" stroke-linejoin="round"/>
<path d="M95.998 48.8574H98.8646" stroke="#A9C2FF" stroke-width="0.367192" stroke-miterlimit="10" stroke-linecap="round" stroke-linejoin="round"/>
<path d="M97.3985 54.2497H93.1669C93.1328 54.2497 93.1328 54.2156 93.1328 54.2156L93.3376 53.499C93.3376 53.499 93.3376 53.4648 93.3717 53.4648H97.6033C97.6374 53.4648 97.6374 53.499 97.6374 53.499L97.3985 54.2497ZM97.3985 54.2497C97.4326 54.2497 97.4326 54.2497 97.3985 54.2497Z" stroke="#84AEE5" stroke-width="0.122409" stroke-miterlimit="10"/>
<path d="M92.1427 54.2497H87.9111C87.877 54.2497 87.877 54.2156 87.877 54.2156L88.0817 53.499C88.0817 53.499 88.0817 53.4648 88.1158 53.4648H92.3474C92.3815 53.4648 92.3815 53.499 92.3815 53.499L92.1427 54.2497Z" stroke="#84AEE5" stroke-width="0.122409" stroke-miterlimit="10"/>
<path d="M104.835 53.1921C104.63 52.9191 103.743 52.6802 103.504 52.4072C103.367 52.2707 103.367 51.9977 103.401 51.7588C103.504 51.6906 103.572 51.6564 103.606 51.5882C103.675 51.4858 103.777 51.3152 103.845 51.1787C103.879 51.2128 103.913 51.2128 103.948 51.2128C104.05 51.2128 104.494 50.5985 104.391 50.462C104.323 50.3938 104.221 50.462 104.152 50.5303C104.255 50.2573 104.357 50.0525 104.357 50.0525C104.357 50.0184 104.391 49.9843 104.391 49.9502C104.562 49.2335 104.152 48.6875 103.436 48.6875C102.719 48.6875 102.036 49.2676 101.866 49.9502C101.866 49.9843 101.866 50.0184 101.832 50.0525C101.832 50.0525 101.798 50.2573 101.798 50.5303C101.763 50.462 101.695 50.3938 101.593 50.462C101.422 50.5985 101.559 51.2128 101.661 51.2128C101.695 51.2128 101.729 51.1787 101.798 51.1787C101.798 51.3493 101.798 51.4858 101.832 51.5882C101.866 51.6564 101.9 51.7247 102.002 51.7929C101.9 52.0318 101.798 52.2707 101.593 52.4072C101.217 52.6802 100.228 52.9191 99.8524 53.1921C99.5112 53.4651 99.2382 54.2159 99.1699 54.3524H104.971C104.937 54.2159 105.04 53.4651 104.835 53.1921Z" fill="#387AB6"/>
<path d="M75.5218 53.1254H56.7527C55.1147 53.1254 54.0909 51.7945 54.5005 50.1564C54.91 48.5184 56.5821 47.1875 58.2201 47.1875H76.9892C78.6273 47.1875 79.651 48.5184 79.2415 50.1564C78.832 51.7945 77.1599 53.1254 75.5218 53.1254Z" fill="white"/>
<path d="M58.7299 50.9081L57.9109 51.2835C57.8427 51.3176 57.7744 51.2494 57.8085 51.1811L58.1498 50.3962C58.1498 50.3621 58.1498 50.328 58.1498 50.328L57.7062 49.782C57.672 49.7137 57.7062 49.6455 57.8085 49.6114L58.6275 49.509C58.6617 49.509 58.6958 49.4749 58.6958 49.4749L59.2418 48.7582C59.2759 48.69 59.3783 48.69 59.4124 48.7582L59.5831 49.4749C59.5831 49.509 59.6172 49.509 59.6513 49.509L60.4021 49.6114C60.4703 49.6114 60.4703 49.7137 60.4021 49.782L59.6854 50.328C59.6513 50.3621 59.6513 50.3621 59.6513 50.3962L59.5831 51.1811C59.5831 51.2494 59.4807 51.3176 59.4124 51.2835L58.7982 50.9081C58.7982 50.9081 58.7641 50.9081 58.7299 50.9081Z" fill="#FFA402"/>
<path d="M62.7241 50.9081L61.9051 51.2835C61.8368 51.3176 61.7685 51.2494 61.8027 51.1811L62.1439 50.3962C62.1439 50.3621 62.1439 50.328 62.1439 50.328L61.7003 49.782C61.6662 49.7137 61.7003 49.6455 61.8027 49.6114L62.6217 49.509C62.6558 49.509 62.6899 49.4749 62.6899 49.4749L63.2359 48.7582C63.2701 48.69 63.3725 48.69 63.4066 48.7582L63.5772 49.4749C63.5772 49.509 63.6113 49.509 63.6455 49.509L64.3962 49.6114C64.4645 49.6114 64.4645 49.7137 64.3962 49.782L63.6796 50.328C63.6455 50.3621 63.6455 50.3621 63.6455 50.3962L63.5772 51.1811C63.5772 51.2494 63.4748 51.3176 63.4066 51.2835L62.7923 50.9081C62.7582 50.9081 62.7241 50.9081 62.7241 50.9081Z" fill="#FFA402"/>
<path d="M66.6811 50.9081L65.8621 51.2835C65.7938 51.3176 65.7256 51.2494 65.7597 51.1811L66.101 50.3962C66.101 50.3621 66.101 50.328 66.101 50.328L65.6573 49.782C65.6232 49.7137 65.6573 49.6455 65.7597 49.6114L66.5787 49.509C66.6128 49.509 66.647 49.4749 66.647 49.4749L67.193 48.7582C67.2271 48.69 67.3295 48.69 67.3636 48.7582L67.5342 49.4749C67.5342 49.509 67.5684 49.509 67.6025 49.509L68.3533 49.6114C68.4215 49.6114 68.4215 49.7137 68.3533 49.782L67.6366 50.328C67.6025 50.3621 67.6025 50.3621 67.6025 50.3962L67.5342 51.1811C67.5342 51.2494 67.4319 51.3176 67.3636 51.2835L66.7493 50.9081C66.7152 50.9081 66.6811 50.9081 66.6811 50.9081Z" fill="#FFA402"/>
<path d="M70.642 50.9081L69.823 51.2835C69.7548 51.3176 69.6865 51.2494 69.7206 51.1811L70.0619 50.3962C70.0619 50.3621 70.0619 50.328 70.0619 50.328L69.6183 49.782C69.5841 49.7137 69.6183 49.6455 69.7206 49.6114L70.5397 49.509C70.5738 49.509 70.6079 49.4749 70.6079 49.4749L71.1539 48.7582C71.188 48.69 71.2904 48.69 71.3245 48.7582L71.4952 49.4749C71.4952 49.509 71.5293 49.509 71.5634 49.509L72.3142 49.6114C72.3824 49.6114 72.3824 49.7137 72.3142 49.782L71.5976 50.328C71.5634 50.3621 71.5634 50.3621 71.5634 50.3962L71.4952 51.1811C71.4952 51.2494 71.3928 51.3176 71.3245 51.2835L70.7103 50.9081C70.6762 50.9081 70.6762 50.9081 70.642 50.9081Z" fill="#FFA402"/>
<path d="M74.5991 50.9081L73.7801 51.2835C73.7118 51.3176 73.6435 51.2494 73.6777 51.1811L74.0189 50.3962C74.0189 50.3621 74.0189 50.328 74.0189 50.328L73.5753 49.782C73.5412 49.7137 73.5753 49.6455 73.6777 49.6114L74.4967 49.509C74.5308 49.509 74.5649 49.4749 74.5649 49.4749L75.111 48.7582C75.1451 48.69 75.2475 48.69 75.2816 48.7582L75.4522 49.4749C75.4522 49.509 75.4863 49.509 75.5205 49.509L76.2712 49.6114C76.3395 49.6114 76.3395 49.7137 76.2712 49.782L75.5546 50.328C75.5205 50.3621 75.5205 50.3621 75.5205 50.3962L75.4522 51.1811C75.4522 51.2494 75.3498 51.3176 75.2816 51.2835L74.6673 50.9081C74.6673 50.9081 74.6332 50.9081 74.5991 50.9081Z" fill="#C2D4D9"/>
<path d="M29.3853 41.5908C30.2334 41.5908 30.9209 40.6283 30.9209 39.4409C30.9209 38.2536 30.2334 37.291 29.3853 37.291C28.5371 37.291 27.8496 38.2536 27.8496 39.4409C27.8496 40.6283 28.5371 41.5908 29.3853 41.5908Z" fill="#273660"/>
<path d="M29.625 39.6465C29.625 39.6465 33.959 44.4241 33.959 45.209C33.959 45.9597 32.5598 45.8573 32.5598 45.8573" stroke="#273660" stroke-width="0.375996" stroke-miterlimit="10"/>
<path d="M32.8653 45.8223C32.8653 46.1295 32.6265 46.4025 32.2852 46.4025C31.9781 46.4025 31.7051 46.1636 31.7051 45.8223C31.7051 45.5152 31.944 45.2422 32.2852 45.2422C32.6265 45.2763 32.8653 45.5152 32.8653 45.8223Z" fill="#273660"/>
<path d="M33.9917 106.361C31.1602 106.361 28.5536 105.886 26.4685 105.084C24.519 104.335 23.043 103.306 22.2528 102.13H45.7283C44.9374 103.291 43.4621 104.319 41.5145 105.072C39.4293 105.878 36.8228 106.361 33.9917 106.361Z" fill="#4F57A0" stroke="#E6E6E6" stroke-width="0.341256"/>
<path d="M51.583 88.8397L54.2843 88.5395L51.4631 101.55H50.0191L51.583 88.8397Z" fill="#3B5998" stroke="#E6E6E6" stroke-width="0.341256"/>
<path d="M59.6194 89.2989H34.0593V86.4323H57.2306C58.5682 86.4323 59.6194 87.5147 59.6194 88.8211V89.2989Z" fill="#7A82CC" stroke="#E6E6E6" stroke-width="0.341256"/>
<mask id="path-109-inside-1_398_6371" fill="white">
<path d="M12.6959 100.253L6.41682 70.0862C6.17794 68.8918 7.09933 67.7656 8.29373 67.7656H29.0421C30.1683 67.7656 31.1579 68.5846 31.3968 69.6767L37.7441 100.253"/>
</mask>
<path d="M12.6959 100.253L6.41682 70.0862C6.17794 68.8918 7.09933 67.7656 8.29373 67.7656H29.0421C30.1683 67.7656 31.1579 68.5846 31.3968 69.6767L37.7441 100.253" fill="#3B5998"/>
<path d="M6.41682 70.0862L6.08218 70.1531L6.08273 70.1557L6.41682 70.0862ZM31.3968 69.6767L31.7309 69.6073L31.7301 69.6037L31.3968 69.6767ZM13.03 100.184L6.75092 70.0166L6.08273 70.1557L12.3618 100.323L13.03 100.184ZM6.75145 70.0192C6.55413 69.0327 7.31809 68.1069 8.29373 68.1069V67.4244C6.88058 67.4244 5.80175 68.7509 6.08219 70.1531L6.75145 70.0192ZM8.29373 68.1069H29.0421V67.4244H8.29373V68.1069ZM29.0421 68.1069C30.0039 68.1069 30.8579 68.8103 31.0634 69.7496L31.7301 69.6037C31.4579 68.359 30.3326 67.4244 29.0421 67.4244V68.1069ZM31.0626 69.746L37.41 100.323L38.0783 100.184L31.7309 69.6073L31.0626 69.746Z" fill="#E6E6E6" mask="url(#path-109-inside-1_398_6371)"/>
<path d="M55.1476 103.393H15.9031C14.6493 103.393 13.5546 102.557 13.2002 101.366C13.2002 101.366 13.2001 101.366 13.2001 101.366L12.9234 100.425H55.1476V103.393Z" fill="#3B5998" stroke="#E6E6E6" stroke-width="0.341256"/>
<path d="M32.9675 132.912V105.27H35.7658V132.912H32.9675Z" fill="#3B5998" stroke="#E6E6E6" stroke-width="0.341256"/>
<path d="M35.7658 105.27V110.205L32.9675 112.456V105.27H35.7658Z" fill="#4F57A0" stroke="#E6E6E6" stroke-width="0.341256"/>
<path d="M34.6744 129.055H35.802L46.6843 133.389H22.3916L33.2739 129.055H34.4014H34.6744Z" fill="#3B5998" stroke="#E6E6E6" stroke-width="0.341256"/>
<path d="M9.18164 69.8477H27.8484" stroke="#E6E6E6" stroke-width="0.341256" stroke-miterlimit="10"/>
<path d="M29.7598 71.998L32.9676 88.0371" stroke="#E6E6E6" stroke-width="0.341256" stroke-miterlimit="10"/>
<path d="M33.5137 90.8691L34.1962 95.5444" stroke="#E6E6E6" stroke-width="0.341256" stroke-miterlimit="10"/>
<path d="M120.5 42.8865H105.485C104.7 42.8865 104.12 42.204 104.256 41.4191L104.359 40.7024C104.461 40.0882 104.973 39.6445 105.587 39.6445H120.602C121.387 39.6445 121.967 40.327 121.831 41.1119L121.729 41.8286C121.626 42.4087 121.114 42.8865 120.5 42.8865Z" fill="#CAE5FF"/>
<path d="M106.1 41.2832H119.067" stroke="white" stroke-width="0.682512" stroke-miterlimit="10"/>
<path d="M65.7637 24.2188H61.6686C59.7234 24.2188 57.8124 25.7885 57.4029 27.7337C56.9934 29.6788 58.2219 31.2486 60.1671 31.2486H61.0543C62.044 33.6033 64.3987 33.2962 64.3987 33.2962C63.955 32.4089 63.8526 31.6923 63.8526 31.2486H64.2622C66.2073 31.2486 68.1183 29.6788 68.5279 27.7337C68.9715 25.7885 67.7088 24.2188 65.7637 24.2188Z" fill="#FFC952"/>
<path d="M59.9297 27.0508H63.82" stroke="white" stroke-width="0.682512" stroke-miterlimit="10"/>
<path d="M59.6211 28.5859H65.9002" stroke="white" stroke-width="0.682512" stroke-miterlimit="10"/>
<defs>
<linearGradient id="paint0_linear_398_6371" x1="107.286" y1="94.965" x2="107.286" y2="23.4085" gradientUnits="userSpaceOnUse">
<stop stop-color="#FFAF36"/>
<stop offset="0.830725" stop-color="#FFBB36" stop-opacity="0.67"/>
</linearGradient>
</defs>
</svg>
