<svg height="512" viewBox="0 0 44 60" width="512" fill="white"
  xmlns="http://www.w3.org/2000/svg">
  <g id="Page-1" fill-rule="evenodd">
    <g id="078---Magic-Skelenton" fill-rule="nonzero">
      <path id="Shape" d="m33 13c0-5.52-4.92-10-11-10s-11 4.48-11 10c.0216769 2.6918047 1.1803948 5.2489752 3.19 7.04-.1162869.3068409-.1772308.6318746-.18.96.0065276 1.2673043.8061483 2.3947695 2 2.82v2.18c.0032948 1.1032019.8967981 1.9967052 2 2h.99v-2c0-.5522847.4477153-1 1-1s1 .4477153 1 1v2h2v-2c0-.5522847.4477153-1 1-1s1 .4477153 1 1v2h1.01c1.1032019-.0032948 1.9967052-.8967981 2-2v-2.18c1.1938517-.4252305 1.9934724-1.5526957 2-2.82-.002765-.3313763-.0636899-.6596939-.18-.97 1.9982877-1.7932547 3.1489955-4.3451397 3.17-7.03zm-14.99 4c-1.1045695 0-2-.8954305-2-2s.8954305-2 2-2 2 .8954305 2 2-.8954305 2-2 2zm6.7 5.71c-.3900375.3877236-1.0199625.3877236-1.41 0l-1.3-1.3-1.29 1.3c-.3900375.3877236-1.0199625.3877236-1.41 0-.3899779-.3930079-.3899779-1.0269921 0-1.42l2-2c.3900375-.3877236 1.0199625-.3877236 1.41 0l2 2c.3899779.3930079.3899779 1.0269921 0 1.42zm1.3-5.71c-1.1045695 0-2-.8954305-2-2s.8954305-2 2-2 2 .8954305 2 2-.8954305 2-2 2z"/>
      <rect id="Rectangle-path" height="27" rx="2" width="4" x="20" y="32"/>
      <path id="Shape" d="m9 34h9v4h-9c-1.1045695 0-2-.8954305-2-2s.8954305-2 2-2z"/>
      <path id="Shape" d="m12 43h6v4h-6c-1.1045695 0-2-.8954305-2-2s.8954305-2 2-2z"/>
      <path id="Shape" d="m14 52h4v4h-4c-1.1045695 0-2-.8954305-2-2s.8954305-2 2-2z"/>
      <path id="Shape" d="m28 34h9v4h-9c-1.1045695 0-2-.8954305-2-2s.8954305-2 2-2z" transform="matrix(-1 0 0 -1 63 72)"/>
      <path id="Shape" d="m28 43h6v4h-6c-1.1045695 0-2-.8954305-2-2s.8954305-2 2-2z" transform="matrix(-1 0 0 -1 60 90)"/>
      <path id="Shape" d="m28 52h4v4h-4c-1.1045695 0-2-.8954305-2-2s.8954305-2 2-2z" transform="matrix(-1 0 0 -1 58 108)"/>
      <path id="Shape" d="m42 37h-2c-.5522847 0-1-.4477153-1-1s.4477153-1 1-1h2c.5522847 0 1 .4477153 1 1s-.4477153 1-1 1z"/>
      <path id="Shape" d="m43 45h-2c-.5522847 0-1-.4477153-1-1s.4477153-1 1-1h2c.5522847 0 1 .4477153 1 1s-.4477153 1-1 1z"/>
      <path id="Shape" d="m41 54.167c-.0279807.001471-.0560193.001471-.084 0l-2-.167c-.2653922-.0213735-.5113035-.1477002-.6832445-.3509885s-.2557136-.4667517-.2327555-.7320115c.0157037-.2676843.1404065-.5172424.3450469-.690516.2046405-.1732736.4713428-.2551268.7379531-.226484l2 .167c.3572656.0146479.6795781.218782.8455254.535507.1659474.3167251.1503182.6979229-.041 1-.1913182.3020772-.5292598.4791409-.8865254.464493z"/>
      <path id="Shape" d="m37 60c-.1543931.001545-.307047-.0326823-.446-.1l-2-1c-.4942948-.2468713-.6948712-.8477051-.448-1.342.2468713-.4942948.8477052-.6948713 1.342-.448l2 1c.4098463.2099351.6233472.6726076.5171381 1.1206772s-.5046672.7656851-.9651381.7693228z"/>
      <circle id="Oval" cx="41" cy="49" r="1"/>
      <circle id="Oval" cx="42" cy="40" r="1"/>
      <circle id="Oval" cx="40" cy="21" r="1"/>
      <circle id="Oval" cx="4" cy="21" r="1"/>
      <circle id="Oval" cx="42" cy="11" r="1"/>
      <circle id="Oval" cx="2" cy="11" r="1"/>
      <path id="Shape" d="m4 37h-2c-.55228475 0-1-.4477153-1-1s.44771525-1 1-1h2c.55228475 0 1 .4477153 1 1s-.44771525 1-1 1z"/>
      <path id="Shape" d="m3 45h-2c-.55228475 0-1-.4477153-1-1s.44771525-1 1-1h2c.55228475 0 1 .4477153 1 1s-.44771525 1-1 1z"/>
      <path id="Shape" d="m3 54.167c-.55228475.0226437-1.01835633-.4067153-1.041-.959s.40671525-1.0183563.959-1.041l2-.167c.26662827-.0292395.53355114.0524259.7381754.2258459s.3289506.4233401.3438246.6911541c.02295066.2654199-.06095698.5290257-.23310996.7323427s-.41831835.3295357-.68389004.3506573l-2 .167c-.02764803.0014362-.05535197.0014362-.083 0z"/>
      <path id="Shape" d="m7 60c-.46842924.0057459-.87806423-.3144677-.98557503-.7704286-.10751079-.455961.11592176-.9254452.53757503-1.1295714l2-1c.3197527-.1596977.70041411-.1366785.99859275.0603866s.46857405.5382372.447.895c-.02157407.3567629-.23184004.6749157-.55159275.8346134l-2 1c-.1381167.0707786-.29081172.1084388-.446.11z"/>
      <path id="Shape" d="m37 31c-.4643791.0008998-.868272-.3180058-.9751118-.7699285-.1068397-.4519226.1114908-.9179291.5271118-1.1250715l2-1c.3197527-.1596977.7004141-.1366785.9985928.0603866.2981786.1970651.4685741.5382372.447.895-.0215741.3567629-.2318401.6749157-.5515928.8346134l-2 1c-.1385366.0690463-.2912105.1049898-.446.105z"/>
      <path id="Shape" d="m7 31c-.15478948-.0000102-.30746342-.0359537-.446-.105l-2-1c-.3197527-.1596977-.53001867-.4778505-.55159274-.8346134-.02157407-.3567628.14882137-.6979349.447-.895.29817864-.1970651.67884004-.2200843.99859274-.0603866l2 1c.41562098.2071424.63395154.6731489.52711179 1.1250715-.10683976.4519227-.51073265.7708283-.97511179.7699285z"/>
      <circle id="Oval" cx="3" cy="49" r="1"/>
      <circle id="Oval" cx="2" cy="40" r="1"/>
      <path id="Shape" d="m12 3c-.2651948-.00005664-.5195073-.10545063-.707-.293l-1-1c-.37897221-.39237889-.37355237-1.01608478.0121814-1.40181857.3857338-.3857338 1.0094397-.39115364 1.4018186-.01218143l1 1c.2859079.28599425.3714219.71603662.216678 1.08965456s-.5192821.61725909-.923678.61734544z"/>
      <path id="Shape" d="m7.553 9c-.08191258-.00017747-.16350373-.01025045-.243-.03l-1.65-.412c-.52696691-.14138069-.84334326-.67906612-.7110151-1.20837877.13232817-.52931265.66451221-.85485799 1.1960151-.73162123l1.649.412c.48939008.12264802.81076819.5906407.74950388 1.09143195s-.48598027.87751049-.99050388.87856805z"/>
      <path id="Shape" d="m5 16.45c-.52050672-.0014043-.95289657-.4018589-.99415555-.9207297-.04125897-.5188708.32241165-.9826257.83615555-1.0662703l1.691-.274c.35279977-.0569839.70920073.0785773.93495009.3556189.22574935.2770417.28655041.6534746.1595.9875-.12705042.3340255-.42265032.5748972-.77545009.6318811l-1.692.274c-.05296489.0079361-.10644387.011947-.16.012z"/>
      <path id="Shape" d="m8.714 23.735c-.44063729.0007622-.8298435-.2869841-.95829608-.7084835-.12845257-.4214994.03412528-.8774027.40029608-1.1225165l1.336-.894c.29688771-.1988183.6772916-.2241463.9979171-.0664431.3206256.1577031.5327622.4744785.5565.831.0237379.3565214-.1445294.6986248-.4414171.8974431l-1.335.894c-.16433454.1105161-.35796086.1693701-.556.169z"/>
      <path id="Shape" d="m32 3c-.4043959-.00008635-.7689341-.2437275-.923678-.61734544s-.0692299-.80366031.216678-1.08965456l1-1c.3923789-.37897221 1.0160848-.37355237 1.4018186.01218143.3857338.38573379.3911536 1.00943968.0121814 1.40181857l-1 1c-.1874927.18754937-.4418052.29294336-.707.293z"/>
      <path id="Shape" d="m36.447 9c-.5045236-.00105756-.9292396-.3777768-.9905039-.87856805s.2601138-.96878393.7495039-1.09143195l1.649-.412c.5315029-.12323676 1.0636869.20230858 1.1960151.73162123s-.1840482 1.06699808-.7110151 1.20837877l-1.65.412c-.0794963.01974955-.1610874.02982253-.243.03z"/>
      <path id="Shape" d="m39 16.45c-.0535561-.000053-.1070351-.0040639-.16-.012l-1.692-.274c-.5453812-.0880894-.9160894-.6016188-.828-1.147s.6016188-.9160894 1.147-.828l1.691.274c.5137439.0836446.8774145.5473995.8361555 1.0662703-.0412589.5188708-.4736488.9193254-.9941555.9207297z"/>
      <path id="Shape" d="m35.286 23.735c-.1980391.0003701-.3916655-.0584839-.556-.169l-1.33-.894c-.2968877-.1988183-.465155-.5409217-.4414171-.8974431.0237378-.3565215.2358744-.6732969.5565-.831.3206255-.1577032.7010294-.1323752.9979171.0664431l1.336.894c.3661708.2451138.5287486.7010171.4002961 1.1225165-.1284526.4214994-.5176588.7092457-.9582961.7084835z"/>
    </g>
  </g>
</svg>