<svg id="Capa_1" enable-background="new 0 0 512 512" height="512" fill="white" viewBox="0 0 512 512" width="512"
  xmlns="http://www.w3.org/2000/svg">
  <g>
    <path d="m512 207.06v-30h-49.105c-.79-8.528-2.346-16.842-4.596-24.875l45.232-18.219-11.209-27.828-45.158 18.19c-4.331-8.185-9.44-15.9-15.229-23.048l34.419-34.419-21.213-21.213-34.419 34.419c-6.561-5.314-13.601-10.055-21.043-14.147l19.002-44.848-27.623-11.705-19.054 44.969c-8.708-2.593-17.758-4.369-27.063-5.231v-49.105h-30v49.511c-8.393 1.002-16.562 2.736-24.438 5.141l-18.721-46.248-27.808 11.256 18.932 46.769c-7.86 4.396-15.256 9.521-22.1 15.281l-36.064-36.064-21.213 21.213 36.484 36.484c-12.84 16.542-22.1 36.002-26.601 57.222-2.426 11.437-11.409 20.419-22.845 22.845-21.196 4.496-40.635 13.739-57.164 26.556l-36.234-36.358-.114.114-.194-.194-21.213 21.213 34.304 34.304.055-.055 1.753 1.759c-5.271 6.257-10.015 12.973-14.152 20.087l-46.219-19.676-11.752 27.603 45.733 19.469c-2.778 8.573-4.759 17.505-5.858 26.708h-49.512v30h49.105c.79 8.528 2.346 16.842 4.596 24.875l-45.231 18.22 11.209 27.828 45.158-18.19c4.331 8.185 9.44 15.9 15.229 23.048l-34.419 34.419 21.213 21.213 34.419-34.419c6.561 5.314 13.601 10.055 21.043 14.147l-19.002 44.848 27.623 11.703 19.053-44.969c8.708 2.593 17.759 4.369 27.063 5.231v49.106h30v-49.511c8.393-1.003 16.562-2.736 24.438-5.141l18.721 46.248 27.808-11.256-18.931-46.769c7.86-4.396 15.256-9.521 22.1-15.281l36.065 36.064 21.213-21.213-36.484-36.484c12.84-16.542 22.1-36.002 26.602-57.223 2.426-11.436 11.409-20.419 22.845-22.845 21.196-4.496 40.635-13.739 57.164-26.556l36.234 36.358.114-.114.194.194 21.213-21.213-34.304-34.304-.055.055-1.753-1.759c5.271-6.257 10.015-12.973 14.152-20.086l46.219 19.676 11.751-27.604-45.733-19.469c2.778-8.573 4.759-17.505 5.859-26.708h49.509zm-413.644 122.88v-30h30v30zm54.505 59.199h-30v-30h30zm-.031-118.284v-30h30v30zm59.085 142.644h-30v-30h30zm.031-83.445h-30v-30h30zm28.992-177.306h30v30h-30zm.031 88.283h30v30h-30zm30.031 117.994h-30v-30h30zm29.022-260.751h30v30h-30zm.032 113.672v-30h30v30zm59.053 58.972h-30v-30h30zm.032-148.057h30v30h-30zm54.442 88.972h-30v-30h30z"/>
  </g>
</svg>