<?xml version="1.0" encoding="UTF-8"?>
<!-- Generator: Adobe Illustrator 24.3.0, SVG Export Plug-In . SVG Version: 6.00 Build 0)  -->
<svg xmlns="http://www.w3.org/2000/svg" fill="white"
	xmlns:xlink="http://www.w3.org/1999/xlink" version="1.1" id="Capa_1" x="0px" y="0px" viewBox="0 0 497.745 497.745" style="enable-background:new 0 0 497.745 497.745;" xml:space="preserve" width="512" height="512">
	<g>
		<path d="M371.975,133.185L154.42,0l-27.573,39.8l-6.267,9.044l154.342,98.592c11.556,7.301,26.089,8.296,38.883,2.66   c7.599-3.351,16.19-2.482,22.985,2.323c9.828,6.954,12.729,20.532,6.601,30.911c-1.432,2.427-3.253,4.543-5.412,6.296   c-7.291,5.914-12.314,13.863-14.524,22.991c-0.651,2.699-1.782,5.253-3.36,7.589c-6.74,9.987-20.25,13.202-30.749,7.311   c-6.238-3.493-10.486-9.534-11.659-16.572c-2.949-17.683-13.092-33.163-27.81-42.464L102.809,74.49l-6.267,9.044L66.33,127.141   c5.25,5.726,18.276,18.996,40.335,35.911c27.321,20.947,74.477,51.926,143.995,80.553c1.504,0.619,2.66,1.876,3.147,3.428   c0.493,1.555,0.266,3.247-0.616,4.618c-0.078,0.126-8.254,12.994-15.221,31.148c-6.319,16.455-12.926,40.782-8.539,63.213   c3.885,19.855,1.643,48.65-6.662,85.601c-4.164,18.532-8.895,34.586-11.52,43.031l53.799,7.272l10.901,1.474l22.447-131.046   c2.716-16.326-1.717-32.729-12.155-45.007c-4.404-5.182-6.092-11.97-4.621-18.63c2.388-10.827,12.875-18.144,23.876-16.653   c2.984,0.405,5.784,1.39,8.322,2.939c6.954,4.232,15.162,5.596,23.115,3.84c2.9-0.638,5.865-0.671,8.824-0.087   c10.888,2.152,18.445,12.466,17.201,23.487c-0.622,5.522-3.296,10.525-7.521,14.083c-16.63,13.996-27.823,33.931-31.507,56.1   L304.203,487.21l10.901,1.474l67.036,9.06l46.871-234C439.219,212.785,416.299,160.314,371.975,133.185z M390.047,243.725   c-1.283,1.86-3.38,2.806-5.626,2.541l-23.947-2.855c-2.278-0.272-4.109-1.721-4.896-3.876c-0.253-0.693-0.379-1.4-0.379-2.097   c0-1.468,0.554-2.884,1.611-4.025c4.802-5.162,9.961-10.703,14.365-15.431c1.147-1.235,2.696-1.902,4.342-1.902   c0.272,0,0.548,0.016,0.82,0.055c1.944,0.262,3.584,1.41,4.495,3.147l9.579,18.283   C391.463,239.564,391.324,241.865,390.047,243.725z"/>
	</g>















</svg>
