<svg id="Capa_1" fill="white" enable-background="new 0 0 512 512" height="512" viewBox="0 0 512 512" width="512"
  xmlns="http://www.w3.org/2000/svg">
  <g>
    <path d="m323.16 0h-172.16c-13.92 0-27.21 2.72-39.37 7.67l160.96 112.33z"/>
    <path d="m406 120v30h-142.845l-179.645-125.368c-22.918 19.277-37.51 48.148-37.51 80.368v120c0 58.344 47.413 105 105 105h33.237l-38.434 62.814c-3.192-.527-6.464-.814-9.803-.814-33.084 0-60 26.916-60 60s26.916 60 60 60c22.159 0 41.537-12.084 51.928-30h106.144c10.391 17.916 29.769 30 51.928 30 33.084 0 60-26.916 60-60s-26.916-60-60-60c-3.339 0-6.611.287-9.803.814l-38.434-62.814h33.237c57.897 0 105-47.103 105-105 0-12.267 0-94.62 0-105 0-16.542 13.458-30 30-30v-30c-33.084 0-60 26.916-60 60zm-97.424 285.152c-13.747 11.004-22.576 27.91-22.576 46.848h-90c0-18.938-8.829-35.844-22.576-46.848l45.983-75.152h43.186z"/>
  </g>
</svg>