<svg id="Layer_1" enable-background="new 0 0 512 512" fill="white" height="512" viewBox="0 0 512 512" width="512"
  xmlns="http://www.w3.org/2000/svg">
  <g>
    <path d="m460.689 469.434c-7.707-3.033-16.416.755-19.451 8.463l-.183.461c-3.035 7.708.754 16.417 8.463 19.452 1.804.71 3.662 1.046 5.49 1.046 5.983 0 11.637-3.605 13.961-9.51l.183-.461c3.036-7.708-.754-16.417-8.463-19.451z"/>
    <path d="m474.445 196.551c-2.15-8.001-10.382-12.742-18.379-10.592-8.001 2.15-12.743 10.379-10.592 18.38l.258.954c1.813 6.679 7.863 11.073 14.467 11.073 1.301 0 2.624-.171 3.939-.528 7.995-2.171 12.716-10.412 10.545-18.407z"/>
    <path d="m433.96 146.11c.769 7.741 7.291 13.52 14.909 13.52.495 0 .995-.024 1.499-.074 8.243-.818 14.264-8.164 13.445-16.408l-.082-.852c-.767-8.248-8.069-14.316-16.323-13.548-8.248.766-14.314 8.074-13.548 16.323z"/>
    <path d="m447.789 101.723c.534.056 1.064.083 1.591.083 7.578 0 14.087-5.724 14.898-13.428l.1-.942c.87-8.239-5.104-15.623-13.342-16.492-8.219-.868-15.622 5.103-16.492 13.342l-.1.947c-.869 8.239 5.106 15.621 13.345 16.49z"/>
    <path d="m471.723 241.731c-8.065 1.892-13.07 9.963-11.179 18.029l.217.924c1.621 6.914 7.784 11.578 14.591 11.578 1.134 0 2.286-.129 3.438-.4 8.065-1.892 13.07-9.963 11.179-18.029l-.217-.924c-1.893-8.065-9.965-13.072-18.029-11.178z"/>
    <path d="m483.212 298.506c-8.264.588-14.486 7.763-13.898 16.026l.068.948c.563 7.901 7.146 13.935 14.946 13.935.357 0 .719-.013 1.081-.039 8.264-.588 14.485-7.764 13.896-16.027l-.068-.945c-.588-8.263-7.772-14.483-16.025-13.898z"/>
    <path d="m476.376 413.689c-8.046-1.936-16.155 3.016-18.096 11.07l-.21.869c-1.971 8.046 2.956 16.167 11.002 18.137 1.198.293 2.398.434 3.579.434 6.75 0 12.881-4.588 14.558-11.437l.237-.977c1.941-8.054-3.016-16.155-11.07-18.096z"/>
    <path d="m484.788 356.385c-8.233-.926-15.653 5.01-16.571 13.243l-.097.852-.006.054c-.941 8.23 4.971 15.639 13.201 16.581.577.066 1.149.098 1.717.098 7.523 0 14.018-5.67 14.894-13.324l.105-.933c.919-8.233-5.01-15.652-13.243-16.571z"/>
    <path d="m456.016 44.361c1.205.297 2.411.438 3.599.438 6.741 0 12.869-4.578 14.553-11.417l.119-.488c1.981-8.044-2.934-16.17-10.978-18.151-8.045-1.982-16.171 2.935-18.151 10.979l-.119.488c-1.982 8.043 2.933 16.17 10.977 18.151z"/>
    <path d="m82.004 261.001h348.204c-2.556-10.14-5.37-19.988-8.164-29.759-11.699-40.914-23.729-83.007-17.469-146.625-20.643 11.236-44.08 17.383-68.361 17.383-28.603 0-56.661-8.755-80.107-24.571-23.449 15.815-51.507 24.571-80.109 24.571-24.28 0-47.716-6.146-68.359-17.382 6.26 63.618-5.771 105.709-17.472 146.622-2.793 9.772-5.607 19.62-8.163 29.761zm174.102-55c8.262 0 15 6.738 15 15s-6.738 15-15 15c-8.261 0-15-6.738-15-15s6.739-15 15-15z"/>
    <path d="m436.565 291.001h-360.917c-1.29 7.796-2.313 15.849-2.961 24.243 73.041 4.063 132.906 28.285 182.326 73.811.363-.026.724-.055 1.094-.055.112 0 .22.014.332.017 47.794-41.803 107.865-67.109 182.807-77.023-.648-7.227-1.559-14.211-2.681-20.993z"/>
    <path d="m76.719 387.481c6.241 34.556 12.246 61.291 37.827 115.883 2.47 5.27 7.764 8.635 13.583 8.635h112.978v-94.764c-45.117-44.331-100.532-67.931-169.024-71.971.468 13.135 1.909 27.124 4.636 42.217z"/>
    <path d="m271.106 416.162v95.838h112.978c5.819 0 11.113-3.366 13.583-8.635 25.581-54.593 31.586-81.328 37.827-115.883 2.943-16.296 4.392-31.307 4.73-45.339-70.187 9.759-125.711 34.068-169.118 74.019z"/>
    <path d="m70.762 477.897c-3.033-7.708-11.744-11.497-19.451-8.463-7.709 3.035-11.498 11.743-8.463 19.452l.183.461c2.324 5.905 7.978 9.51 13.961 9.51 1.827 0 3.688-.336 5.49-1.046 7.709-3.035 11.498-11.743 8.463-19.452z"/>
    <path d="m53.93 425.628-.21-.869c-1.94-8.054-10.048-13.007-18.096-11.07-8.054 1.94-13.011 10.042-11.07 18.096l.237.977c1.677 6.849 7.808 11.437 14.558 11.437 1.181 0 2.381-.141 3.579-.434 8.046-1.97 12.972-10.09 11.002-18.137z"/>
    <path d="m26.591 329.377c.362.026.723.039 1.081.039 7.799 0 14.384-6.034 14.946-13.935l.068-.948c.588-8.264-5.635-15.438-13.898-16.026-8.278-.577-15.438 5.635-16.025 13.898l-.068.945c-.59 8.263 5.632 15.439 13.896 16.027z"/>
    <path d="m33.211 271.863c1.152.271 2.303.4 3.438.4 6.807 0 12.97-4.665 14.591-11.578l.217-.924c1.892-8.065-3.113-16.137-11.179-18.029-8.064-1.892-16.137 3.113-18.028 11.178l-.217.924c-1.892 8.065 3.113 16.137 11.178 18.029z"/>
    <path d="m47.861 215.836c1.316.357 2.638.528 3.939.528 6.604 0 12.653-4.395 14.467-11.073l.258-.954c2.151-8-2.591-16.229-10.592-18.38-7.997-2.15-16.229 2.592-18.379 10.592l-.238.879c-2.17 7.996 2.55 16.238 10.545 18.408z"/>
    <path d="m64.592 128.748c-8.266-.77-15.559 5.299-16.323 13.548l-.082.852c-.818 8.244 5.202 15.59 13.445 16.408.504.05 1.004.074 1.499.074 7.618 0 14.141-5.78 14.909-13.52l.1-1.039c.766-8.249-5.3-15.557-13.548-16.323z"/>
    <path d="m60.964 70.944c-8.238.87-14.212 8.253-13.342 16.492l.1.942c.812 7.705 7.32 13.428 14.898 13.428.525 0 1.058-.027 1.591-.083 8.239-.869 14.214-8.251 13.345-16.49l-.1-.947c-.869-8.239-8.246-14.212-16.492-13.342z"/>
    <path d="m37.833 33.382c1.684 6.84 7.811 11.417 14.553 11.417 1.188 0 2.394-.142 3.599-.438 8.044-1.981 12.959-10.107 10.978-18.151l-.119-.488c-1.98-8.044-10.104-12.957-18.151-10.979-8.044 1.981-12.959 10.107-10.978 18.151z"/>
    <path d="m28.707 387.212c7.523 0 14.018-5.67 14.894-13.324l.105-.933c.919-8.233-5.01-15.652-13.243-16.571-8.233-.926-15.653 5.01-16.571 13.243l-.097.852-.006.054c-.941 8.23 4.971 15.639 13.201 16.581.577.066 1.149.098 1.717.098z"/>
    <path d="m175.998 72c30.43 0 59.218-12.199 80.108-33.337 20.89 21.138 49.677 33.337 80.108 33.337 37.133 0 71.77-18.131 92.652-48.501 3.157-4.59 3.51-10.551.916-15.481-2.593-4.931-7.705-8.018-13.275-8.018h-320.802c-5.57 0-10.683 3.087-13.275 8.018-2.594 4.93-2.24 10.892.916 15.481 20.883 30.37 55.519 48.501 92.652 48.501z"/>
  </g>
</svg>