<svg width="399" height="214" viewBox="0 0 399 214" fill="none" xmlns="http://www.w3.org/2000/svg">
<g clip-path="url(#clip0_402_39712)">
<path d="M188.06 32.7194L187.601 32.1716C187.726 32.064 200.466 21.4451 218.876 16.0577C235.884 11.0809 261.354 9.67106 286.086 31.2218L285.616 31.7625C261.136 10.4326 235.934 11.8183 219.099 16.7386C200.828 22.0792 188.186 32.6132 188.06 32.7194Z" fill="#273660"/>
<path d="M384.52 170.348C381.863 141.996 370.89 120.476 342.461 104.694C334.077 100.04 323.579 97.765 318.552 89.5891C313.561 81.4728 315.414 71.1072 314.426 61.6263C311.889 37.3012 288.678 18.4922 264.395 15.9174C240.109 13.3427 215.951 24.358 197.504 40.3855C183.664 52.4115 171.54 67.7624 154.101 73.3932C125.343 82.6802 94.0515 61.9646 64.5397 68.4602C48.6582 71.9551 35.3361 83.0892 25.6082 96.1372C9.32801 117.971 5.26893 145.576 10.2481 172.365C12.9716 187.02 19.6354 201.872 29.1853 213.28L371.367 212.564C381.372 202.545 385.66 182.504 384.52 170.348Z" fill="#8F489A" fill-opacity="0.05"/>
<path d="M139.354 61.0742C153.956 61.0742 165.793 49.2189 165.793 34.5947C165.793 19.9705 153.956 8.11523 139.354 8.11523C124.752 8.11523 112.915 19.9705 112.915 34.5947C112.915 49.2189 124.752 61.0742 139.354 61.0742Z" fill="#FFF0F0"/>
<path d="M191.17 18.7355C195.449 14.4498 195.449 7.50137 191.17 3.2157C186.891 -1.06997 179.953 -1.06998 175.674 3.21569C171.395 7.50136 171.395 14.4498 175.674 18.7355C179.953 23.0211 186.891 23.0211 191.17 18.7355Z" fill="#FFF0F0"/>
<path d="M358.865 95.3165C363.144 91.0309 363.144 84.0824 358.865 79.7968C354.586 75.5111 347.648 75.5111 343.369 79.7967C339.09 84.0824 339.09 91.0309 343.369 95.3165C347.648 99.6022 354.586 99.6022 358.865 95.3165Z" fill="#FFF0F0"/>
<path d="M382.878 212.971L382.248 212.636C395.101 188.372 396.462 162.287 385.982 141.075C374.964 118.772 352.473 103.767 322.656 98.8225L322.774 98.1162C352.824 103.099 375.499 118.242 386.622 140.756C397.207 162.18 395.841 188.501 382.878 212.971Z" fill="#273660"/>
<path d="M31.1862 214C15.7032 197.302 5.48764 177.191 1.64338 155.842C-1.93658 135.963 0.375624 116.237 8.15742 100.3C20.1778 75.6794 43.4412 62.9938 71.9749 65.4879L71.9127 66.2013C43.6843 63.7313 20.6823 76.2753 8.79907 100.615C1.08512 116.417 -1.20731 135.985 2.34581 155.715C6.16604 176.929 16.3208 196.916 31.7091 213.515L31.1862 214Z" fill="#D5EBFF"/>
<path d="M132.447 161.394H40.5V213.23H132.447V161.394Z" fill="#708BD7"/>
<path opacity="0.5" d="M73.4447 161.394H40.5V213.23H73.4447V161.394Z" fill="#273660"/>
<path opacity="0.3" d="M90.8809 161.394L90.8809 174.021L99.4555 174.021L99.4556 161.394L90.8809 161.394Z" fill="white"/>
<path d="M266.17 104.92H114.286V213.23H266.17V104.92Z" fill="#51155B"/>
<path d="M280.959 66.6267H252.86V40.9399C252.86 35.7578 257.055 31.5566 262.229 31.5566C264.816 31.5566 267.16 32.6083 268.854 34.3055C270.526 35.98 271.576 38.2986 271.598 40.8535V40.9399L271.591 57.2434C271.591 57.3227 271.591 57.4076 271.598 57.4869V57.9809L271.627 57.9667C271.991 62.8119 276.029 66.6267 280.959 66.6267Z" fill="#86A7FF"/>
<path d="M290.321 51.5762V57.2523C290.321 59.8426 289.278 62.1909 287.576 63.8796C285.89 65.5824 283.546 66.6284 280.959 66.6284C276.028 66.6284 271.99 62.8137 271.627 57.9685L290.321 51.5762Z" fill="#E4EBFF"/>
<path d="M262.229 31.5586C262.029 31.5586 261.837 31.5657 261.643 31.5798C261.514 31.5869 261.393 31.594 261.271 31.6081C261.135 31.6223 261.007 31.6364 260.871 31.6577C260.792 31.6648 260.714 31.6789 260.635 31.6931C260.535 31.7072 260.434 31.7285 260.343 31.7497C260.2 31.778 260.064 31.8063 259.921 31.8431C259.721 31.8926 259.521 31.9507 259.321 32.0215C259.22 32.0498 259.12 32.0866 259.028 32.122C258.935 32.1503 258.835 32.1941 258.743 32.2295C258.607 32.2791 258.478 32.3371 258.35 32.4008C258.235 32.4503 258.121 32.5013 258.006 32.565C257.978 32.5792 257.941 32.5933 257.906 32.6145C257.806 32.6641 257.705 32.7221 257.606 32.7787C257.213 33.001 256.835 33.2515 256.484 33.5304C256.384 33.6096 256.276 33.6946 256.185 33.7738C256.07 33.8673 255.97 33.9593 255.862 34.0598C255.755 34.1603 255.655 34.2608 255.556 34.3598C255.277 34.6458 255.013 34.9473 254.77 35.2686C254.662 35.4115 254.562 35.5474 254.463 35.6904C254.149 36.1702 253.877 36.6713 253.642 37.2007C253.585 37.3295 253.535 37.4654 253.478 37.6013C253.328 38.009 253.2 38.4322 253.099 38.8611C253.071 39.0111 253.043 39.1541 253.013 39.297C252.964 39.5901 252.92 39.8916 252.899 40.1916V171.81H127.646V46.1876C127.646 38.1066 134.185 31.5586 142.253 31.5586H262.229Z" fill="#E4EBFF"/>
<path d="M237.496 44.9697H142.452V49.9791H237.496V44.9697Z" fill="#ADC3FF"/>
<path d="M230.131 59.6416H142.452V64.651H230.131V59.6416Z" fill="#ADC3FF"/>
<path d="M225.509 74.3145H142.452V79.3239H225.509V74.3145Z" fill="#ADC3FF"/>
<path d="M237.496 88.9854H142.452V93.9948H237.496V88.9854Z" fill="#ADC3FF"/>
<path d="M230.708 103.837H179.181V108.846H230.708V103.837Z" fill="#ADC3FF"/>
<path d="M189.552 131.968C188.984 131.968 188.459 131.774 188.1 131.279C187.659 130.667 187.69 129.831 187.712 129.277L188.196 116.331L188.91 116.358L188.425 129.304C188.403 129.907 188.405 130.48 188.68 130.86C189.287 131.699 190.747 130.973 191.034 130.819C192.473 130.046 193.506 128.591 194.505 127.184C195.616 125.619 196.765 124.003 198.502 123.243C199.533 122.791 200.292 123.454 200.901 123.982C201.247 124.282 201.573 124.565 201.918 124.668C202.827 124.937 203.732 124.702 204.688 124.45C205.534 124.228 206.411 123.997 207.312 124.137C208.136 124.263 208.8 124.592 209.443 124.91C210.393 125.38 211.214 125.786 212.401 125.498C214.038 125.103 215.558 124.17 217.028 123.267C217.455 123.005 217.879 122.745 218.309 122.494C219.961 121.533 222.445 120.32 224.916 120.887L224.756 121.585C222.527 121.076 220.214 122.212 218.666 123.114C218.242 123.36 217.822 123.619 217.4 123.877C215.882 124.808 214.313 125.772 212.566 126.193C211.126 126.54 210.107 126.038 209.125 125.552C208.531 125.259 207.916 124.954 207.203 124.845C206.448 124.731 205.681 124.932 204.868 125.142C203.857 125.407 202.817 125.68 201.713 125.355C201.22 125.208 200.817 124.859 200.43 124.522C199.793 123.969 199.373 123.643 198.785 123.898C197.229 124.579 196.187 126.046 195.085 127.598C194.038 129.072 192.956 130.596 191.369 131.448C190.808 131.75 190.154 131.968 189.552 131.968Z" fill="#102048"/>
<path opacity="0.3" d="M252.896 109.455V171.814H127.646V104.022L166.772 136.622C168.93 138.426 171.759 139.114 174.546 138.719C175.353 138.604 176.183 138.562 177.011 138.583L203.681 139.335C204.602 139.363 205.517 139.478 206.411 139.671C209.177 140.273 212.072 139.721 214.35 138.032L252.896 109.455Z" fill="#86A7FF"/>
<path d="M171.395 149.82L170.352 150.98L123.216 203.327L114.289 213.233V104.917L171.395 149.82Z" fill="#445FAC"/>
<path d="M266.17 104.92L209.062 149.82L266.17 213.23V104.92Z" fill="#445FAC"/>
<path d="M170.351 150.98L123.215 203.326L114.29 205.294V186.049C137.85 169.136 164.285 149.526 170.323 149.104L170.351 150.98Z" fill="#273660"/>
<path d="M210.108 150.98L257.244 203.326L266.17 205.294V186.049C242.609 169.136 216.174 149.526 210.137 149.104L210.108 150.98Z" fill="#273660"/>
<path d="M266.17 213.23H114.286L114.314 198.982L166.65 151.432C169.396 148.936 172.972 147.555 176.679 147.555H203.36C207.012 147.555 210.538 148.897 213.27 151.324L266.318 198.491L266.17 213.23Z" fill="#445FAC"/>
<path opacity="0.4" d="M274.515 205.579C284.701 195.377 284.701 178.837 274.515 168.636C264.329 158.435 247.815 158.435 237.629 168.636C227.443 178.837 227.443 195.377 237.629 205.579C247.815 215.78 264.329 215.78 274.515 205.579Z" fill="#273660"/>
<path d="M282.376 205.578C292.562 195.376 292.562 178.837 282.376 168.635C272.19 158.434 255.675 158.434 245.489 168.635C235.303 178.837 235.303 195.376 245.489 205.578C255.675 215.779 272.19 215.779 282.376 205.578Z" fill="#EBAB00"/>
<path d="M263.378 201.262C262.14 201.262 260.954 200.742 260.105 199.804L250.877 189.598C250.083 188.719 250.149 187.362 251.027 186.566C251.906 185.771 253.261 185.837 254.054 186.716L263.282 196.921C263.3 196.94 263.335 196.974 263.406 196.964C263.48 196.953 263.498 196.909 263.509 196.884L273.442 174.236C273.918 173.15 275.181 172.658 276.267 173.133C277.351 173.61 277.845 174.877 277.368 175.963L267.436 198.611C266.829 199.992 265.581 200.962 264.094 201.202C263.856 201.242 263.615 201.262 263.378 201.262Z" fill="white"/>
<path d="M82.9014 146.959L83.7352 161.393H105.888L95.8828 153.162L95.2878 146.959L91.3573 143.142L82.9014 146.959Z" fill="#102048"/>
<path d="M56.3405 140.517L52.7676 153.399L70.9911 161.392L65.6303 149.225L66.9405 143.737L62.415 137.773L56.3405 140.517Z" fill="#102048"/>
<path d="M63.3675 76.5811C63.3675 76.5811 61.2235 85.5269 61.9386 105.209C61.9386 105.209 55.6267 127.277 56.3404 140.517L66.9404 143.737C72.4934 131.379 77.0613 119.489 79.4894 108.616C80.7006 104.772 80.678 100.643 79.4244 96.8126L74.3251 81.2323L63.3675 76.5811Z" fill="#1E3B6B"/>
<path d="M96.9664 105.62L95.2874 146.959H82.9024C79.6729 133.496 78.4716 122.002 78.0504 114.301C77.6999 107.809 77.9006 104.016 77.9006 104.016C69.9393 94.6042 65.2089 87.8057 62.4571 82.7736C58.3698 75.3083 58.6199 71.7158 59.0764 69.1821C59.6912 65.8119 61.8777 61.4451 63.3574 58.7613C64.187 57.2722 64.7934 56.2998 64.7934 56.2998L85.517 62.9851L83.0451 71.9381L83.0027 72.0881C82.631 73.4342 82.8176 74.8795 83.5101 76.0883L94.38 95.0473C96.2159 98.2548 97.1162 101.919 96.9664 105.62Z" fill="#102A54"/>
<path d="M90.5234 147.226C90.5177 147.226 90.5121 147.226 90.5064 147.224C90.358 147.216 90.2464 147.087 90.2563 146.94C90.2817 146.525 92.837 105.421 89.804 98.8786C89.2712 97.7292 88.3681 96.2628 87.3222 94.5642C82.9451 87.4585 75.617 75.5642 77.1561 58.4226C77.1688 58.2754 77.296 58.1636 77.4473 58.1792C77.5942 58.1919 77.7031 58.3221 77.6904 58.4708C76.1682 75.4339 83.4355 87.232 87.7787 94.2811C88.8345 95.9938 89.7446 97.473 90.2916 98.6507C93.3811 105.316 90.8993 145.274 90.7919 146.971C90.782 147.117 90.6647 147.226 90.5234 147.226Z" fill="#1E3B6B"/>
<path opacity="0.6" d="M85.519 62.9851L83.0471 71.9381C73.5141 68.0087 66.6468 62.0325 63.3594 58.7613C64.189 57.2722 64.7953 56.2998 64.7953 56.2998L85.519 62.9851Z" fill="#1E3B6B"/>
<path d="M89.0211 153.739L88.8105 150.153L95.6398 150.03C95.8164 150.033 95.9097 150.145 95.9125 150.294C95.9154 150.442 95.7981 150.564 95.6497 150.567L89.3787 150.68L89.5257 153.178L95.8715 152.892C96.0143 152.887 96.1457 153.001 96.1514 153.149C96.1584 153.297 96.044 153.422 95.8956 153.429L89.0211 153.739Z" fill="white"/>
<path d="M65.6304 149.494C65.6035 149.494 65.5753 149.49 65.5484 149.481L59.6689 147.602L61.136 144.175L66.3173 146.05C66.4572 146.101 66.5278 146.254 66.4784 146.394C66.4275 146.533 66.2748 146.608 66.1349 146.556L61.43 144.853L60.3954 147.272L65.7123 148.97C65.8537 149.016 65.9314 149.167 65.8862 149.307C65.8494 149.421 65.7448 149.494 65.6304 149.494Z" fill="white"/>
<path d="M92.8435 23.3772L92.4563 24.8239L90.9129 30.6712L89.8699 34.5935L80.5801 31.2502L85.0603 22.0679L87.2482 18.9043L92.8435 23.3772Z" fill="#FBD36E"/>
<path d="M92.4561 24.8236L90.9127 30.6709C88.1751 27.6942 88.7334 23.9785 88.7334 23.9785L92.4561 24.8236Z" fill="#102048"/>
<path d="M99.8129 15.1489C99.8129 15.1489 99.2179 28.3894 92.547 27.2556C85.8775 26.1218 85.9962 14.7314 85.9962 14.7314L94.691 11.9287L99.8129 15.1489Z" fill="#FBD36E"/>
<path d="M90.5525 17.1476C90.5525 17.1476 94.3784 13.197 99.8126 15.149C99.8126 15.149 102.21 16.1625 103.148 14.1949C103.148 14.1949 95.4666 3.99637 89.436 8.91659C89.436 8.91659 78.6268 11.2875 85.0589 22.0679L90.5525 17.1476Z" fill="#102048"/>
<path d="M91.0388 19.7686C92.158 19.5898 92.8995 18.4035 92.6949 17.1189C92.4903 15.8344 91.4172 14.9379 90.298 15.1167C89.1788 15.2955 88.4373 16.4818 88.6419 17.7664C88.8465 19.0509 89.9196 19.9474 91.0388 19.7686Z" fill="#FBD36E"/>
<path d="M100.042 22.0169C100.147 21.3663 99.7056 20.7535 99.056 20.6482C98.4064 20.5429 97.7946 20.9849 97.6894 21.6355C97.5843 22.2861 98.0256 22.8988 98.6752 23.0042C99.3248 23.1095 99.9366 22.6674 100.042 22.0169Z" fill="#FBD36E"/>
<path opacity="0.4" d="M94.2444 22.6651C95.3794 22.6651 96.2994 21.7436 96.2994 20.6069C96.2994 19.4703 95.3794 18.5488 94.2444 18.5488C93.1095 18.5488 92.1895 19.4703 92.1895 20.6069C92.1895 21.7436 93.1095 22.6651 94.2444 22.6651Z" fill="#EB5D60"/>
<path d="M132.804 42.0216C132.804 42.0216 134.034 43.7102 131.525 45.4003C131.525 45.4003 133.52 46.7677 126.645 49.0211C125.881 49.2717 125.008 49.5293 124.008 49.8011L121.249 39.7667C121.249 39.7667 133.52 35.6151 133.826 36.9471C134.133 38.2776 131.633 40.0753 131.633 40.0753C131.633 40.0753 136.027 38.9939 132.804 42.0216Z" fill="#FBD36E"/>
<path d="M121.251 39.766L106.722 41.6302C106.722 41.6302 85.8187 26.7194 81.532 28.1505C77.244 29.5816 62.7729 52.8422 62.7729 52.8422C62.7729 52.8422 58.8424 54.0949 59.0205 55.7057C59.1986 57.3166 84.5679 70.4976 87.9627 67.157C90.0968 65.0564 92.5475 48.3098 92.5475 48.3098L101.792 52.1614C104.533 53.3037 107.561 53.5613 110.456 52.9002L124.011 49.8032L121.251 39.766Z" fill="#EBAB00"/>
<g opacity="0.8">
<path d="M120.331 48.7301C119.832 46.7767 119.344 44.8701 118.902 43.0356C118.779 42.5246 118.666 42.0037 118.553 41.48C118.457 41.0369 118.358 40.5925 118.253 40.1494L117.719 40.2174C117.826 40.6746 117.929 41.1346 118.028 41.5932C118.143 42.1212 118.256 42.6463 118.382 43.1616C118.825 44.9974 119.313 46.9055 119.812 48.8617C119.965 49.4576 120.117 50.0578 120.27 50.658L120.793 50.5391C120.639 49.9347 120.485 49.3317 120.331 48.7301Z" fill="white"/>
<path d="M95.4588 34.1858C95.2383 34.2325 95.0178 34.2821 94.7959 34.3288C90.7694 35.1696 86.4629 35.849 82.2498 35.1356C80.1143 34.7733 78.1497 34.033 76.4749 33.0039C76.3619 33.1426 76.2502 33.2799 76.1357 33.4243C77.8826 34.5086 79.9334 35.2871 82.1608 35.665C86.4601 36.394 90.8273 35.7061 94.9048 34.8554C95.309 34.7704 95.7132 34.6813 96.1174 34.5935C95.8997 34.4576 95.6793 34.3217 95.4588 34.1858Z" fill="white"/>
<path d="M89.8933 59.9673C88.6835 60.0678 87.4327 60.1711 86.2173 60.0579C82.6486 59.7252 79.4827 57.5015 77.4108 55.8567C76.6773 55.2735 75.9579 54.6691 75.2385 54.0633C73.4096 52.5233 71.5186 50.9323 69.3901 49.7447C68.162 49.061 66.9154 48.5755 65.69 48.2754C65.584 48.4382 65.4851 48.5896 65.3848 48.7467C66.62 49.0298 67.8835 49.521 69.1301 50.2146C71.2133 51.3767 73.0846 52.9507 74.8951 54.4752C75.6173 55.0839 76.3409 55.6925 77.0787 56.2785C79.2029 57.9644 82.4564 60.2461 86.1678 60.5929C87.4299 60.709 88.7047 60.6043 89.9371 60.5023C90.0587 60.4924 90.1816 60.4868 90.3032 60.4769C90.3456 60.2957 90.3866 60.1131 90.4276 59.9305C90.2495 59.9446 90.0714 59.9517 89.8933 59.9673Z" fill="white"/>
</g>
<path d="M92.5489 48.3105L88.7852 46.6572C88.7852 46.6572 89.7462 52.6447 91.5609 53.5011L92.5489 48.3105Z" fill="#E49B31"/>
<path d="M126.645 49.021C125.881 49.2716 125.008 49.5292 124.008 49.801L121.249 39.7666L126.645 49.021Z" fill="#FBD36E"/>
<path d="M291.985 109.563L300.74 113.499L307.263 91.9924L298.718 89.7432C296.46 94.7979 294.158 101.269 291.985 109.563Z" fill="#FBD36E"/>
<path d="M298.719 89.7432L307.264 91.9924L314.556 71.9293C314.556 71.9279 305.742 70.736 298.719 89.7432Z" fill="#FBD36E"/>
<path d="M288.353 102.107L282.041 119.522L305.622 128.588L310.387 110.457L288.353 102.107Z" fill="#102048"/>
<path d="M296.111 125.314C295.939 125.807 294.528 126.396 293.622 125.59C291.857 125.277 290.665 125.054 289.564 123.835C288.575 123.454 288.131 122.377 288.584 121.468C289.45 119.729 290.791 117.277 291.43 117.375C292.231 117.497 291.652 119.972 291.652 119.972C291.652 119.972 292.987 116.83 294.254 117.246C294.819 117.431 293.46 120.424 293.322 120.738C293.536 120.452 295.23 118.169 295.879 118.649C296.528 119.136 294.948 121.834 294.781 122.119C294.965 121.89 296.452 120.094 297.177 120.688C297.49 120.952 296.997 122.776 296.111 125.314Z" fill="#FBD36E"/>
<path d="M340.4 185.248C340.4 185.248 351.834 183.995 356.658 173.438L343.973 174.155L340.4 185.248Z" fill="#102048"/>
<path d="M353.026 173.558L342.068 180.358L346.998 187.609L357.564 180.399L353.026 173.558Z" fill="#FBD36E"/>
<path d="M364.341 190.615L357.564 180.398L346.998 187.609L348.797 190.257L347.726 204.392L364.341 190.615Z" fill="#102048"/>
<path d="M354.141 189.626L348.776 189.899L348.813 190.613L354.178 190.34L354.141 189.626Z" fill="white"/>
<path d="M321.821 192.882L309.792 192.166V201.922L322.732 201.099L321.821 192.882Z" fill="#FBD36E"/>
<path d="M309.792 201.922V204.215L300.739 213.28H324.083L322.732 201.1L309.792 201.922Z" fill="#102048"/>
<path d="M309.686 204.067L309.327 204.687L314.453 207.667L314.812 207.048L309.686 204.067Z" fill="white"/>
<path d="M321.212 130.604C321.027 135.041 320.991 139.722 321.07 144.439C321.142 148.532 321.292 152.656 321.505 156.684C322.534 176.702 324.914 194.431 324.914 194.431L306.334 196.822C297.524 135.271 303.241 109.262 303.241 109.262L311.338 107.609L318.527 106.141L326.587 104.495C326.487 104.645 326.387 104.802 326.295 104.968C325.065 106.979 324.094 109.656 323.344 112.834C322.164 117.778 321.506 123.92 321.212 130.604Z" fill="#102A54"/>
<path d="M321.507 156.683C313.718 140.101 316.641 126.917 316.641 126.917L321.214 130.603C321.029 135.04 320.992 139.721 321.072 144.438C321.142 148.531 321.292 152.653 321.507 156.683Z" fill="#1F3C88"/>
<path d="M356.658 173.439C347.726 176.839 340.401 185.248 340.401 185.248C332.689 171.6 326.108 157.894 321.07 144.438C316.876 133.245 313.752 122.222 311.945 111.559C311.723 110.236 311.516 108.918 311.337 107.609C311.316 107.487 311.294 107.358 311.28 107.237L318.526 106.141L326.294 104.968L330.217 104.373C330.639 106.878 331.204 109.497 331.882 112.195C338.642 139.135 356.658 173.439 356.658 173.439Z" fill="#102A54"/>
<g opacity="0.8">
<path d="M340.939 139.124C340.825 138.841 340.711 138.559 340.599 138.274C339.135 137.336 337.735 136.305 336.529 135.065C333.161 131.605 331.456 126.479 332.084 121.688C332.278 120.211 332.693 118.763 333.295 117.392C333.219 117.131 333.145 116.871 333.07 116.61C332.304 118.193 331.777 119.887 331.551 121.617C330.904 126.568 332.665 131.865 336.144 135.439C337.561 136.896 339.221 138.065 340.939 139.124Z" fill="white"/>
<path d="M350.287 160.499C350.212 160.34 350.138 160.182 350.063 160.021C348.091 160.827 345.729 160.966 343.277 161.105C340.803 161.245 338.244 161.391 336 162.267C333.72 163.157 331.952 164.745 330.669 166.693C330.761 166.883 330.854 167.072 330.946 167.262C332.185 165.279 333.922 163.657 336.195 162.768C338.36 161.923 340.875 161.78 343.307 161.641C345.727 161.504 348.196 161.358 350.287 160.499Z" fill="white"/>
<path d="M307.481 158.459C313.424 161.481 318.239 166.547 322.495 171.299C322.471 171.006 322.447 170.711 322.423 170.415C318.251 165.782 313.531 160.933 307.724 157.98C305.87 157.038 303.962 156.345 302.057 155.902C302.068 156.089 302.079 156.276 302.091 156.464C303.902 156.9 305.717 157.563 307.481 158.459Z" fill="white"/>
<path d="M323.919 186.069C322.432 186.425 320.806 186.335 319.463 186.02C318.065 185.691 316.696 185.149 315.37 184.626C313.959 184.066 312.499 183.49 310.984 183.159C308.873 182.698 306.661 182.754 304.554 183.262C304.575 183.439 304.598 183.621 304.619 183.799C306.665 183.296 308.818 183.234 310.87 183.683C312.343 184.006 313.781 184.575 315.173 185.125C316.518 185.656 317.905 186.205 319.34 186.542C320.733 186.869 322.418 186.963 323.979 186.604C323.959 186.43 323.937 186.248 323.919 186.069Z" fill="white"/>
<path d="M305.871 135.683C306.066 139.431 304.369 143.118 301.576 145.556C301.583 145.782 301.591 146.016 301.6 146.245C304.709 143.708 306.617 139.713 306.405 135.654C306.217 132.046 304.362 128.666 301.593 126.414C301.584 126.636 301.576 126.863 301.567 127.089C304.049 129.242 305.697 132.361 305.871 135.683Z" fill="white"/>
</g>
<path opacity="0.4" d="M331.882 112.196C329.038 112.712 326.144 112.876 323.342 112.833C319.176 112.761 315.224 112.211 311.944 111.559C306.756 110.536 303.239 109.262 303.239 109.262L311.336 107.609C311.315 107.487 311.294 107.358 311.28 107.237L318.526 106.141L326.586 104.495C326.486 104.645 326.385 104.802 326.293 104.968L330.217 104.373C330.638 106.878 331.203 109.497 331.882 112.196Z" fill="#1F3C88"/>
<path d="M321.07 144.796C320.923 144.796 320.786 144.704 320.734 144.558L315.572 130.02L309.368 126.269C309.2 126.167 309.146 125.946 309.248 125.778C309.351 125.608 309.571 125.555 309.738 125.657L316.16 129.54L321.408 144.318C321.475 144.505 321.377 144.71 321.192 144.775C321.151 144.79 321.11 144.796 321.07 144.796Z" fill="#1F3C88"/>
<path d="M333.254 107.151C321.285 111.71 300.739 109.148 300.739 109.148C301.576 100.438 301.633 74.6724 315.032 71.4521L321.021 72.082C324.158 73.3135 326.609 78.0087 328.453 83.5828C329.561 86.9036 330.447 90.54 331.147 93.9456C332.618 101.067 333.254 107.151 333.254 107.151Z" fill="#EBAB00"/>
<path d="M331.145 93.9462C325.508 90.6609 324.32 83.2607 324.32 83.2607L328.451 83.5835C329.56 86.9042 330.446 90.5392 331.145 93.9462Z" fill="#FBD36E"/>
<path d="M321.016 72.0783L320.212 83.6187L332.511 90.1965L335.001 78.2399C324.188 71.8419 321.016 72.0783 321.016 72.0783Z" fill="#EBAB00"/>
<path d="M344.445 87.9415C344.153 88.3845 343.823 88.8007 343.452 89.18C342.78 89.8821 341.986 90.454 341.1 90.8828C339.793 91.5198 338.362 91.7916 336.948 91.7052C335.762 91.633 334.596 91.3047 333.517 90.7314L332.51 90.1949L335.004 78.2355C335.669 78.6361 336.362 79.0508 337.097 79.5023C337.097 79.5023 346.831 65.7254 347.545 65.9972C348.188 66.2336 347.094 68.3667 346.873 68.7885C347.295 68.1657 350.453 63.5286 351.297 63.8499C351.969 64.1005 351.119 66.1614 351.012 66.4119C351.205 66.1331 352.898 63.6348 353.92 64.2363C354.392 64.5152 352.569 67.2202 352.391 67.4934C352.613 67.2782 354.635 65.3178 355.136 65.9052C355.65 66.4997 353.686 68.8395 353.464 69.1042C353.664 68.9259 355.393 67.4155 355.944 68.1445C356.665 69.083 347.819 82.7877 344.445 87.9415Z" fill="#FBD36E"/>
<path opacity="0.4" d="M343.452 89.1805C342.781 89.8826 341.986 90.4544 341.1 90.8833C339.793 91.5203 338.363 91.792 336.948 91.7057C336.884 91.4481 336.854 91.1834 336.854 90.9116C336.854 88.9653 338.433 87.3828 340.378 87.3828C341.694 87.3828 342.846 88.1061 343.452 89.1805Z" fill="#EB5D60"/>
<path d="M313.617 106.723C308.336 106.723 303.602 106.385 301.282 106.185C301.123 106.171 301.027 106.163 301.002 106.163C300.856 106.156 300.739 106.034 300.743 105.888C300.746 105.742 300.862 105.626 301.009 105.626C301.027 105.626 301.136 105.635 301.328 105.652C306.619 106.106 324.507 107.291 332.607 103.504C332.738 103.442 332.901 103.5 332.963 103.635C333.025 103.769 332.967 103.929 332.833 103.991C328.196 106.157 320.448 106.723 313.617 106.723Z" fill="#273660"/>
<path d="M316.423 79.5884C313.581 79.5884 312.324 77.7086 312.306 77.6803C312.227 77.5557 312.262 77.3901 312.385 77.3108C312.509 77.2302 312.673 77.2655 312.755 77.3901C312.849 77.5317 315.092 80.8326 320.741 77.7765C320.871 77.7086 321.032 77.7553 321.104 77.8855C321.175 78.0158 321.125 78.1785 320.995 78.2493C319.161 79.2402 317.644 79.5884 316.423 79.5884Z" fill="#273660"/>
<path d="M325.83 49.6423C327.331 48.7972 329.356 48.7208 330.686 49.815C331.38 50.3854 331.826 51.2036 332.47 51.8306C333.851 53.1739 335.998 53.5108 337.321 54.9121C338.342 55.9936 338.707 57.5718 338.605 59.0567C338.502 60.5415 337.982 61.9641 337.428 63.3456C336.638 65.3188 335.726 67.3231 334.148 68.7442C333.544 69.2878 332.837 69.7408 332.047 69.9219C331.257 70.1045 330.374 69.987 329.731 69.493C329.053 68.9707 328.718 68.096 328.66 67.2396C328.6 66.3846 328.783 65.5325 328.964 64.6945C329.395 64.9607 329.977 64.955 330.404 64.6818C330.831 64.4086 331.079 63.8806 331.019 63.3781C330.917 62.5246 330.076 61.9881 329.323 61.5748C328.075 60.8897 326.827 60.2046 325.577 59.5195C324.847 59.119 324.1 58.7056 323.551 58.0786C322.632 57.0311 321.896 54.7267 322.503 53.4046C323.179 51.9382 324.42 50.4364 325.83 49.6423Z" fill="#FBB81D"/>
<path d="M311.012 56.6008C311.012 56.6008 310.935 48.1206 321.451 50.3557C323.23 50.7336 324.786 51.6947 325.929 53.1116C327.641 55.232 328.736 64.1467 323.845 66.621C317.712 69.7209 311.012 56.6008 311.012 56.6008Z" fill="#FBC343"/>
<path d="M321.907 63.7578L321.663 72.2748C321.598 74.4362 319.891 76.19 317.733 76.3047C317.661 76.3117 317.59 76.3117 317.518 76.3117C315.103 76.3117 313.181 74.2366 313.388 71.7963L313.403 71.6605L313.959 65.1903L314.668 65.0615L321.907 63.7578Z" fill="#FBD36E"/>
<path d="M318.304 66.7992C318.304 66.7992 316.99 70.0775 313.401 71.6586L313.958 65.1884L314.666 65.0596L318.304 66.7992Z" fill="#102048"/>
<path d="M311.012 56.601C311.012 56.601 308.332 67.7833 313.96 68.3212C319.588 68.8577 321.91 63.7591 321.91 63.7591L322.625 57.4078L319.141 52.3984L313.602 54.0984L311.012 56.601Z" fill="#FBD36E"/>
<path d="M311.012 56.6009C311.012 56.6009 316.189 53.6921 318.068 57.5847C319.379 60.2981 321.374 61.7901 323.339 60.8955C325.303 60.0009 323.696 53.559 323.696 53.559L316.371 51.6807L311.994 54.1861L311.012 56.6009Z" fill="#FBC343"/>
<path d="M323.59 62.1615C324.266 60.9896 324.03 59.5862 323.062 59.0268C322.095 58.4675 320.763 58.964 320.087 60.1359C319.412 61.3078 319.648 62.7112 320.616 63.2706C321.583 63.8299 322.915 63.3334 323.59 62.1615Z" fill="#FBD36E"/>
<path d="M321.285 62.1168C321.281 62.1168 321.276 62.1168 321.272 62.1168C321.175 62.1097 321.101 62.0248 321.107 61.9257C321.152 61.2902 321.553 60.0898 322.743 60.0898C322.842 60.0898 322.921 60.1705 322.921 60.2682C322.921 60.3659 322.841 60.4465 322.743 60.4465C321.587 60.4465 321.467 61.8889 321.461 61.9512C321.456 62.0446 321.377 62.1168 321.285 62.1168Z" fill="#102048"/>
<path d="M311.865 60.6174C311.865 60.8693 311.662 61.0746 311.409 61.0746C311.157 61.0746 310.952 60.8707 310.952 60.6174C310.952 60.3654 311.156 60.1602 311.409 60.1602C311.66 60.1602 311.865 60.3654 311.865 60.6174Z" fill="#102048"/>
<path d="M314.899 61.0887C315.178 61.0887 315.405 60.8618 315.405 60.5819C315.405 60.3021 315.178 60.0752 314.899 60.0752C314.619 60.0752 314.393 60.3021 314.393 60.5819C314.393 60.8618 314.619 61.0887 314.899 61.0887Z" fill="#102048"/>
<path d="M312.819 63.4024C312.423 63.4024 312.155 63.2779 312.02 63.0316C311.667 62.3861 312.485 61.1759 312.653 60.9395C312.71 60.8588 312.82 60.8404 312.904 60.897C312.984 60.9536 313.003 61.0655 312.946 61.1462C312.511 61.7576 312.162 62.5418 312.334 62.8575C312.409 62.9948 312.605 63.0542 312.909 63.0401C312.912 63.0401 312.916 63.0401 312.919 63.0401C313.014 63.0401 313.092 63.1137 313.097 63.2099C313.101 63.309 313.027 63.3925 312.928 63.3982C312.889 63.401 312.854 63.4024 312.819 63.4024Z" fill="#102048"/>
<path opacity="0.4" d="M318.051 64.1022C318.866 63.7641 319.253 62.8285 318.916 62.0123C318.578 61.1962 317.644 60.8086 316.829 61.1467C316.014 61.4847 315.627 62.4204 315.965 63.2366C316.302 64.0527 317.237 64.4403 318.051 64.1022Z" fill="#EB5D60"/>
<path d="M313.041 64.9494C312.559 64.9494 312.226 64.7824 312.199 64.7682C312.111 64.7229 312.077 64.6153 312.123 64.5276C312.168 64.4398 312.275 64.4044 312.363 64.4497C312.404 64.4709 313.368 64.9451 314.366 64.0251C314.439 63.9585 314.551 63.9642 314.619 64.0364C314.685 64.1086 314.679 64.2218 314.607 64.2898C314.042 64.8107 313.479 64.9494 313.041 64.9494Z" fill="#102048"/>
<path d="M312.409 59.608C312.073 59.5358 311.768 59.4395 311.485 59.4438C311.344 59.4339 311.212 59.4523 311.078 59.4891C310.937 59.5117 310.809 59.5882 310.643 59.6533L310.626 59.6604C310.569 59.6816 310.506 59.6547 310.484 59.5981C310.473 59.5698 310.474 59.54 310.486 59.5146C310.565 59.3348 310.699 59.1649 310.889 59.0602C311.074 58.9583 311.294 58.9045 311.503 58.913C311.92 58.9512 312.289 59.1239 312.532 59.4395C312.569 59.4877 312.561 59.5556 312.512 59.5924C312.487 59.6122 312.455 59.6193 312.423 59.6122L312.409 59.608Z" fill="#102048"/>
<path d="M313.733 59.452C313.981 59.0231 314.433 58.723 314.97 58.6664C315.236 58.648 315.513 58.7074 315.738 58.8376C315.967 58.9636 316.14 59.1505 316.266 59.3585C316.297 59.4095 316.28 59.476 316.229 59.5072C316.198 59.5256 316.162 59.527 316.13 59.5142L316.119 59.5086C315.911 59.418 315.735 59.3132 315.547 59.2665C315.367 59.2 315.186 59.183 315.005 59.1972C314.641 59.2042 314.268 59.3911 313.887 59.5935L313.875 59.6006C313.823 59.6289 313.759 59.6091 313.731 59.5567C313.714 59.5227 313.715 59.4831 313.733 59.452Z" fill="#102048"/>
<path d="M398.998 212.923H2.38672V213.639H398.998V212.923Z" fill="#102048"/>
</g>
<defs>
<clipPath id="clip0_402_39712">
<rect width="399" height="214" fill="white"/>
</clipPath>
</defs>
</svg>
