<svg width="200" height="64" viewBox="0 0 200 64" fill="none" xmlns="http://www.w3.org/2000/svg">
<path d="M164.546 11.4872C164.468 12.3709 164.082 13.1765 163.412 13.7743C162.767 14.372 161.917 14.6579 161.04 14.6319C160.164 14.606 159.339 14.2421 158.747 13.6184C158.128 12.9946 157.793 12.137 157.767 11.2793C157.844 10.3957 158.231 9.59002 158.901 8.99226C159.546 8.39451 160.396 8.10863 161.272 8.13462C162.149 8.16061 162.974 8.52446 163.566 9.1482C164.185 9.74595 164.546 10.6036 164.546 11.4872Z" fill="#273660"/>
<path d="M109.775 8.05655C110.187 8.03056 110.625 8.08254 111.038 8.21248C111.45 8.34243 111.811 8.57633 112.12 8.86222C112.429 9.1481 112.687 9.48596 112.893 9.8758C113.074 10.2656 113.177 10.6815 113.203 11.1233C113.228 11.5651 113.177 12.0069 113.022 12.4487C112.868 12.8646 112.636 13.2544 112.352 13.5923C112.043 13.9301 111.682 14.19 111.295 14.3719C110.883 14.5539 110.445 14.6578 110.007 14.6578C109.568 14.6838 109.13 14.6058 108.718 14.4499C108.306 14.294 107.919 14.0601 107.61 13.7482C107.3 13.4363 107.043 13.0725 106.862 12.6567C106.682 12.2408 106.579 11.799 106.579 11.3572C106.604 10.4995 106.965 9.66788 107.558 9.07013C108.099 8.44638 108.924 8.10852 109.775 8.05655Z" fill="#273660"/>
<path d="M145.112 8.00464C145.962 8.03063 146.787 8.39447 147.38 8.99223C147.999 9.58998 148.334 10.4216 148.385 11.2793C148.385 12.1889 148.05 13.0466 147.406 13.6963C146.787 14.346 145.911 14.7099 145.035 14.7099C144.132 14.7099 143.282 14.372 142.638 13.7223C141.993 13.0985 141.632 12.2149 141.632 11.3053C141.632 10.8635 141.735 10.4216 141.916 10.0058C142.096 9.58998 142.354 9.22614 142.689 8.91426C143.024 8.60239 143.385 8.36849 143.797 8.21255C144.21 8.05661 144.648 8.00464 145.112 8.00464Z" fill="#273660"/>
<path d="M136.271 8.00464C137.122 8.00464 137.972 8.34249 138.591 8.94025C139.21 9.538 139.596 10.3697 139.622 11.2273C139.622 11.6691 139.519 12.1369 139.364 12.5528C139.184 12.9686 138.926 13.3584 138.617 13.6703C138.307 13.9822 137.921 14.2421 137.508 14.398C137.096 14.5539 136.658 14.6319 136.194 14.6319C135.343 14.6059 134.519 14.2421 133.9 13.6183C133.307 12.9946 132.972 12.1629 132.972 11.2793C132.972 10.8375 133.075 10.4216 133.23 10.0058C133.41 9.61597 133.642 9.25212 133.952 8.94025C134.261 8.62838 134.622 8.39448 135.008 8.23854C135.421 8.0826 135.833 8.00464 136.271 8.00464Z" fill="#273660"/>
<path fill-rule="evenodd" clip-rule="evenodd" d="M197.564 26.1971C194.935 20.5834 187.022 18.6862 182.692 21.519C172.227 28.3802 181.094 37.8403 171.119 37.8403C164.65 37.8403 164.392 37.0866 164.392 31.5249V24.6897C164.392 21.1292 163.438 20.2455 161.196 20.2455C159.005 20.2455 158.077 21.1292 158.077 24.6897C158.077 26.6129 158.077 32.9543 158.051 34.8775C158 37.7104 157.355 38.1262 150.551 38.1262C144.236 38.1262 143.875 37.6584 143.875 35.0594C143.875 34.0459 143.927 26.9508 143.927 24.6637C143.927 21.1032 142.87 20.2196 140.628 20.2196C138.437 20.2196 137.586 21.1032 137.586 24.6637C137.586 28.1203 137.612 31.6029 137.561 35.0594C137.509 37.7104 136.968 38.2042 134.364 38.2042H126.142C123.153 38.2042 123.281 37.2685 123.281 32.3306C123.281 20.1676 107.714 16.4511 100.162 24.7937C99.4916 25.5214 98.1771 24.9496 98.2286 23.962V5.50962C98.2802 3.82032 96.811 2.28695 95.1357 2.28695C93.4346 2.26096 91.9396 3.76834 91.9654 5.48363C91.9396 5.48363 91.9654 35.8651 91.9654 36.5668C91.9654 38.1782 91.0891 38.1522 88.6405 38.1522C88.6405 38.1522 83.9238 38.0742 81.5783 38.0742C77.2224 38.0742 77.5575 33.8899 77.5575 30.6932C77.5575 24.6377 72.3768 20.2196 66.2167 20.2196C59.8762 20.2196 54.2315 24.6637 54.2315 30.8232C54.2315 32.9023 54.1027 34.9555 54.18 37.0086C54.18 37.3205 54.0511 37.6324 53.8449 37.8403C53.6387 38.0742 53.3294 38.1782 53.0201 38.1782H51.4221C50.0561 38.2301 48.7931 38.516 47.6848 38.9838C44.9785 31.8628 33.9986 29.5757 28.2508 35.0335C26.8332 36.3849 26.06 36.4369 25.1579 36.4369C24.2558 36.4369 23.4568 36.4109 22.1938 34.9815C18.972 31.369 12.8119 31.1351 7.24461 33.5781C2.11549 35.8131 0.852539 40.8811 0.852539 46.7806C0.852539 46.7806 0.955636 58.5538 0.955636 60.6329C0.955636 63.8816 3.68773 63.8816 4.20322 63.8816C4.71871 63.8816 7.29617 63.8816 7.29617 60.6329C7.29617 58.8137 7.39926 48.4699 7.39926 46.7806C7.39926 35.6312 22.1165 35.4493 21.9876 46.7806V60.6329C21.9876 63.8816 24.7455 63.8816 25.261 63.8816C25.7765 63.8816 28.457 63.8816 28.457 60.6329V46.7806C28.4055 44.5975 29.1272 42.4924 30.519 40.8291C32.9676 37.6844 38.7153 37.5024 40.9834 40.6991C42.5041 42.7783 42.8392 45.3772 42.7103 47.8982V60.6329C42.7103 63.8816 45.4167 63.8556 45.8548 63.8556C46.2414 63.8556 49.1024 63.8816 49.1024 60.6329C49.1024 58.6058 49.1797 49.2756 49.1797 47.5603C49.1797 43.9478 56.9379 44.8054 56.9379 44.8054C62.3763 44.8314 69.7478 46.0789 74.5418 41.4788C74.7738 41.2449 75.0831 41.1409 75.3924 41.1409C75.7017 41.1409 76.011 41.2969 76.2172 41.5308C78.5111 44.3376 81.6041 44.9354 85.1867 44.8574C94.3624 44.6755 103.538 44.7535 112.714 44.8314C116.013 44.8574 119.183 44.7275 121.529 42.2325C121.735 42.0246 122.018 41.8946 122.302 41.8946C128.591 46.1829 135.576 46.1049 142.561 41.7647C148.283 46.2868 156.041 46.0009 163.155 41.7647C167.691 45.6631 173.104 46.5467 178.258 41.8427C178.697 41.4528 179.393 41.4788 179.805 41.8946C191.12 51.0429 203.698 38.672 197.564 26.1971ZM64.7733 38.1782H61.5257C61.0618 38.1782 60.5978 37.8663 60.4432 37.4245C60.3143 32.8764 59.9793 25.5214 66.294 25.9112C69.0519 26.0412 70.753 27.8084 71.1138 30.9271C71.7324 36.229 70.0313 38.1782 64.7733 38.1782ZM116.709 36.9307C116.297 37.6064 115.549 38.0742 114.776 38.1262C109.801 38.2301 104.801 38.1782 99.8266 38.1782C99.1565 38.2042 98.6926 37.5544 98.6926 36.8787C98.6926 31.0831 104.595 26.431 109.956 26.379C115.085 26.327 118.822 32.1227 116.709 36.9307ZM192.873 32.6165C193.362 40.0234 182.228 40.0234 182.563 32.7464C182.666 24.4558 192.77 24.3259 192.873 32.6165Z" fill="url(#paint0_linear_641_2397)"/>
<path d="M111.141 47.872C110.832 47.5861 110.471 47.3522 110.058 47.1963C109.723 47.0664 109.362 47.0144 109.002 47.0144C108.976 47.0144 108.95 47.0144 108.924 47.0144H98.0732C97.6608 46.9884 97.2484 47.0664 96.8618 47.1963C96.4494 47.3522 96.0885 47.5602 95.7792 47.872C95.4699 48.1579 95.238 48.5218 95.0575 48.9116C94.8771 49.3014 94.7998 49.7173 94.7998 50.1591C94.7998 50.6009 94.8771 51.0167 95.0575 51.4066C95.238 51.7964 95.4699 52.1603 95.7792 52.4461C96.0885 52.732 96.4494 52.9659 96.8618 53.1219C97.2484 53.2518 97.6608 53.3298 98.0732 53.3038H100.264V60.5288C100.238 60.9446 100.316 61.3865 100.47 61.7763C100.625 62.1921 100.857 62.556 101.14 62.8678C101.579 63.3616 102.146 63.6995 102.79 63.8295C103.022 63.8814 103.254 63.9074 103.486 63.9074C103.898 63.9074 104.336 63.8295 104.723 63.6475C105.342 63.3876 105.831 62.9458 106.192 62.3741C106.527 61.8283 106.708 61.1785 106.682 60.5288V53.3038H108.898C109.311 53.3298 109.723 53.2518 110.11 53.1219C110.522 52.9659 110.883 52.758 111.192 52.4461C111.502 52.1603 111.734 51.7964 111.914 51.4066C112.094 51.0167 112.172 50.6009 112.172 50.1591C112.172 49.7173 112.094 49.3014 111.914 48.9116C111.734 48.5218 111.45 48.1579 111.141 47.872Z" fill="#273660"/>
<path d="M70.4688 50.1071C70.4688 49.6913 70.4173 49.2755 70.2626 48.8596C70.108 48.4438 69.876 48.0799 69.5667 47.7681C69.2574 47.4562 68.8966 47.2223 68.5099 47.0664C68.1233 46.9104 67.7109 46.8324 67.2985 46.8324C66.8862 46.8065 66.4738 46.8844 66.0871 47.0404C65.6748 47.1963 65.3139 47.4302 65.0046 47.7421C64.6953 48.0539 64.4633 48.4178 64.3087 48.8336C64.1541 49.2235 64.0767 49.6393 64.1025 50.0811V55.305C64.1025 55.331 64.1025 55.3829 64.1025 55.4089C64.1283 55.7208 64.1025 56.0327 63.9994 56.3445C63.9221 56.6044 63.7932 56.8383 63.6386 57.0463C63.1231 57.4101 62.5045 57.592 61.8601 57.592C61.2158 57.592 60.6229 57.4101 60.0817 57.0463C59.927 56.8383 59.7982 56.6044 59.7208 56.3445C59.6177 56.0327 59.592 55.7208 59.6177 55.4089C59.6177 55.3829 59.6177 55.331 59.6177 55.305V50.1071C59.6177 49.6913 59.5662 49.2755 59.4115 48.8596C59.2569 48.4698 59.0507 48.1059 58.7414 47.7941C58.3032 47.3003 57.7362 46.9364 57.0918 46.8065C56.4217 46.6505 55.7516 46.7025 55.133 46.9624C54.5144 47.2223 53.9989 47.6641 53.6381 48.2619C53.303 48.8336 53.1483 49.4834 53.1741 50.1331V55.305C53.1226 56.4485 53.303 57.592 53.7154 58.6576C54.1278 59.7491 54.7464 60.7107 55.5711 61.5424C55.5969 61.5684 55.6227 61.5684 55.6227 61.5944C57.3496 63.1277 59.5404 63.9074 61.8344 63.8035C61.9632 63.8035 62.0921 63.8035 62.221 63.8035C64.3603 63.8035 66.3964 63.0238 68.0202 61.5944C68.046 61.5684 68.0718 61.5684 68.0718 61.5424C68.8966 60.7107 69.5152 59.7491 69.9275 58.6576C70.3399 57.592 70.5204 56.4485 70.4688 55.305V50.1071Z" fill="#273660"/>
<path d="M89.8254 47.794C89.5161 47.4822 89.1553 47.2483 88.7687 47.0923C88.5109 46.9884 88.2274 46.9104 87.9439 46.8844C87.8408 46.8584 87.7119 46.8324 87.6088 46.8324C87.1706 46.8064 86.7582 46.8844 86.3458 47.0404C85.9335 47.1963 85.5726 47.4302 85.2633 47.7421C84.954 48.0539 84.7221 48.4178 84.5674 48.8336C84.4128 49.2235 84.3354 49.6393 84.3612 50.0811V52.654L80.4435 48.3658C80.0826 47.95 79.6703 47.5861 79.2063 47.3003C79.1805 47.3003 79.1548 47.2743 79.1548 47.2743C78.6135 46.9624 78.0207 46.8324 77.4021 46.8324C76.9897 46.8064 76.5773 46.8844 76.1907 47.0404C75.7783 47.1963 75.4175 47.4302 75.1082 47.7421C74.7989 48.0539 74.5669 48.4178 74.4122 48.8336C74.2576 49.2235 74.1803 49.6393 74.2061 50.0811V60.5548C74.2061 61.4124 74.5411 62.2441 75.1339 62.8419C75.7267 63.4396 76.5515 63.8035 77.4021 63.8035C78.2527 63.8035 79.0774 63.4656 79.6702 62.8419C80.2631 62.2181 80.5981 61.4124 80.5981 60.5548V57.9819L84.4643 62.2181C84.8252 62.6339 85.2375 62.9978 85.7015 63.2837C85.7015 63.2837 85.7273 63.2837 85.7273 63.3097C86.2685 63.6215 86.8613 63.7775 87.4799 63.7775C87.8923 63.7775 88.3047 63.7255 88.7171 63.5696C89.1295 63.4136 89.4903 63.1797 89.7996 62.8678L89.8254 62.8419C90.1347 62.53 90.3409 62.1661 90.4955 61.7763C90.6502 61.3864 90.7275 60.9706 90.7017 60.5288V50.1331C90.7017 49.7173 90.6502 49.3014 90.4955 48.8856C90.3667 48.4698 90.1347 48.1059 89.8254 47.794Z" fill="#273660"/>
<path d="M166.865 53.1219C167.278 52.966 167.638 52.7581 167.948 52.4462C168.257 52.1603 168.489 51.7965 168.669 51.4066C168.85 51.0168 168.927 50.601 168.927 50.1592C168.927 49.7173 168.85 49.3015 168.669 48.9117C168.489 48.5218 168.257 48.158 167.948 47.8721C167.638 47.5862 167.278 47.3523 166.865 47.1964C166.479 47.0404 166.066 46.9884 165.654 47.0144H159.648C159.236 46.9884 158.824 47.0664 158.437 47.1964C158.025 47.3523 157.664 47.5602 157.354 47.8721C157.045 48.158 156.787 48.5218 156.633 48.9117C156.452 49.3015 156.375 49.7173 156.375 50.1592C156.375 50.601 156.452 51.0168 156.633 51.4066C156.813 51.7965 157.045 52.1603 157.354 52.4462C157.664 52.7321 158.025 52.966 158.437 53.1219C158.746 53.2519 159.107 53.3039 159.442 53.3039V57.3062C159.107 57.3062 158.772 57.3842 158.437 57.4881C158.025 57.6441 157.664 57.852 157.354 58.1639C157.045 58.4497 156.787 58.8136 156.633 59.2034C156.452 59.5933 156.375 60.0091 156.375 60.4509C156.375 60.8927 156.452 61.3086 156.633 61.6984C156.813 62.0882 157.045 62.4521 157.354 62.738C157.664 63.0238 158.025 63.2578 158.437 63.4137C158.772 63.5436 159.133 63.5956 159.494 63.5956C159.545 63.5956 159.597 63.5956 159.648 63.5956H165.654C166.066 63.6216 166.479 63.5436 166.865 63.4137C167.278 63.2578 167.638 63.0498 167.948 62.738C168.257 62.4521 168.489 62.0882 168.669 61.6984C168.85 61.3086 168.927 60.8927 168.927 60.4509C168.927 60.0091 168.85 59.5933 168.669 59.2034C168.489 58.8136 168.257 58.4497 167.948 58.1639C167.638 57.878 167.278 57.6441 166.865 57.4881C166.53 57.3582 166.195 57.3062 165.86 57.3062V53.3039C166.195 53.3039 166.53 53.2519 166.865 53.1219Z" fill="#273660"/>
<path d="M193.259 49.4313C193.233 49.4054 193.207 49.3794 193.182 49.3534C192.486 48.6257 191.661 48.0539 190.733 47.6901C189.831 47.3262 188.851 47.1703 187.898 47.2223C186.429 47.1963 185.011 47.6381 183.851 48.5217C183.361 48.1059 182.794 47.794 182.202 47.5601C181.454 47.2742 180.681 47.1443 179.882 47.1963C178.439 47.1703 177.047 47.4042 175.681 47.898C175.655 47.898 175.629 47.924 175.629 47.924C172.717 49.1974 171.943 52.4201 171.943 54.1094V60.5028C171.943 61.3864 172.278 62.1921 172.897 62.8158C173.49 63.4136 174.34 63.7774 175.191 63.7774C176.067 63.7774 176.866 63.4396 177.485 62.8158C178.103 62.1921 178.439 61.3864 178.439 60.5028V54.9931C178.439 54.9671 178.439 54.9671 178.439 54.9411C178.413 54.5512 178.567 54.1614 178.799 53.8495C178.877 53.7716 178.954 53.6936 179.057 53.6416C179.16 53.5896 179.263 53.5636 179.366 53.5896C179.392 53.5896 179.444 53.5896 179.47 53.5896C179.573 53.5896 179.65 53.6156 179.753 53.6416C179.83 53.6676 179.908 53.7456 179.959 53.7976C180.191 54.1094 180.32 54.5253 180.294 54.9151C180.294 54.9411 180.294 54.9671 180.294 54.9671V60.4768C180.294 61.3604 180.629 62.1661 181.248 62.7899C181.867 63.4136 182.691 63.7515 183.542 63.7515C184.392 63.7515 185.243 63.3876 185.836 62.7899C186.454 62.1661 186.789 61.3344 186.789 60.4768V54.9671C186.789 54.9411 186.789 54.9411 186.789 54.9151C186.764 54.5253 186.893 54.1614 187.15 53.8495C187.228 53.7716 187.331 53.6936 187.434 53.6416C187.537 53.5896 187.666 53.5636 187.769 53.5896C187.82 53.5896 187.872 53.5896 187.924 53.5896C188.001 53.5896 188.078 53.5896 188.13 53.6156C188.181 53.6416 188.233 53.6676 188.284 53.7196C188.491 54.0574 188.594 54.4473 188.594 54.8371C188.594 54.8631 188.594 54.8891 188.594 54.8891V60.4508C188.594 61.3345 188.929 62.1401 189.547 62.7639C190.14 63.3876 190.991 63.7255 191.841 63.7255C192.718 63.7255 193.517 63.3876 194.135 62.7639C194.754 62.1401 195.089 61.3085 195.089 60.4508V54.9151C195.166 52.9659 194.522 50.9907 193.259 49.4313Z" fill="#273660"/>
<path d="M151.839 58.1378C151.53 57.8519 151.169 57.618 150.756 57.4621C150.344 57.3061 149.932 57.2541 149.494 57.2801C149.442 57.2801 149.39 57.2801 149.339 57.3061H146.736L151.401 52.784C151.787 52.4461 152.071 52.0043 152.277 51.5365C152.483 51.0427 152.612 50.5489 152.612 50.0291C152.612 49.5613 152.509 49.1195 152.329 48.7037C152.123 48.2878 151.813 47.924 151.427 47.6381C150.782 47.1703 149.983 46.9364 149.21 46.9624H139.416C139.003 46.9364 138.591 47.0144 138.204 47.1443C137.792 47.3002 137.431 47.5082 137.122 47.82C136.812 48.1059 136.581 48.4698 136.4 48.8596C136.22 49.2494 136.142 49.6653 136.142 50.1071C136.142 50.5489 136.22 50.9647 136.4 51.3546C136.581 51.7444 136.812 52.1083 137.122 52.3941C137.431 52.68 137.792 52.9139 138.204 53.0699C138.591 53.1998 139.003 53.2778 139.416 53.2518H141.838L137.173 57.7739C136.787 58.1378 136.503 58.5536 136.297 59.0214C136.091 59.4892 135.962 60.009 135.962 60.5548C135.962 60.9966 136.065 61.4384 136.271 61.8543C136.477 62.2441 136.761 62.6079 137.122 62.8678C137.122 62.8678 137.148 62.8678 137.148 62.8938C137.792 63.3356 138.591 63.5695 139.364 63.5436H149.519C149.571 63.5436 149.622 63.5436 149.674 63.5436C150.035 63.5436 150.396 63.4916 150.731 63.3616C151.143 63.2057 151.504 62.9978 151.813 62.6859C152.123 62.4 152.38 62.0362 152.535 61.6463C152.715 61.2565 152.793 60.8407 152.793 60.3988C152.793 59.957 152.715 59.5412 152.535 59.1514C152.406 58.7875 152.148 58.4496 151.839 58.1378Z" fill="#273660"/>
<path d="M132.431 58.7875L127.482 49.4053C127.122 48.6516 126.554 48.0019 125.91 47.5081C125.884 47.4821 125.859 47.4821 125.833 47.4561C125.188 47.0403 124.441 46.8064 123.668 46.8064C123.616 46.8064 123.59 46.8064 123.539 46.8064C122.766 46.8064 122.018 47.0143 121.348 47.4301C121.322 47.4561 121.296 47.4561 121.271 47.4821C120.575 47.9759 120.034 48.6516 119.647 49.4313L114.75 58.7615C114.415 59.3072 114.234 59.931 114.208 60.5807C114.208 60.6067 114.208 60.6327 114.208 60.6587C114.208 61.0745 114.286 61.4644 114.466 61.8542C114.621 62.244 114.853 62.5819 115.136 62.8678C115.446 63.1537 115.781 63.3876 116.167 63.5435C116.554 63.6994 116.966 63.7774 117.379 63.7774C118.049 63.7774 118.719 63.5695 119.26 63.2056C119.802 62.8418 120.24 62.322 120.523 61.7243L121.039 60.7367H126.142L126.658 61.7243C126.915 62.322 127.328 62.8418 127.869 63.2056C128.436 63.5955 129.08 63.8034 129.751 63.8294C129.776 63.8294 129.776 63.8294 129.802 63.8294C130.214 63.8294 130.601 63.7514 130.962 63.5955C131.349 63.4395 131.684 63.2056 131.993 62.9198C132.276 62.6339 132.508 62.27 132.663 61.8802C132.818 61.4903 132.895 61.0745 132.895 60.6587C132.895 60.6327 132.895 60.6327 132.895 60.6067C132.921 59.957 132.74 59.3332 132.431 58.7875ZM124.905 56.5524H122.276C121.967 56.5524 121.786 56.2145 121.915 55.9546L123.23 53.4077C123.384 53.1218 123.797 53.1218 123.951 53.4077L125.266 55.9546C125.42 56.2405 125.214 56.5524 124.905 56.5524Z" fill="#273660"/>
<path d="M0.826172 46.8067C0.826172 46.8067 0.929268 58.5798 0.929268 60.659C0.929268 63.9076 3.66137 63.9076 4.17686 63.9076C4.69235 63.9076 7.2698 63.9076 7.2698 60.659C7.2698 58.8397 7.3729 48.496 7.3729 46.8067V46.7807H0.826172V46.8067Z" fill="#273660"/>
<path d="M21.9355 46.8067V60.659C21.9355 63.9076 24.6934 63.9076 25.2089 63.9076C25.7244 63.9076 28.405 63.9076 28.405 60.659V46.8067C28.405 46.7807 28.405 46.7547 28.405 46.7287H21.9355C21.9355 46.7547 21.9355 46.7807 21.9355 46.8067Z" fill="#273660"/>
<path d="M42.6582 47.8982V60.633C42.6582 63.8816 45.3645 63.8556 45.8027 63.8556C46.1893 63.8556 49.0503 63.8816 49.0503 60.633C49.0503 58.6058 49.1276 49.2757 49.1276 47.5604C49.1276 47.2485 49.1792 46.9626 49.308 46.7027H42.684C42.684 47.1185 42.684 47.5084 42.6582 47.8982Z" fill="#273660"/>
<defs>
<linearGradient id="paint0_linear_641_2397" x1="93.0506" y1="10.8665" x2="106.347" y2="77.0835" gradientUnits="userSpaceOnUse">
<stop stop-color="#D6A548"/>
<stop offset="1" stop-color="#FBD36E"/>
</linearGradient>
</defs>
</svg>
