<?xml version="1.0" encoding="UTF-8"?>
<!-- Generator: Adobe Illustrator 24.3.0, SVG Export Plug-In . SVG Version: 6.00 Build 0)  -->
<svg xmlns="http://www.w3.org/2000/svg" fill="white"
	xmlns:xlink="http://www.w3.org/1999/xlink" version="1.1" id="Capa_1" x="0px" y="0px" viewBox="0 0 497.748 497.748" style="enable-background:new 0 0 497.748 497.748;" xml:space="preserve" width="512" height="512">
	<g>
		<g>
			<g>
				<g id="XMLID_2_">
					<path d="M125.202,148.185c-0.327,12,1.491,26.592,8.173,42.509c-5.276,7.881-9.741,15.998-13.396,24.326      c-27.006-0.83-51.031,11.102-59.327,15.762c-6.309-4.349-11.186-10.279-14.534-17.67c-1.572-3.48-2.469-6.594-2.965-8.727      c19.569-13.678,46.679-18.354,46.961-18.403c2.745-0.457,4.712-2.907,4.563-5.684c-0.149-2.78-2.362-5.003-5.139-5.169      c-23.789-1.4-39.139-12.531-43.802-16.403c-0.363-15.418,4.67-26.786,7.803-32.327      C76.111,138.156,100.172,145.47,125.202,148.185z"/>
					<path d="M284.453,34.819c0.185,0.065,17.064,6.027,28.834,20.733c-18.092,11.789-52.399,40.895-82.296,104.691      c-19.842,42.347-36.482,65.225-48.258,77.536c-17.651-15.412-30.467-31.776-38.128-48.698c-0.01-0.019-0.016-0.039-0.026-0.058      c-6.724-14.867-9.482-29.958-8.231-44.988c0.016-0.117,0.029-0.233,0.042-0.35c0.01-0.104,0.013-0.201,0.016-0.301      c0.266-2.949,0.687-5.901,1.264-8.847c2.673-13.639,7.852-22.074,7.897-22.146c1.225-1.941,1.105-4.443-0.301-6.257      l-22.616-29.249l19.236-17.155l23.312,30.782c1.792,2.369,5.152,2.871,7.56,1.131l23.827-17.197      c2.239-1.614,2.923-4.64,1.601-7.061l-17.227-31.469l23.889-10.985l16.818,31.465c1.355,2.537,4.439,3.59,7.061,2.414      l25.409-11.394c2.725-1.225,3.966-4.401,2.793-7.145l-13.73-32.087L266.446,0l14.822,31.942      C281.89,33.299,283.047,34.336,284.453,34.819z"/>
					<path d="M451.151,322.443c6.847,58.585,3.445,106.519-9.835,138.613c-8.539,20.642-28.549,34.894-50.98,36.307      c-4.132,0.263-8.237,0.386-12.314,0.386c-53.737,0-102.53-21.672-134.918-40.633c-37.139-21.737-68.738-51.89-91.382-87.196      c-38.734-60.39-36.404-109.442-21.903-145.265c0.165-0.308,0.298-0.635,0.399-0.979c2.988-7.23,6.468-13.911,10.201-20.033      c8.289,14.984,20.263,29.421,35.723,43.06c-6.05,4.942-9.806,6.29-10.794,6.578c-2.897,0.852-4.553,3.892-3.701,6.792      c0.855,2.894,3.892,4.553,6.792,3.697c3.237-0.953,10.088-3.94,19.79-13.179c13.322-12.683,32.01-37.146,54.104-84.292      c28.99-61.868,61.803-89.48,78.78-100.436c1.193-0.768,2.43-1.432,3.701-1.986c9.767-4.277,21.433-2.275,29.067,5.379      c0.263,0.266,0.518,0.535,0.771,0.8c6.338,6.734,8.623,16.543,5.963,25.603c-2.654,9.012-6.439,17.301-10.992,25.185      c-0.185,0.256-0.35,0.538-0.486,0.83c-7.605,12.978-17.259,24.894-27.249,37.233c-11.099,13.701-22.441,27.703-30.937,43.588      c-0.136,0.214-0.256,0.441-0.363,0.677c-0.003,0.006-0.003,0.01-0.006,0.013c-4.384,8.299-7.988,17.116-10.37,26.676      c-6.108,24.479,2.272,46.887,10.373,68.553c8.046,21.51,15.642,41.825,10.256,64.169c-0.706,2.936,1.099,5.891,4.034,6.601      c0.431,0.104,0.862,0.152,1.286,0.152c2.473,0,4.712-1.685,5.314-4.19c6.17-25.597-2.379-48.455-10.645-70.562      c-7.865-21.028-15.292-40.889-10.007-62.072c1.844-7.395,4.478-14.297,7.699-20.882c23.597,5.276,54.233,16.734,74.12,41.598      c1.079,1.351,2.67,2.051,4.277,2.051c1.196,0,2.404-0.389,3.412-1.196c2.359-1.886,2.741-5.327,0.855-7.686      c-10.561-13.205-24.816-24.152-42.37-32.544c-10.661-5.097-22.356-9.187-34.858-12.188c7.45-12.444,16.789-23.97,26.426-35.869      c9.025-11.144,18.221-22.496,25.934-34.91c15.055,6.828,35.39,21.378,53.841,52.35      C430.568,217.506,444.359,264.341,451.151,322.443z M383.441,453.049c0-3.017-2.447-5.47-5.47-5.47      c-42.846,0-83.21-18.361-109.529-33.763c-30.338-17.758-56.096-42.302-74.49-70.983c-1.63-2.544-5.013-3.283-7.557-1.649      c-2.544,1.63-3.283,5.013-1.649,7.557c19.323,30.124,46.352,55.892,78.174,74.512c27.486,16.089,69.752,35.263,115.051,35.263      C380.994,458.519,383.441,456.072,383.441,453.049z"/>
				</g>
			</g>
		</g>
	</g>















</svg>
