<?xml version="1.0" encoding="UTF-8"?>
<svg xmlns="http://www.w3.org/2000/svg" fill="white" id="icons" viewBox="0 0 60 60" width="512" height="512">
  <path d="M47.666,49.912l1.306,1.308,2.248-2.248-1.308-1.306A21.262,21.262,0,0,1,47.666,49.912Z"/>
  <path d="M50.385,52.635l5.15,5.156a.733.733,0,0,0,1.026,0l1.23-1.229a.736.736,0,0,0-.006-1.032l-5.15-5.144Z"/>
  <path d="M2,28.89a8.077,8.077,0,0,0,1.708,4.944l7.158,9.1A10.089,10.089,0,0,1,13,49.109V57a1,1,0,0,0,1,1H34a1,1,0,0,0,1-1V54.949c-.334.016-.662.051-1,.051a21,21,0,1,1,5-41.373V9.169a3.118,3.118,0,0,0-2.706-3.154A3.052,3.052,0,0,0,33,9a1,1,0,1,1-2,0V7.169a3.118,3.118,0,0,0-2.706-3.154A3.051,3.051,0,0,0,25,7a1,1,0,0,1-2,0V5.169a3.118,3.118,0,0,0-2.706-3.154A3.043,3.043,0,0,0,17,5V6a1,1,0,0,1-2,0,3.032,3.032,0,0,0-3.293-2.984A3.118,3.118,0,0,0,9,6.169V26a1,1,0,0,1-2,0V12.089A6.006,6.006,0,0,0,2,18Z"/>
  <path d="M49,34a15,15,0,0,0-8-13.26V31.3a8.974,8.974,0,0,1-.779,3.661L37.6,40.855A6.968,6.968,0,0,0,37,43.7v5A15.025,15.025,0,0,0,49,34Z"/>
  <path d="M15,34A19,19,0,1,0,34,15,19.021,19.021,0,0,0,15,34ZM36,21a1,1,0,0,1,1,1v1a1,1,0,0,1-2,0V22A1,1,0,0,1,36,21Zm0,8a1,1,0,0,1-1-1V27a1,1,0,0,1,2,0v1A1,1,0,0,1,36,29Zm1,3v1a1,1,0,0,1-2,0V32a1,1,0,0,1,2,0ZM35,18a1,1,0,0,1-1,1,15,15,0,0,0,0,30c.338,0,.668-.029,1-.051V43.7a8.974,8.974,0,0,1,.779-3.661L38.4,34.145A6.968,6.968,0,0,0,39,31.3V19.857q-.612-.218-1.25-.383a1,1,0,0,1,.5-1.936A17.006,17.006,0,1,1,34,17,1,1,0,0,1,35,18ZM32,40a1,1,0,0,1-1-1V38a1,1,0,0,1,2,0v1A1,1,0,0,1,32,40Zm1,3v1a1,1,0,0,1-2,0V43a1,1,0,0,1,2,0Zm-1-8a1,1,0,0,1-1-1V33a1,1,0,0,1,2,0v1A1,1,0,0,1,32,35Zm0-5a1,1,0,0,1-1-1V28a1,1,0,0,1,2,0v1A1,1,0,0,1,32,30Zm0-5a1,1,0,0,1-1-1V23a1,1,0,0,1,2,0v1A1,1,0,0,1,32,25ZM28,37a1,1,0,0,1-1-1V35a1,1,0,0,1,2,0v1A1,1,0,0,1,28,37Zm1,3v1a1,1,0,0,1-2,0V40a1,1,0,0,1,2,0Zm-1-8a1,1,0,0,1-1-1V30a1,1,0,0,1,2,0v1A1,1,0,0,1,28,32Zm0-5a1,1,0,0,1-1-1V25a1,1,0,0,1,2,0v1A1,1,0,0,1,28,27Zm-4,9a1,1,0,0,1-1-1V34a1,1,0,0,1,2,0v1A1,1,0,0,1,24,36Zm1,3v1a1,1,0,0,1-2,0V39a1,1,0,0,1,2,0Zm-1-8a1,1,0,0,1-1-1V29a1,1,0,0,1,2,0v1A1,1,0,0,1,24,31Z"/>
</svg>
