<svg id="Layer_1" enable-background="new 0 0 53 53" fill="white" height="512" viewBox="0 0 53 53" width="512"
  xmlns="http://www.w3.org/2000/svg">
  <g>
    <g>
      <path d="m42.8754883 19.6304932v-1.7055664c0-.4799805-.3900146-.8798828-.8800049-.8798828h-3.3000488c-.4899902 0-.8800049.3999023-.8800049.8798828v1.7055664z"/>
      <path d="m37.815 20.63h5.06v4.104h-5.06z"/>
    </g>
    <g>
      <g>
        <path d="m40.9254761 12.3050537c0 1.2199707-.9899902 2.2099609-2.210022 2.2099609h-8.25c.6099854 0 1.1600342.25 1.5599976.6499023.4000244.4001465.6500244.9499512.6500244 1.5600586 0 1.2199707-.9899902 2.2099609-2.210022 2.2099609h-1.0700073c1.2200317 0 2.210022.9899902 2.210022 2.2099609 0 .6101074-.25 1.1601563-.6500244 1.5600586-.3999634.4001465-.9500122.6501465-1.5599976.6501465h-1.7099609c.6099854 0 1.1599731.25 1.5599976.6499023.3999634.3999023.6499634.9499512.6499634 1.5600586 0 1.2199707-.9899902 2.2099609-2.2099609 2.2099609h-5.7400513c-1.4899902 0-2.9599609-.3400879-4.2999878-1l-1.8399658-.8999023c-1.0800171-.5302734-2.2300415-.8500977-3.4200439-.9602051v-14.0100096l2.7900391-2.0100098c1.4400024-1.0300293 2.9899902-1.8898926 4.6300049-2.5598145l7.1399536-2.9101563c.2700195-.1098633.5599976-.1599121.8400269-.1599121.8099976 0 1.5800171.4299316 1.9899902 1.1799316.6099854 1.1298828.1400146 2.5400391-1.0200195 3.0900879l-5.3999634 2.5598145h15.3599854c.6099854 0 1.1600342.25 1.5599976.6501465.4000241.3999025.6500241.9499513.6500241 1.5600587z"/>
      </g>
      <g>
        <circle cx="7.404" cy="23.083" r=".791"/>
        <path d="m9.8113403 8.9832764h-4.8817749c-.9343262 0-1.6917114.7573242-1.6917114 1.6916504v14.7387695c0 .9343262.7573853 1.6918945 1.6917114 1.6918945h4.8817749c.9343262 0 1.6917114-.7575684 1.6917114-1.6918945v-14.7387695c.0000001-.9343262-.7573852-1.6916504-1.6917114-1.6916504zm-2.4072876 15.8903808c-.9873047 0-1.7910156-.8037109-1.7910156-1.7910156s.8037109-1.7910156 1.7910156-1.7910156 1.7910156.8037109 1.7910156 1.7910156-.8037109 1.7910156-1.7910156 1.7910156z"/>
      </g>
    </g>
    <g>
      <path d="m44.8669434 30.2349854h-9.0429688c-.2177734 0-.3955078.1777344-.3955078.3964844v8.1132813c0 .21875.1777344.3964844.3955078.3964844h9.0429688c.2177734 0 .3955078-.1777344.3955078-.3964844v-8.1132813c0-.2187501-.1777344-.3964844-.3955078-.3964844z"/>
      <path d="m46.720459 25.7349854h-12.75c-1.6798706 0-3.041687 1.3618164-3.041687 3.0415039v17.916748c0 1.6799316 1.3618164 3.041748 3.041687 3.041748h12.75c1.6798706 0 3.041687-1.3618164 3.041687-3.041748v-17.916748c0-1.6796875-1.3618164-3.0415039-3.041687-3.0415039zm-.9580078 20.5h-10.8339844c-.2763672 0-.5-.2236328-.5-.5s.2236328-.5.5-.5h10.8339844c.2763672 0 .5.2236328.5.5s-.2236328.5-.5.5zm-11.3339844-2.875c0-.2763672.2236328-.5.5-.5h2.0615234c.2763672 0 .5.2236328.5.5s-.2236328.5-.5.5h-2.0615234c-.2763672 0-.5-.2236329-.5-.5zm4.3857422 0c0-.2763672.2236328-.5.5-.5h2.0625c.2763672 0 .5.2236328.5.5s-.2236328.5-.5.5h-2.0625c-.2763672 0-.5-.2236329-.5-.5zm6.9482422.5h-2.0615234c-.2763672 0-.5-.2236328-.5-.5s.2236328-.5.5-.5h2.0615234c.2763672 0 .5.2236328.5.5s-.2236328.5-.5.5zm.5-5.1152344c0 .7695313-.6259766 1.3964844-1.3955078 1.3964844h-9.0429688c-.7695313 0-1.3955078-.6269531-1.3955078-1.3964844v-8.1132813c0-.7695313.6259766-1.3964844 1.3955078-1.3964844h9.0429688c.7695313 0 1.3955078.6269531 1.3955078 1.3964844z"/>
    </g>
  </g>
</svg>