<svg id="Glyph" height="512" viewBox="0 0 64 64" fill="white" width="512"
  xmlns="http://www.w3.org/2000/svg">
  <path d="m59.45 18.68a14.93971 14.93971 0 0 0 -13.98-12.18 15.82107 15.82107 0 0 0 -10.63 3.75h-3.06c-3.55-.75-3.33-5-3.32-5.18a1.00245 1.00245 0 1 0 -2-.14c-.15 2.16.72 6.47 5.03 7.31a1.20907 1.20907 0 0 0 .19.01h3.55a1.01735 1.01735 0 0 0 .7-.28 13.848 13.848 0 0 1 9.47-3.47 12.92571 12.92571 0 0 1 12.09 10.55 23.55787 23.55787 0 0 1 .26 6.4c-.1-.05-.19-.09-.28-.14a12.77558 12.77558 0 0 0 -6.34-1.51 12.776 12.776 0 0 0 -6.34 1.51 10.849 10.849 0 0 1 -5.47 1.32 10.86207 10.86207 0 0 1 -5.48-1.32 19.8301 19.8301 0 0 0 -1.89-.82c-.05-3.71.31-6.41 1.01-7.39a.99219.99219 0 0 0 .07-1.06 1.01463 1.01463 0 0 0 -.93-.52c-.35.02-8.38.30005-9.3-10.6a.99822.99822 0 1 0 -1.99.16c.82 9.8 6.92 11.89 9.84 12.33a26.70121 26.70121 0 0 0 -.69 7.82c.00995.49.03.98.05 1.45a8.48664 8.48664 0 0 1 -.96 4.48 10.46784 10.46784 0 0 1 -6.06 4.68 11.16121 11.16121 0 0 0 -3.49 1.81 6.86169 6.86169 0 0 0 -3.28-2 9.03876 9.03876 0 0 0 -8.08 1.42 9.84206 9.84206 0 0 0 -3.99 7.88v14.05a1.00292 1.00292 0 0 0 1 1h5.63a1.003 1.003 0 0 0 1-1v-13.58a2.5756 2.5756 0 0 1 2.57-2.57h.62a.28838.28838 0 0 1 .28.37c-1.17 4.36-.79 8.05 1.15 10.95 3.13 4.7 9.16 5.55 9.41 5.58 6.99 1 13.94-1.05 20.09-5.93a33.09567 33.09567 0 0 0 9.66-12.86c3.72-8.66 5.03-16.16 3.89-22.28z"/>
</svg>