<svg id="Layer_1" enable-background="new 0 0 66 66" fill="white" height="512" viewBox="0 0 66 66" width="512"
  xmlns="http://www.w3.org/2000/svg">
  <g>
    <path d="m63 45.61h-60c-.55 0-1 .45-1 1v4c0 .55.45 1 1 1h60c.55 0 1-.45 1-1v-4c0-.55-.45-1-1-1z"/>
    <path d="m46.74 60.47h-10.42v-3h-6.63v3h-10.43c-1.1 0-2 .9-2 2v1.85h31.48v-1.85c0-1.11-.89-2-2-2z"/>
    <path d="m45.83 35.56-36.4 1.78v-2.18c-1.32-1.32-2.05-2.06-3.38-3.38h-.82v9.82c0 1.1.9 2 2 2h42.15c1.22 0 2.25-.98 2.25-2.2.03-3.21-2.58-5.84-5.8-5.84z"/>
    <path d="m19.94 18.18h26.12c1.31 0 2.36-1.06 2.36-2.36s-1.06-2.36-2.36-2.36h-26.12c-1.31 0-2.36 1.06-2.36 2.36s1.06 2.36 2.36 2.36z"/>
    <path d="m26.72 21.14v-.98h-6.14v.98c0 .74.6 1.34 1.34 1.34h3.47c.74 0 1.33-.6 1.33-1.34z"/>
    <path d="m36.05 21.14v-.98h-6.15v.98c0 .74.6 1.34 1.34 1.34h3.47c.74 0 1.34-.6 1.34-1.34z"/>
    <path d="m44.03 22.48c.74 0 1.34-.6 1.34-1.34v-.98h-6.14v.98c0 .74.6 1.34 1.34 1.34z"/>
    <path d="m32 25.88v3.35c0 .55.45 1 1 1s1-.45 1-1v-3.35c0-.55-.45-1-1-1s-1 .44-1 1z"/>
    <path d="m38.68 27.92c.2.2.45.29.71.29s.51-.1.71-.29c.39-.39.39-1.02 0-1.41l-2.37-2.37c-.39-.39-1.02-.39-1.41 0s-.39 1.02 0 1.41z"/>
    <path d="m26.61 28.21c.26 0 .51-.1.71-.29l2.37-2.37c.39-.39.39-1.02 0-1.41s-1.02-.39-1.41 0l-2.38 2.36c-.39.39-.39 1.02 0 1.41.2.2.45.3.71.3z"/>
    <path d="m38.23 9.24h-4.23v-4.56c0-.55.45-1 1-1h27.15c.55 0 1-.45 1-1s-.45-1-1-1h-27.15c-1.65 0-3 1.35-3 3v4.56h-4.23c-1.59 0-2.96.9-3.68 2.2h17.81c-.71-1.3-2.08-2.2-3.67-2.2z"/>
    <path d="m41.09 55.46c.55 0 1-.45 1-1v-.85h-18.18v.85c0 .55.45 1 1 1z"/>
    <path d="m55.72 43.61c2.79 0 5.05-2.26 5.05-5.05s-2.26-5.05-5.05-5.05c-1.83 0-3.4.99-4.28 2.45 1.36 1.4 2.2 3.3 2.2 5.4 0 .57-.12 1.12-.33 1.62.72.4 1.54.63 2.41.63z"/>
  </g>
</svg>