<svg id="Layer_1" enable-background="new 0 0 512 512" fill="white" viewBox="0 0 512 512"
  xmlns="http://www.w3.org/2000/svg">
  <path d="m364.729 350.467c-9.521-7.765-22.855-7.854-32.426-1.018l-33.804-27.616c8.733-12.126 14.961-25.949 18.314-40.83l43.135 7.016c1.218 11.707 10.13 21.657 22.296 23.644 1.457.23 2.914.349 4.351.349 5.559 0 10.959-1.737 15.549-5.04 5.789-4.182 9.611-10.36 10.759-17.406s-.519-14.112-4.691-19.901c-4.162-5.788-10.34-9.611-17.376-10.759-7.046-1.148-14.112.519-19.911 4.681-3.852 2.774-6.837 6.437-8.733 10.639l-43.135-7.016c1.547-15.4-.12-30.48-4.491-44.522l40.88-15.48c2.705 3.743 6.348 6.737 10.669 8.683 3.503 1.577 7.236 2.375 10.968 2.375 3.194 0 6.397-.579 9.471-1.747 13.763-5.22 20.739-20.679 15.549-34.452l-.01-.03c-5.23-13.753-20.699-20.709-34.482-15.5-11.507 4.382-18.254 15.899-17.107 27.606l-40.91 15.48c-6.208-13.703-15.11-26.059-26.129-36.299l27.676-33.863c3.463 1.547 7.176 2.306 10.869 2.306 7.755 0 15.45-3.344 20.739-9.791 4.521-5.519 6.607-12.485 5.889-19.591-.719-7.106-4.152-13.504-9.671-18.025l-.01-.01c-11.408-9.302-28.284-7.605-37.626 3.813-7.755 9.541-7.835 22.875-1.008 32.446l-27.666 33.854c-11.927-8.603-25.69-14.971-40.78-18.394l7.016-43.136c4.601-.469 9.012-2.116 12.865-4.88 5.799-4.172 9.621-10.35 10.769-17.386 1.158-7.046-.509-14.122-4.681-19.911-4.172-5.799-10.36-9.631-17.406-10.779s-14.112.519-19.911 4.691c-5.779 4.172-9.601 10.36-10.749 17.406-1.976 12.146 4.611 23.743 15.32 28.614l-7.016 43.136c-15.4-1.547-30.48.12-44.533 4.491l-15.47-40.87c9.511-6.916 13.663-19.601 9.312-31.129-5.25-13.773-20.709-20.729-34.462-15.51-13.773 5.2-20.739 20.649-15.52 34.452 4.042 10.669 14.252 17.266 25.061 17.266.838 0 1.687-.05 2.535-.13l15.49 40.89c-13.703 6.218-26.059 15.11-36.299 26.129l-33.864-27.676c4.791-10.719 2.046-23.773-7.485-31.578-5.529-4.521-12.485-6.617-19.592-5.909-7.106.719-13.513 4.162-18.035 9.701-9.292 11.398-7.595 28.255 3.803 37.586 4.95 4.042 10.939 6.008 16.887 6.008 5.499 0 10.978-1.697 15.579-4.98l33.844 27.656c-8.603 11.937-14.971 25.71-18.394 40.81l-43.135-7.026c-1.218-11.707-10.12-21.647-22.266-23.634-14.551-2.365-28.314 7.525-30.69 22.077-1.148 7.056.519 14.132 4.691 19.921s10.36 9.611 17.406 10.759c1.447.23 2.894.349 4.312.349 10.509 0 20.011-6.248 24.292-15.679l43.145 7.026c-1.537 15.17-.01 30.261 4.421 44.532l-40.8 15.47c-6.916-9.541-19.611-13.693-31.109-9.322-6.687 2.525-11.976 7.505-14.911 14.022-2.934 6.517-3.144 13.773-.619 20.41 2.515 6.687 7.485 11.986 14.002 14.921 3.503 1.577 7.226 2.375 10.949 2.375 3.204 0 6.407-.589 9.481-1.757 6.687-2.515 11.986-7.495 14.921-14.002 1.956-4.332 2.705-8.982 2.246-13.583l40.81-15.48c3.074 6.777 6.847 13.304 11.288 19.482 4.441 6.168 9.422 11.807 14.871 16.867l-27.626 33.804c-4.212-1.886-8.853-2.665-13.573-2.196-7.096.719-13.503 4.162-18.015 9.691-4.521 5.519-6.617 12.475-5.908 19.571.719 7.106 4.162 13.504 9.691 18.015 4.811 3.942 10.719 6.048 16.857 6.048.898 0 1.806-.05 2.715-.14 7.096-.719 13.503-4.162 18.015-9.691 4.521-5.519 6.617-12.466 5.908-19.571-.479-4.721-2.166-9.132-4.87-12.885l27.616-33.794c12.136 8.733 25.959 14.971 40.85 18.324l-7.026 43.136c-11.707 1.217-21.647 10.13-23.634 22.296-2.365 14.532 7.525 28.285 22.077 30.66 1.447.23 2.884.349 4.312.349 12.855 0 24.232-9.332 26.368-22.416 1.148-7.046-.519-14.112-4.681-19.911-2.775-3.853-6.437-6.837-10.649-8.733l7.026-43.145c3.822.389 7.645.599 11.447.599 11.278 0 22.406-1.707 33.075-5.02l15.47 40.82c-3.743 2.705-6.747 6.348-8.693 10.679-2.934 6.517-3.144 13.773-.619 20.42 2.515 6.687 7.495 11.986 14.013 14.921 3.503 1.577 7.236 2.375 10.968 2.375 3.194 0 6.387-.579 9.461-1.737l.01-.01c6.687-2.535 11.976-7.515 14.911-14.033 2.924-6.507 3.144-13.773.609-20.43-2.525-6.677-7.495-11.966-14.012-14.891-4.322-1.946-8.982-2.695-13.573-2.236l-15.48-40.83c6.777-3.074 13.304-6.837 19.482-11.288 6.168-4.441 11.807-9.421 16.877-14.871l33.804 27.626c-4.801 10.749-2.056 23.823 7.485 31.608 4.94 4.042 10.918 6.018 16.867 6.018 7.745 0 15.44-3.353 20.719-9.801 4.521-5.529 6.617-12.486 5.908-19.592-.716-7.103-4.16-13.51-9.699-18.031zm-214.249-55.581c-10.829 0-19.632-8.803-19.632-19.631s8.803-19.631 19.632-19.631 19.631 8.803 19.631 19.631-8.802 19.631-19.631 19.631zm56.16-49.283c-16.448 0-29.821-13.374-29.821-29.812 0-16.458 13.374-29.851 29.821-29.851 16.458 0 29.841 13.394 29.841 29.851 0 16.438-13.384 29.812-29.841 29.812zm48.145 73.645c-10.819 0-19.632-8.813-19.632-19.632 0-10.829 8.813-19.641 19.632-19.641s19.611 8.813 19.611 19.641c.001 10.819-8.792 19.632-19.611 19.632zm252.724 31.289-17.336 8.234c-.349 8.124-2.086 16.618-5.11 24.971l17.925 8.034c3.523 1.577 5.1 5.709 3.513 9.232-1.158 2.595-3.713 4.132-6.378 4.132-.958 0-1.926-.2-2.854-.609l-17.905-8.034c-4.312 8.014-9.501 14.931-15.2 20.5l5.379 18.374c1.088 3.703-1.038 7.585-4.741 8.673-.659.19-1.317.279-1.966.279-3.024 0-5.809-1.976-6.707-5.03l-3.823-13.054c-6.976 4.162-14.262 6.427-21.288 6.427-1.976 0-3.922-.19-5.849-.549l-4.302 9.601c-1.158 2.595-3.713 4.132-6.377 4.132-.958 0-1.926-.2-2.854-.609-3.523-1.577-5.1-5.719-3.523-9.232l4.302-9.611c-6.896-5.29-11.617-13.603-13.643-24.163l-12.346 5.878c-.968.459-1.986.679-2.994.679-2.615 0-5.12-1.477-6.318-3.992-1.657-3.483-.18-7.655 3.313-9.312l17.346-8.254c.359-8.124 2.096-16.607 5.12-24.951l-17.935-8.024c-3.523-1.577-5.1-5.719-3.523-9.242 1.577-3.513 5.709-5.09 9.232-3.523l17.945 8.034c4.222-7.844 9.412-14.781 15.19-20.43l-5.409-18.474c-1.088-3.703 1.038-7.585 4.741-8.663 3.703-1.088 7.585 1.038 8.673 4.741l3.852 13.144c2.555-1.537 5.16-2.835 7.805-3.842 6.657-2.545 13.214-3.234 19.302-2.086l4.302-9.611c1.587-3.523 5.719-5.1 9.242-3.513 3.513 1.577 5.09 5.709 3.513 9.232l-4.302 9.601c6.887 5.28 11.617 13.593 13.643 24.153l12.356-5.868c3.483-1.647 7.645-.17 9.302 3.323 1.657 3.483.17 7.655-3.313 9.302zm-77.149-103.118v-62.757c0-15.819 12.875-28.684 28.694-28.684 15.829 0 28.714 12.865 28.714 28.684v62.757c0 15.829-12.885 28.714-28.714 28.714-15.819 0-28.694-12.885-28.694-28.714z"/>
</svg>