<svg fill="white" height="512" viewBox="0 0 24 24" width="512"
  xmlns="http://www.w3.org/2000/svg">
  <g clip-rule="evenodd" fill-rule="evenodd">
    <path d="m7.25003 5.46114v1.48849c-.36155.02738-.72293.05789-1.08409.09153-1.44089.1342-2.56462 1.4709-2.70398 2.90923-.01598.16491.11974.29961.28543.29961h16.50531c.1656 0 .3014-.1347.2854-.29961-.1394-1.43833-1.2631-2.77503-2.704-2.90923-.3612-.03364-.7225-.06415-1.0841-.09152v-1.4885c0-.86625-.6337-1.60214-1.4904-1.73064l-1.2199-.18299c-1.3522-.20283-2.7271-.20283-4.07935 0l-1.21992.18299c-.85665.1285-1.4904.86439-1.4904 1.73064zm6.56717-.43022c-1.2047-.18071-2.4296-.18071-3.6343 0l-1.21995.18298c-.12239.01836-.21292.12349-.21292.24724v1.39292c2.16517-.112 4.33477-.112 6.49997 0v-1.39292c0-.12375-.0905-.22888-.2129-.24724z"/>
    <path d="m20.5527 12.05c0-.1657-.1344-.3-.3-.3h-16.50531c-.16569 0-.3.1343-.3.3v5.9252c0 1.5473 1.17799 2.8401 2.71855 2.9835 3.88096.3615 7.78716.3615 11.66816 0 1.5406-.1434 2.7186-1.4362 2.7186-2.9835zm-11.05267 3.2c-.41421 0-.75.3357-.75.75 0 .4142.33579.75.75.75h1.74997v1.75c0 .4142.3358.75.75.75s.75-.3358.75-.75v-1.75h1.75c.4142 0 .75-.3358.75-.75 0-.4143-.3358-.75-.75-.75h-1.75v-1.75c0-.4143-.3358-.75-.75-.75s-.75.3357-.75.75v1.75z"/>
  </g>
</svg>