<svg enable-background="new 0 0 64 64" fill="white" viewBox="0 0 64 64"
  xmlns="http://www.w3.org/2000/svg">
  <g id="guid"/>
  <g id="Layer_1"/>
  <g id="Layer_2"/>
  <g id="Layer_3"/>
  <g id="Layer_4"/>
  <g id="Layer_5"/>
  <g id="Layer_6"/>
  <g id="Layer_7"/>
  <g id="Layer_8"/>
  <g id="Layer_9"/>
  <g id="Layer_10"/>
  <g id="Layer_11"/>
  <g id="Layer_12"/>
  <g id="Layer_13"/>
  <g id="Layer_14"/>
  <g id="Layer_15"/>
  <g id="Layer_16"/>
  <g id="Layer_17"/>
  <g id="Layer_18"/>
  <g id="Layer_19"/>
  <g id="Layer_20"/>
  <g id="Layer_21"/>
  <g id="Layer_22"/>
  <g id="Layer_23"/>
  <g id="Layer_24"/>
  <g id="Layer_25"/>
  <g id="Layer_26"/>
  <g id="Layer_27"/>
  <g id="Layer_28"/>
  <g id="Layer_29"/>
  <g id="Layer_30"/>
  <g id="Layer_31"/>
  <g id="Layer_32"/>
  <g id="Layer_33"/>
  <g id="Layer_34"/>
  <g id="Layer_35"/>
  <g id="Layer_36">
    <g>
      <path d="m13.79 37.36c-.1-.03-.18-.09-.25-.17-.96-1.21-2.05-2.71-2.63-4.18-.5-3.32-4.53-2.26-2.56 1.4.6 1.34 1.33 2.54 2.02 3.71 1.06 1.77 1.98 3.3 2.1 4.75.06.66-.97.75-1.02.08-.1-1.21-.96-2.65-1.96-4.3-.68-1.13-1.45-2.42-2.08-3.81-.85-1.93-.97-3.58.46-4.48l.44-7.49c.11-1.29-.53-2.03-1.18-2.18-.62-.14-1.18.23-1.48.98l-1.65 12.61 3.49 9.49 5.43 7.02 6.64-3.82c.5-5.03-1.44-8.27-5.77-9.61z"/>
      <path d="m29.52 32.11c-.5-.29-1.19-.19-2.03.29-.57.34-1.08-.58-.5-.89 1.18-.67 2.2-.77 3.03-.29.23.13.42.3.59.49v-10.46c-.51.45-1.16.84-1.91 1.02-.02.01-.02.03-.04.04-.21.14-.83.65-.87 1.1-.01.1.01.27.23.48.2.19.5.42.74.36.22-.05.4-.31.47-.47.25-.62 1.2-.21.94.4-.18.49-.8 1.13-1.49 1.1-.45 0-.91-.22-1.36-.65-.5-.48-.57-.98-.54-1.31.03-.37.2-.7.4-.98-.57-.09-1.18-.32-1.81-.73-.56-.35.01-1.23.55-.86 2.51 1.64 4.3-.48 4.69-1.02v-4.69c-.15.02-.3.03-.45.03-.76 0-1.55-.23-1.82-1.02-.2-.58-.05-1.14.06-1.59.18-.69.16-.82-.16-1-.58-.32-.07-1.23.5-.89 1.04.59.8 1.53.65 2.15-.09.37-.18.72-.08 1.01.12.36.81.36 1.31.29v-4.14c0-.48-.31-.91-.76-1.04-.78-.23-1.49-.34-2.16-.34-2.33 0-4.06 1.39-5.36 4.23 1.06.94 2.19.85 3.54-.33.49-.44 1.17.35.67.78-.27.23-.53.43-.78.59.63.39 1.18 1.05 1.17 2.14-.02 1.26-.63 2.36-1.55 2.81-.23.11-.57.22-.99.22-.56 0-1.27-.19-2.09-.84-.53-.4.11-1.23.63-.81.76.6 1.45.77 2.01.5.58-.28.97-1.03.98-1.9.02-1.28-1.19-1.51-1.51-1.55-.2.04-.4.06-.59.06-.87 0-1.58-.41-2.14-.91-1.54 1-2.29 2.49-2.34 4.67.01 1.01.32 1.8.95 2.41.48.46-.24 1.21-.71.74-.54-.53-.9-1.18-1.09-1.93-1.77 2.36-1.77 4.64-.01 7.08.96.75 1.79.74 2.66-.03.49-.45 1.17.34.67.77-.63.56-1.3.84-1.98.84-.45 0-.9-.13-1.35-.37-.44 2.72.16 4.58 1.83 5.64-.17-.77-.05-1.53.36-2.27.31-.59 1.22-.07.89.5-.46.82-.39 1.65.19 2.55 0 .01 0 .01.01.02 0 .01.01.01.02.02.89 1.67 2.26 2.83 3.85 3.27 1.42.39 2.88.2 4.11-.55.85-.46.95-1.53.89-2.42-.06-.67-.37-1.89-1.12-2.32zm-2.36-5.93c.27-.07.55.1.61.38.18.76.66 1.37 1.12 1.45.66.09.49 1.13-.16 1.01-1.02-.16-1.72-1.23-1.95-2.22-.06-.27.1-.55.38-.62zm-3.84 1.86c.78-.33 1.24-1.18 1.17-1.77-.04-.33-.24-.52-.61-.59-1.69-.28-2.12-1.47-2.12-2.07 0-.66 1.03-.66 1.02.01 0 .09.06.85 1.26 1.05.82.13 1.37.69 1.46 1.48.13 1.11-.66 2.36-1.79 2.83-.6.27-1-.69-.39-.94zm2.96 6.3c-.56.11-1.28-.13-1.51-.4-.63-.58-.62-1.5-.61-1.6.02-.67 1.05-.63 1.02.04 0 .15.04.59.28.81.15.14.38.18.68.14.28-.04.54.16.57.44.05.27-.15.53-.43.57z"/>
      <path d="m10.98 30.78.38-6.55c.1-1.17-.41-1.84-.91-2.09-.38-.18-.77-.15-1.11.07.02.23-.41 7.77-.41 7.77.76-.11 1.53.21 2.05.8z"/>
      <path d="m13.75 26.8c.12-.84-.08-1.55-.55-1.97-.25-.22-.54-.33-.84-.32l-.48 8.2c.24.59.57 1.18.94 1.75z"/>
      <path d="m42.26 34.11c0-.01 0-.01.01-.02.59-.9.65-1.73.19-2.55-.33-.58.57-1.09.89-.5.41.74.53 1.5.36 2.27 1.66-1.06 2.26-2.92 1.83-5.64-.45.24-.9.37-1.35.37-.68 0-1.35-.28-1.98-.84-.5-.43.18-1.22.67-.77.87.77 1.7.78 2.66.03 1.77-2.44 1.76-4.72-.01-7.08-.19.75-.54 1.4-1.09 1.93-.47.47-1.19-.28-.71-.74.62-.61.93-1.4.95-2.41-.05-2.18-.8-3.67-2.34-4.67-.56.51-1.28.91-2.14.91-.19 0-.39-.02-.59-.06-.32.04-1.53.28-1.51 1.55.01.87.4 1.62.98 1.9.56.27 1.25.1 2.01-.5.51-.42 1.15.41.63.81-.82.64-1.53.84-2.09.84-.42 0-.76-.11-.99-.22-.93-.45-1.54-1.55-1.55-2.81-.01-1.09.53-1.76 1.17-2.14-.25-.16-.51-.35-.78-.59-.51-.43.17-1.22.67-.78 1.35 1.17 2.48 1.27 3.54.33-1.3-2.84-3.03-4.23-5.36-4.23-.67 0-1.38.11-2.15.34-.45.13-.76.56-.76 1.04v4.14c.51.07 1.19.07 1.31-.29.1-.29.01-.64-.08-1.01-.16-.62-.4-1.55.65-2.15.57-.34 1.08.58.5.89-.32.18-.34.3-.16 1 .12.45.26 1.01.06 1.59-.27.79-1.06 1.02-1.82 1.02-.15 0-.3-.02-.45-.03v4.69c.39.53 2.18 2.66 4.69 1.02.55-.37 1.11.51.55.86-.63.41-1.24.64-1.81.73.2.28.37.61.4.98.03.34-.04.83-.54 1.31-.45.43-.91.65-1.36.65-.1 0-.19-.01-.29-.03-.61-.13-1.03-.66-1.2-1.07-.26-.61.69-1.02.94-.4.07.16.25.42.47.47.24.06.54-.17.74-.36.22-.21.24-.37.23-.48-.04-.45-.66-.96-.87-1.1-.02-.01-.03-.03-.04-.04-.75-.19-1.4-.58-1.91-1.02v10.46c.17-.19.36-.36.59-.49.83-.47 1.85-.38 3.03.29.25.14.33.45.19.7s-.45.33-.69.19c-.84-.48-1.53-.58-2.03-.29-.75.43-1.06 1.65-1.09 2.32v.8c.16 2.29 3.22 2.64 5 2.16 1.59-.44 2.96-1.6 3.85-3.27-.03.01-.03 0-.02-.01zm-5.04-7.31c-.24.99-.93 2.05-1.95 2.22-.65.12-.82-.92-.16-1.01.47-.08.94-.68 1.12-1.45.07-.28.34-.44.61-.38.28.07.44.35.38.62zm2.01 7.14c-.22.2-.59.42-1.17.42-.82.2-1.11-1.06-.2-1.04.31.04.53 0 .68-.14.24-.22.29-.66.28-.81-.01-.28.21-.52.49-.53s.51.21.52.49c.01.12.03 1.04-.6 1.61zm.89-8.25c-.37.06-.57.25-.61.59-.07.59.39 1.44 1.17 1.77.62.25.21 1.21-.39.95-1.13-.47-1.92-1.72-1.79-2.83.09-.79.64-1.34 1.46-1.48 1.21-.2 1.26-.96 1.26-1.05.01-.28.21-.48.51-.51.28 0 .5.22.51.5 0 .59-.43 1.78-2.12 2.06z"/>
      <path d="m13.31 51.74 2.15 3.76 7.15-4.12-2.15-3.75z"/>
      <path d="m41.39 51.38 7.15 4.12 2.15-3.76-7.15-4.11z"/>
      <path d="m58.33 21.66c-.3-.75-.87-1.12-1.48-.98-.64.15-1.28.89-1.18 2.17l.44 7.5c2.75 1.77-.46 6.22-1.62 8.3-1 1.66-1.86 3.09-1.96 4.3-.05.67-1.08.58-1.02-.08.12-1.45 1.04-2.98 2.1-4.75.85-1.47 3.13-4.94 2.42-6.4-1.16-1.65-2.74-.27-2.94 1.27-.56 1.44-1.67 2.97-2.65 4.2-.06.08-.15.14-.25.17-4.33 1.34-6.27 4.57-5.76 9.6l6.64 3.82 5.43-7.02 3.5-9.48z"/>
      <path d="m52.11 32.71-.48-8.21c-.29-.01-.59.1-.84.32-.47.42-.67 1.13-.55 1.96l.93 7.67c.38-.57.71-1.16.94-1.74z"/>
      <path d="m55.07 29.98s-.43-7.55-.41-7.77c-.34-.22-.74-.25-1.11-.07-.51.25-1.01.92-.92 2.08l.39 6.57c.52-.61 1.28-.92 2.05-.81z"/>
    </g>
  </g>
  <g id="Layer_37"/>
  <g id="Layer_38"/>
  <g id="Layer_39"/>
  <g id="Layer_40"/>
  <g id="Layer_41"/>
  <g id="Layer_42"/>
  <g id="Layer_43"/>
  <g id="Layer_44"/>
  <g id="Layer_45"/>
  <g id="Layer_46"/>
  <g id="Layer_47"/>
  <g id="Layer_48"/>
  <g id="Layer_49"/>
  <g id="Layer_50"/>
</svg>